SplineFontDB: 3.2
FontName: Petaluma
FullName: Petaluma Regular
FamilyName: Petaluma
Weight: Regular

StartChar: .notdef
Encoding: 65536 -1 0
Width: 1000
Flags: MW
HStem: -1000 138<334 666 334 820> -796 94<334 474 462 462 462 474 602 666> -636 46<334 666 334 666> -524 94<400 600 400 600> -364 120<334 666 334 666> -178 48<466 534 466 600> -18 44<334 400 334 666 466 666 466 466> 94 46<334 534 334 600 334 534> 206 74<334 466 334 466> 346 54<334 666 334 666> 468 72<400 466 400 466 400 534 400 666> 608 52<334 534 334 666> 726 74<336 466 336 466 334 466 336 534 534 666> 866 134<336 666 336 336>
VStem: 186 148<-862 -796 -702 -636 -590 -364 -244 -18 26 94 140 206 280 346 400 608 660 726> 400 66<-130 -18 -130 -18 -130 -18 468 540> 400 200<-524 -430 -524 -430 -178 -84> 534 66<-130 -84 140 226> 666 154<-862 -796 -796 -796 -702 -636 -636 -636 -590 -364 -364 -364 -244 -18 -18 -18 26 226 226 226 280 346 346 346 400 468 468 468 660 726 726 726 800 866 866 866>
LayerCount: 2
Fore
SplineSet
820 1000 m 1xffff60
 820 -1000 l 1
 186 -1000 l 1
 186 1000 l 1
 820 1000 l 1xffff60
666 -364 m 1
 334 -364 l 1
 334 -590 l 1
 666 -590 l 1
 666 -364 l 1
600 -430 m 1x1a02a0
 600 -524 l 1
 400 -524 l 1
 400 -430 l 1
 600 -430 l 1x1a02a0
666 -18 m 1
 466 -18 l 1
 466 -130 l 1
 534 -130 l 1
 534 -84 l 1
 600 -84 l 1
 600 -178 l 1
 400 -178 l 1
 400 -18 l 1xe7ff60
 334 -18 l 1
 334 -244 l 1
 666 -244 l 1
 666 -18 l 1
666 226 m 1
 600 226 l 1
 600 94 l 1
 334 94 l 1
 334 26 l 1
 666 26 l 1
 666 226 l 1
666 346 m 1
 334 346 l 1
 334 280 l 1
 466 280 l 1
 466 206 l 1
 334 206 l 1
 334 140 l 1
 534 140 l 1
 534 280 l 1
 666 280 l 1
 666 346 l 1
466 540 m 1
 466 468 l 1
 400 468 l 1
 400 540 l 1
 466 540 l 1
534 608 m 1
 334 608 l 1
 334 400 l 1
 666 400 l 1
 666 468 l 1
 534 468 l 1
 534 608 l 1
666 866 m 1
 336 866 l 1
 336 800 l 1
 466 800 l 1
 466 726 l 1
 334 726 l 1
 334 660 l 1
 666 660 l 1
 666 726 l 1
 534 726 l 1
 534 800 l 1
 666 800 l 1
 666 866 l 1
666 -636 m 1
 334 -636 l 1
 334 -702 l 1
 474 -702 l 1
 334 -796 l 1
 334 -862 l 1
 666 -862 l 1
 666 -796 l 1
 462 -796 l 1
 602 -702 l 1
 666 -702 l 1
 666 -636 l 1
EndSplineSet
EndChar

StartChar: uni266D
Encoding: 9837 9837 1
Width: 198
Flags: MW
HStem: -231 680<7 35> 71 112<97.5 142>
VStem: -10 46 12 36 154 44<38 41>
LayerCount: 2
Fore
SplineSet
9 -231 m 0x98
 5 -231 3 -228 1 -222 c 0
 -8 -189 -10 -154 -10 -121 c 0xa8
 -9 -36 4 47 7 132 c 0
 9 191 12 250 12 309 c 2
 12 340 l 2
 11 368 14 397 15 425 c 0
 15 439 23 448 34 449 c 2
 35 449 l 2
 45 449 45 436 47 429 c 0
 52 408 54 386 54 365 c 0
 54 343 52 322 52 300 c 0
 50 262 49 224 48 186 c 2
 48 160 l 1
 49 161 l 1
 63 167 77 174 91 178 c 0
 102 181 112 183 121 183 c 0
 163 183 191 155 196 106 c 0x58
 198 92 198 79 198 65 c 0
 198 -44 151 -129 63 -192 c 0
 49 -202 34 -213 21 -224 c 0
 16 -229 12 -231 9 -231 c 0x98
36 -96 m 1x68
 81 -64 125 -31 149 21 c 0
 153 29 154 35 154 41 c 0
 155 52 147 60 131 66 c 0
 123 69 115 71 108 71 c 0
 87 71 68 61 49 53 c 2
 45 51 l 1
 45 29 44 7 42 -15 c 0
 39 -43 38 -70 36 -96 c 1x68
EndSplineSet
EndChar

StartChar: uni266E
Encoding: 9838 9838 2
Width: 213
Flags: MW
HStem: -463 918
VStem: 2 38 12 38<359 359.5 321.5 421.5> 160 43<-238.5 -187.5 -238.5 -161 -238.5 -161>
LayerCount: 2
Fore
SplineSet
177 -463 m 0xd0
 164 -463 167 -447 164 -437 c 0
 157 -413 155 -389 155 -365 c 0
 155 -329 160 -292 160 -256 c 2
 160 -161 l 1
 155 -162 l 1
 34 -180 l 2
 30 -181 27 -181 24 -181 c 0
 12 -181 5 -176 5 -159 c 0
 5 -140 3 -120 2 -100 c 0
 1 -71 0 -42 0 -12 c 0
 0 23 1 58 2 93 c 0xd0
 5 200 12 305 12 413 c 0
 12 430 15 448 39 455 c 1
 46 439 49 423 49 406 c 0
 50 387 50 369 50 350 c 0
 50 293 47 235 44 178 c 1xb0
 93 182 142 187 189 200 c 0
 210 205 206 183 211 173 c 0
 215 164 213 152 213 149 c 2
 212 131 l 1
 212 125 l 1
 211 113 l 1
 211 110 l 2
 210 97 208 82 208 82 c 1
 206 15 201 -52 201 -119 c 0
 201 -146 203 -174 203 -201 c 0
 203 -276 198 -349 198 -423 c 0
 198 -429 196 -434 195 -440 c 0
 191 -449 188 -463 177 -463 c 0xd0
40 -63 m 1
 80 -58 121 -51 161 -40 c 1
 161 -14 163 13 164 39 c 2
 167 69 l 1
 161 68 l 1
 127 67 93 65 59 62 c 0
 52 61 45 62 39 62 c 1
 38 49 l 2
 37 16 39 -17 40 -51 c 2
 40 -63 l 1
EndSplineSet
EndChar

StartChar: uni266F
Encoding: 9839 9839 3
Width: 377
Flags: MW
HStem: -356 767<132.5 239>
VStem: 112 42 125.5 41.5 135 31 203 55<-241 -175> 211 53 216 44.5
LayerCount: 2
Fore
SplineSet
137 -356 m 0xc8
 128 -356 130 -344 128 -337 c 0
 116 -303 112 -269 112 -234 c 0
 112 -220 112 -207 113 -194 c 1xc4
 77 -202 41 -209 5 -217 c 0
 1 -218 -2 -219 -4 -219 c 0
 -12 -218 -15 -213 -15 -202 c 0
 -16 -179 -25 -157 -25 -133 c 0
 -25 -109 -13 -101 8 -96 c 0
 45 -87 82 -80 119 -73 c 1
 121 -57 123 -41 124 -24 c 2
 127 66 l 1xa4
 95 60 63 55 30 50 c 0
 26 49 23 48 20 48 c 0
 7 49 2 55 4 74 c 0
 5 86 -3 99 0 110 c 0
 0 155 6 161 47 168 c 0
 75 173 103 177 131 183 c 1
 132 214 133 245 135 277 c 0
 135 293 132 312 154 323 c 1
 162 308 162 294 163 279 c 0
 165 249 166 219 166 189 c 1
 219 201 l 1
 218 259 216 317 216 376 c 2
 216 395 l 2
 217 406 227 409 235 411 c 2
 239 411 l 2
 245 411 244 402 246 397 c 0
 255 354 257 310 259 267 c 2
 262 213 l 1x92
 294 222 325 232 356 245 c 0
 360 247 364 247 367 247 c 2
 369 247 l 2
 375 247 378 242 382 232 c 0
 386 222 387 211 387 201 c 0
 387 183 382 166 378 148 c 0
 374 132 361 124 346 119 c 0
 319 110 292 102 264 95 c 1
 264 63 263 31 262 -1 c 0
 261 -16 261 -31 260 -45 c 1
 277 -42 l 2
 301 -38 326 -33 349 -27 c 0
 353 -26 356 -26 360 -26 c 2
 362 -26 l 2x94
 373 -26 378 -35 379 -48 c 0
 380 -58 379 -67 379 -80 c 0
 375 -133 368 -141 313 -152 c 2
 255 -164 l 1
 256 -188 258 -213 258 -237 c 0
 258 -245 258 -253 257 -262 c 0
 257 -274 256 -287 249 -298 c 0
 246 -303 244 -310 238 -309 c 0
 232 -309 228 -303 227 -298 c 0
 213 -258 205 -217 203 -175 c 1
 159 -184 l 1
 158 -204 156 -224 154 -244 c 0
 153 -251 153 -260 153 -267 c 0
 153 -278 154 -288 154 -299 c 0
 154 -311 153 -324 149 -337 c 0
 147 -344 145 -355 137 -356 c 0xc8
164 -64 m 1xa4
 206 -55 l 1
 209 -9 211 37 216 83 c 1
 200 79 184 76 167 73 c 1
 167 49 167 26 166 2 c 0
 165 -20 165 -42 164 -64 c 1xa4
EndSplineSet
EndChar

StartChar: uniED30
Encoding: 60720 60720 4
Width: 356
Flags: MW
HStem: -264 666<25.5 201>
VStem: -3 52<-146 -134> 15 42<189.5 199.5 165 241.5> 159 48 168 44<226 264.5> 306 50<42.5 95.5>
LayerCount: 2
Fore
SplineSet
27 -264 m 0xa8
 24 -264 21 -264 18 -262 c 0
 7 -258 8 -248 5 -238 c 0
 -1 -212 -3 -187 -3 -161 c 0xc8
 -3 -107 6 -52 7 2 c 0
 8 77 15 152 15 227 c 0
 15 256 14 284 11 313 c 0
 10 318 10 324 10 329 c 0
 10 339 11 349 13 359 c 0
 15 371 25 373 34 375 c 2
 36 375 l 2
 44 375 43 366 46 360 c 0
 51 349 53 336 53 323 c 0
 54 274 57 224 57 175 c 0
 57 155 56 135 55 115 c 0
 55 112 56 109 56 104 c 1
 75 113 94 121 111 121 c 0
 131 121 150 112 169 86 c 1
 169 125 l 2
 169 166 168 206 168 246 c 0
 168 283 169 319 173 355 c 0
 175 366 177 377 180 388 c 0
 182 398 193 401 200 402 c 2
 201 402 l 2
 209 402 206 392 209 387 c 0
 214 375 212 362 212 349 c 2
 212 146 l 1
 213 146 l 2
 219 146 222 152 227 155 c 0
 244 168 262 175 281 175 c 0xac
 290 175 300 173 310 169 c 0
 348 153 356 115 356 76 c 0
 356 31 344 -11 320 -49 c 0
 286 -103 253 -157 206 -202 c 0
 199 -209 194 -219 177 -215 c 0
 163 -211 164 -206 163 -197 c 0
 160 -176 159 -156 159 -135 c 0
 159 -119 160 -103 161 -86 c 1
 144 -115 126 -145 108 -173 c 0xb4
 90 -201 72 -230 47 -253 c 0
 41 -259 35 -264 27 -264 c 0xa8
49 -146 m 1xd4
 84 -110 106 -65 130 -21 c 0
 131 -20 131 -18 131 -16 c 0
 131 -13 130 -10 129 -8 c 0
 118 4 105 14 89 14 c 0
 86 14 83 14 79 13 c 0
 61 9 48 -1 48 -23 c 0
 49 -64 49 -104 49 -146 c 1xd4
206 -94 m 1
 243 -54 273 -10 303 35 c 0
 305 38 306 41 306 44 c 0
 306 48 303 52 299 55 c 0
 288 65 276 71 263 71 c 0
 256 71 248 69 241 66 c 0
 220 57 208 40 207 16 c 2
 207 -39 l 2
 207 -57 207 -75 206 -94 c 1
EndSplineSet
EndChar

StartChar: uniED31
Encoding: 60721 60721 5
Width: 278
Flags: MW
HStem: -240 698<24 24> 71 112<177.5 222>
VStem: 0 39 24 13 70 46 92 42<309 375.5 340 375.5> 234 44<38 41>
LayerCount: 2
Fore
SplineSet
89 -231 m 0xa6
 85 -231 83 -228 81 -222 c 0
 72 -189 70 -154 70 -121 c 0xaa
 70 -36 84 47 87 132 c 0
 89 191 92 250 92 309 c 2
 92 340 l 2
 91 368 94 397 95 425 c 0
 95 439 103 448 114 449 c 2
 115 449 l 2
 125 449 125 436 127 429 c 0
 132 408 134 386 134 365 c 0
 134 343 132 322 132 300 c 0
 130 262 128 224 128 186 c 2
 128 160 l 1
 129 161 l 1
 143 167 157 174 171 178 c 0
 182 181 192 183 201 183 c 0
 243 183 271 155 276 106 c 0x66
 278 92 278 79 278 65 c 0
 278 -44 231 -129 143 -192 c 0
 129 -202 114 -213 101 -224 c 0
 96 -229 92 -231 89 -231 c 0xa6
24 -240 m 1
 13 -205 0 -174 0 -139 c 0
 2 23 4 185 7 346 c 0
 8 377 10 407 10 437 c 0xa6
 10 448 16 456 23 458 c 0
 24 458 25 458 25 458 c 2
 31 458 32 448 35 443 c 0x96
 44 425 44 405 44 385 c 0
 43 239 41 93 39 -53 c 0
 39 -103 39 -153 37 -203 c 0
 37 -215 37 -228 24 -240 c 1
116 -96 m 1
 161 -64 203 -30 229 21 c 0
 233 29 234 35 234 41 c 0
 235 52 227 60 211 66 c 0
 203 69 195 71 188 71 c 0
 167 71 148 61 129 53 c 2
 125 51 l 1
 125 29 124 7 122 -15 c 0x66
 119 -43 118 -70 116 -96 c 1
EndSplineSet
EndChar

StartChar: uniED32
Encoding: 60722 60722 6
Width: 198
Flags: MW
HStem: -231 680<7 35> 71 112<97.5 142>
VStem: -10 46 12 36 154 44<38 41>
LayerCount: 2
Fore
SplineSet
9 -231 m 0x98
 5 -231 3 -228 1 -222 c 0
 -8 -189 -10 -154 -10 -121 c 0xa8
 -9 -36 4 47 7 132 c 0
 9 191 12 250 12 309 c 2
 12 340 l 2
 11 368 14 397 15 425 c 0
 15 439 23 448 34 449 c 2
 35 449 l 2
 45 449 45 436 47 429 c 0
 52 408 54 386 54 365 c 0
 54 343 52 322 52 300 c 0
 50 262 49 224 48 186 c 2
 48 160 l 1
 49 161 l 1
 63 167 77 174 91 178 c 0
 102 181 112 183 121 183 c 0
 163 183 191 155 196 106 c 0x58
 198 92 198 79 198 65 c 0
 198 -44 151 -129 63 -192 c 0
 49 -202 34 -213 21 -224 c 0
 16 -229 12 -231 9 -231 c 0x98
36 -96 m 1x68
 81 -64 125 -31 149 21 c 0
 153 29 154 35 154 41 c 0
 155 52 147 60 131 66 c 0
 123 69 115 71 108 71 c 0
 87 71 68 61 49 53 c 2
 45 51 l 1
 45 29 44 7 42 -15 c 0
 39 -43 38 -70 36 -96 c 1x68
EndSplineSet
EndChar

StartChar: uniED33
Encoding: 60723 60723 7
Width: 287
Flags: MW
HStem: -236 680<96 124> 66 112<186.5 231>
VStem: 79 46 97.5 39.5 101 42<318 370.5 335 370.5> 243 44<33 36>
LayerCount: 2
Fore
SplineSet
98 -236 m 0x94
 94 -236 92 -233 90 -227 c 0
 81 -194 79 -159 79 -126 c 0xa4
 79 -41 93 42 96 127 c 2
 99 213 l 1
 69 198 39 184 8 169 c 1
 6 199 1 226 2 254 c 0
 2 268 8 276 20 281 c 0x94
 47 292 74 305 101 318 c 1
 101 335 l 2
 100 363 103 392 104 420 c 0
 104 434 112 443 123 444 c 2
 124 444 l 2
 134 444 134 431 136 424 c 0
 141 403 143 381 143 360 c 0
 143 352 143 345 142 338 c 1
 176 354 208 373 242 387 c 0x8c
 249 390 255 392 258 392 c 0
 265 392 267 386 270 373 c 0
 271 368 271 363 271 358 c 0
 271 340 267 323 261 305 c 0
 258 295 250 287 241 282 c 0
 207 265 173 248 138 232 c 1
 138 215 137 198 137 181 c 2
 137 155 l 1
 138 156 l 1
 152 162 166 169 180 173 c 0
 191 176 201 178 210 178 c 0
 252 178 280 150 285 101 c 0x54
 287 87 287 74 287 60 c 0
 287 -49 240 -134 152 -197 c 0
 138 -207 123 -218 110 -229 c 0
 105 -234 101 -236 98 -236 c 0x94
125 -101 m 1x64
 170 -69 212 -35 238 16 c 0
 242 24 243 30 243 36 c 0
 244 47 236 55 220 61 c 0
 212 64 204 66 197 66 c 0
 176 66 157 56 138 48 c 2
 134 46 l 1
 134 24 133 2 131 -20 c 0
 128 -48 127 -75 125 -101 c 1x64
EndSplineSet
EndChar

StartChar: uniED34
Encoding: 60724 60724 8
Width: 213
Flags: MW
HStem: -463 918
VStem: 2 38 12 38<344.5 359.5 321.5 405> 160 41<-256 -85.5 -161 -85.5>
LayerCount: 2
Fore
SplineSet
177 -463 m 0xd0
 164 -463 167 -447 164 -437 c 0
 157 -413 155 -389 155 -365 c 0
 155 -329 160 -292 160 -256 c 2
 160 -161 l 1
 155 -162 l 1
 34 -180 l 2
 30 -181 27 -181 24 -181 c 0
 12 -181 5 -176 5 -159 c 0
 5 -140 3 -120 2 -100 c 0
 1 -71 0 -42 0 -12 c 0
 0 23 1 58 2 93 c 0xd0
 5 194 12 294 12 395 c 0
 12 415 6 445 39 455 c 1
 46 439 49 423 49 406 c 0
 50 387 50 369 50 350 c 0
 50 293 47 235 44 178 c 1xb0
 93 182 142 187 189 200 c 0
 210 205 206 183 211 173 c 0
 215 164 213 152 213 149 c 2
 212 131 l 1
 212 125 l 1
 211 113 l 1
 211 110 l 2
 210 97 208 82 208 82 c 1
 206 15 201 -52 201 -119 c 0
 201 -151 204 -183 203 -215 c 0
 201 -285 198 -354 198 -423 c 0
 198 -429 196 -434 195 -440 c 0
 191 -449 188 -463 177 -463 c 0xd0
40 -63 m 1
 80 -58 121 -51 161 -40 c 1
 161 -14 163 13 164 39 c 2
 167 69 l 1
 161 68 l 1
 127 67 93 65 59 62 c 0
 52 61 45 62 39 62 c 1
 38 49 l 2
 37 16 39 -17 40 -51 c 2
 40 -63 l 1
EndSplineSet
EndChar

StartChar: uniED35
Encoding: 60725 60725 9
Width: 300
Flags: MW
HStem: -338 689
VStem: 125 35 129 31.5 132 30
LayerCount: 2
Fore
SplineSet
135 -338 m 1xa0
 124 -315 125 -291 124 -269 c 0
 123 -238 125 -208 129 -178 c 1
 129 -170 l 1
 43 -191 l 2
 39 -192 36 -192 34 -192 c 0xa0
 26 -192 23 -187 23 -176 c 0
 24 -167 24 -157 24 -148 c 0
 24 -92 19 -92 78 -79 c 2
 132 -67 l 1
 132 -45 131 -23 130 -1 c 0
 129 21 128 43 128 65 c 1x90
 94 58 59 46 24 46 c 0
 22 46 20 46 19 46 c 0
 9 46 6 51 5 60 c 0
 3 79 1 98 0 117 c 0
 0 145 4 150 33 154 c 0
 65 158 97 164 128 171 c 1
 128 208 125 245 125 282 c 0
 125 297 126 312 127 327 c 0
 128 340 131 348 146 351 c 1
 161 306 159 260 160 214 c 0
 161 202 161 191 161 179 c 1
 187 185 213 192 239 195 c 0
 247 196 253 197 259 197 c 0xc0
 279 197 284 186 282 157 c 0
 278 101 271 93 217 84 c 0
 198 81 180 77 162 73 c 1
 162 44 161 15 162 -14 c 0
 162 -29 163 -44 163 -59 c 1x90
 270 -32 l 2
 277 -30 282 -29 286 -29 c 0
 297 -29 300 -38 300 -61 c 0
 300 -79 297 -96 290 -114 c 0
 285 -126 276 -134 262 -138 c 0
 230 -145 198 -153 165 -161 c 1
 164 -207 159 -254 156 -300 c 0
 155 -314 149 -326 135 -338 c 1xa0
EndSplineSet
EndChar

StartChar: uniED36
Encoding: 60726 60726 10
Width: 377
Flags: MW
HStem: -356 767<132.5 239>
VStem: 112 42 125.5 41.5 135 31 203 55<-241 -175> 211 53 216 44.5
LayerCount: 2
Fore
SplineSet
137 -356 m 0xc8
 128 -356 130 -344 128 -337 c 0
 116 -303 112 -269 112 -234 c 0
 112 -220 112 -207 113 -194 c 1xc4
 77 -202 41 -209 5 -217 c 0
 1 -218 -2 -219 -4 -219 c 0
 -12 -218 -15 -213 -15 -202 c 0
 -16 -179 -25 -157 -25 -133 c 0
 -25 -109 -13 -101 8 -96 c 0
 45 -87 82 -80 119 -73 c 1
 121 -57 123 -41 124 -24 c 2
 127 66 l 1xa4
 95 60 63 55 30 50 c 0
 26 49 23 48 20 48 c 0
 7 49 2 55 4 74 c 0
 5 86 -3 99 0 110 c 0
 0 155 6 161 47 168 c 0
 75 173 103 177 131 183 c 1
 132 214 133 245 135 277 c 0
 135 293 132 312 154 323 c 1
 162 308 162 294 163 279 c 0
 165 249 166 219 166 189 c 1
 219 201 l 1
 218 259 216 317 216 376 c 2
 216 395 l 2
 217 406 227 409 235 411 c 2
 239 411 l 2
 245 411 244 402 246 397 c 0
 255 354 257 310 259 267 c 2
 262 213 l 1x92
 294 222 325 232 356 245 c 0
 360 247 364 247 367 247 c 2
 369 247 l 2
 375 247 378 242 382 232 c 0
 386 222 387 211 387 201 c 0
 387 183 382 166 378 148 c 0
 374 132 361 124 346 119 c 0
 319 110 292 102 264 95 c 1
 264 63 263 31 262 -1 c 0
 261 -16 261 -31 260 -45 c 1
 277 -42 l 2
 301 -38 326 -33 349 -27 c 0
 353 -26 356 -26 360 -26 c 2
 362 -26 l 2x94
 373 -26 378 -35 379 -48 c 0
 380 -58 379 -67 379 -80 c 0
 375 -133 368 -141 313 -152 c 2
 255 -164 l 1
 256 -188 258 -213 258 -237 c 0
 258 -245 258 -253 257 -262 c 0
 257 -274 256 -287 249 -298 c 0
 246 -303 244 -310 238 -309 c 0
 232 -309 228 -303 227 -298 c 0
 213 -258 205 -217 203 -175 c 1
 159 -184 l 1
 158 -204 156 -224 154 -244 c 0
 153 -251 153 -260 153 -267 c 0
 153 -278 154 -288 154 -299 c 0
 154 -311 153 -324 149 -337 c 0
 147 -344 145 -355 137 -356 c 0xc8
164 -64 m 1xa4
 206 -55 l 1
 209 -9 211 37 216 83 c 1
 200 79 184 76 167 73 c 1
 167 49 167 26 166 2 c 0
 165 -20 165 -42 164 -64 c 1xa4
EndSplineSet
EndChar

StartChar: uniED37
Encoding: 60727 60727 11
Width: 378
Flags: MW
HStem: -373 818
VStem: 56 40<-337 -253> 67 40 76 31 147 53 160 48 163 41 260 36 268 32
LayerCount: 2
Fore
SplineSet
79 -373 m 1xc9
 65 -336 56 -299 56 -261 c 0
 56 -245 57 -229 57 -213 c 1
 40 -216 22 -220 4 -224 c 0
 1 -225 -1 -225 -4 -225 c 0
 -9 -225 -13 -223 -13 -215 c 0
 -13 -190 -22 -167 -23 -142 c 0
 -23 -118 -13 -109 7 -104 c 2xc3
 64 -92 l 1
 70 -7 l 2
 71 12 72 32 72 51 c 1
 57 49 42 46 27 44 c 0
 24 44 22 43 20 43 c 0
 9 43 5 48 5 63 c 0
 6 79 2 96 2 113 c 0
 2 140 11 154 34 157 c 0xa3
 48 160 62 162 76 165 c 1
 76 192 76 219 78 246 c 0
 79 260 82 273 82 287 c 0
 82 297 89 303 96 304 c 2
 97 304 l 2
 104 304 101 294 104 289 c 0
 106 285 107 280 107 275 c 0
 107 240 107 205 108 170 c 1
 127 174 146 177 164 181 c 1
 165 206 164 231 162 256 c 0
 161 284 160 311 160 339 c 2
 160 373 l 2
 160 379 161 385 167 388 c 0
 172 391 176 395 180 395 c 0
 184 395 188 392 190 382 c 0
 197 348 200 314 202 280 c 0
 204 250 205 220 206 190 c 1
 227 195 247 200 268 206 c 1
 271 277 275 348 284 418 c 0
 285 424 287 431 290 436 c 0
 292 442 297 445 303 445 c 0
 311 445 308 437 310 432 c 0
 313 424 314 416 314 408 c 0
 314 399 313 391 312 383 c 0
 307 327 303 272 300 216 c 1
 314 221 327 225 340 230 c 0
 352 235 361 237 368 237 c 0
 383 237 388 225 388 194 c 1
 384 182 387 167 383 152 c 0
 379 131 365 118 344 111 c 0x9280
 328 106 312 101 296 97 c 1
 295 76 295 56 294 36 c 0
 293 8 291 -20 290 -47 c 1
 308 -44 326 -39 345 -36 c 0
 352 -34 358 -34 362 -34 c 0
 375 -34 379 -41 380 -62 c 2
 380 -68 l 2
 380 -138 364 -149 313 -159 c 0
 306 -161 300 -162 293 -163 c 1
 294 -175 294 -187 294 -199 c 0
 294 -224 292 -250 289 -275 c 0
 288 -290 286 -303 271 -317 c 1
 263 -281 263 -248 261 -216 c 0
 260 -200 260 -185 260 -170 c 1
 200 -182 l 1
 200 -202 201 -222 203 -241 c 1
 200 -267 203 -289 195 -310 c 0
 192 -316 189 -326 181 -324 c 0
 174 -323 172 -315 169 -308 c 0
 156 -270 149 -231 147 -193 c 1
 132 -196 117 -199 102 -203 c 1
 100 -245 96 -287 96 -330 c 0
 96 -344 95 -360 79 -373 c 1xc9
107 -83 m 1xa5
 151 -74 l 1
 153 -49 155 -24 156 0 c 0
 157 22 159 44 160 66 c 1
 143 62 127 60 110 57 c 1
 110 43 110 28 109 14 c 0
 108 -18 107 -51 107 -83 c 1xa5
204 -64 m 1
 222 -60 241 -57 260 -53 c 1
 260 -6 261 41 263 88 c 1
 245 83 226 79 208 75 c 1
 208 41 209 7 206 -26 c 0
 205 -39 205 -51 204 -64 c 1
EndSplineSet
EndChar

StartChar: uniED38
Encoding: 60728 60728 12
Width: 263
Flags: MW
HStem: -164 318<31.5 222.5>
VStem: -24 287<-94.5 83>
LayerCount: 2
Fore
SplineSet
34 -164 m 0
 29 -164 24 -161 19 -154 c 0
 9 -139 -6 -127 -16 -112 c 0
 -22 -105 -24 -98 -24 -91 c 0
 -24 -84 -20 -76 -14 -70 c 0
 7 -48 29 -27 50 -7 c 1
 44 -2 38 2 32 6 c 0
 15 17 4 59 4 90 c 0
 4 102 6 112 9 119 c 0
 13 125 19 124 23 127 c 0
 26 129 28 129 30 129 c 0
 33 129 36 128 40 125 c 0
 68 107 96 87 123 67 c 1
 137 84 151 100 166 116 c 0
 174 125 184 133 194 141 c 0
 204 150 212 154 219 154 c 0
 226 154 233 148 241 134 c 0
 252 117 260 98 263 83 c 0
 263 69 261 62 255 58 c 0
 236 42 219 24 202 5 c 1
 238 -24 l 2
 254 -37 261 -53 262 -76 c 1
 258 -92 261 -112 251 -129 c 0
 246 -138 240 -144 233 -144 c 0
 228 -144 223 -141 217 -136 c 0
 191 -114 164 -92 137 -71 c 1
 130 -78 123 -85 115 -92 c 0
 92 -112 72 -134 50 -155 c 0
 44 -161 39 -164 34 -164 c 0
EndSplineSet
EndChar

StartChar: uniE440
Encoding: 58432 58432 13
Width: 287
Flags: MW
HStem: -248 680.04 54 112<186.5 231>
VStem: 79 46 96 41<115 169> 101 40<281 283 281 283> 104 37 243 44<21 24>
LayerCount: 2
Fore
SplineSet
285 89 m 0x52
 287 75 287 62 287 48 c 0
 287 -61 240 -146 152 -209 c 0
 138 -219 123 -230 110 -241 c 0
 105 -246 101 -248 98 -248 c 0
 94 -248 92 -245 90 -239 c 0
 81 -206 79 -171 79 -138 c 0xa2
 80 -53 93 30 96 115 c 0
 96 129 97 143 98 157 c 1
 68 144 38 131 8 118 c 1
 6 145 1 170 2 195 c 0
 2 207 8 215 20 219 c 0x92
 47 230 74 241 101 252 c 1
 101 262 101 272 101 283 c 1
 70 270 39 258 8 245 c 1
 6 270 1 293 2 316 c 0
 2 328 8 335 20 339 c 0x8a
 48 349 75 359 102 370 c 1
 103 383 104 396 104 408 c 0
 104 422 112 431 123 432 c 2
 124 432 l 2
 134 432 134 419 136 412 c 0
 138 404 140 395 141 386 c 1
 174 400 208 414 242 428 c 0
 262 436 267 434 270 416 c 0
 273 397 269 379 261 359 c 0
 258 351 250 344 241 340 c 0x86
 208 326 175 313 141 299 c 1
 141 294 141 289 141 283 c 0
 141 279 141 274 140 269 c 1x8a
 174 284 208 300 242 315 c 0
 262 323 267 321 270 302 c 0
 273 281 269 261 261 241 c 0
 258 232 250 225 241 220 c 0x86
 207 205 172 189 137 174 c 0
 137 172 137 171 137 169 c 2
 137 143 l 1
 138 144 l 1
 152 150 166 157 180 161 c 0
 191 164 201 166 210 166 c 0
 252 166 280 138 285 89 c 0x52
243 24 m 0
 244 35 236 43 220 49 c 0
 212 52 204 54 197 54 c 0
 176 54 157 44 138 36 c 2
 134 34 l 1
 134 12 133 -10 131 -32 c 0
 128 -60 127 -87 125 -113 c 1x62
 170 -81 214 -48 238 4 c 0
 242 12 243 18 243 24 c 0
EndSplineSet
EndChar

StartChar: uniE441
Encoding: 58433 58433 14
Width: 198
Flags: MW
HStem: -231 680<7 35> 71 112<97.5 142>
VStem: -10 46 12 36 154 44<38 41>
LayerCount: 2
Fore
SplineSet
9 -231 m 0x98
 5 -231 3 -228 1 -222 c 0
 -8 -189 -10 -154 -10 -121 c 0xa8
 -9 -36 4 47 7 132 c 0
 9 191 12 250 12 309 c 2
 12 340 l 2
 11 368 14 397 15 425 c 0
 15 439 23 448 34 449 c 2
 35 449 l 2
 45 449 45 436 47 429 c 0
 52 408 54 386 54 365 c 0
 54 343 52 322 52 300 c 0
 50 262 49 224 48 186 c 2
 48 160 l 1
 49 161 l 1
 63 167 77 174 91 178 c 0
 102 181 112 183 121 183 c 0
 163 183 191 155 196 106 c 0x58
 198 92 198 79 198 65 c 0
 198 -44 151 -129 63 -192 c 0
 49 -202 34 -213 21 -224 c 0
 16 -229 12 -231 9 -231 c 0x98
36 -96 m 1x68
 81 -64 125 -31 149 21 c 0
 153 29 154 35 154 41 c 0
 155 52 147 60 131 66 c 0
 123 69 115 71 108 71 c 0
 87 71 68 61 49 53 c 2
 45 51 l 1
 45 29 44 7 42 -15 c 0
 39 -43 38 -70 36 -96 c 1x68
EndSplineSet
EndChar

StartChar: uniE442
Encoding: 58434 58434 15
Width: 287
Flags: MW
HStem: -236 680<96 124> 66 112<186.5 231>
VStem: 79 46 97.5 39.5 101 42<318 370.5 335 370.5> 243 44<33 36>
LayerCount: 2
Fore
SplineSet
98 -236 m 0x94
 94 -236 92 -233 90 -227 c 0
 81 -194 79 -159 79 -126 c 0xa4
 79 -41 93 42 96 127 c 2
 99 213 l 1
 69 198 39 184 8 169 c 1
 6 199 1 226 2 254 c 0
 2 268 8 276 20 281 c 0x94
 47 292 74 305 101 318 c 1
 101 335 l 2
 100 363 103 392 104 420 c 0
 104 434 112 443 123 444 c 2
 124 444 l 2
 134 444 134 431 136 424 c 0
 141 403 143 381 143 360 c 0
 143 352 143 345 142 338 c 1
 176 354 208 373 242 387 c 0x8c
 249 390 255 392 258 392 c 0
 265 392 267 386 270 373 c 0
 271 368 271 363 271 358 c 0
 271 340 267 323 261 305 c 0
 258 295 250 287 241 282 c 0
 207 265 173 248 138 232 c 1
 138 215 137 198 137 181 c 2
 137 155 l 1
 138 156 l 1
 152 162 166 169 180 173 c 0
 191 176 201 178 210 178 c 0
 252 178 280 150 285 101 c 0x54
 287 87 287 74 287 60 c 0
 287 -49 240 -134 152 -197 c 0
 138 -207 123 -218 110 -229 c 0
 105 -234 101 -236 98 -236 c 0x94
125 -101 m 1x64
 170 -69 212 -35 238 16 c 0
 242 24 243 30 243 36 c 0
 244 47 236 55 220 61 c 0
 212 64 204 66 197 66 c 0
 176 66 157 56 138 48 c 2
 134 46 l 1
 134 24 133 2 131 -20 c 0
 128 -48 127 -75 125 -101 c 1x64
EndSplineSet
EndChar

StartChar: uniE443
Encoding: 58435 58435 16
Width: 198
Flags: MW
HStem: -231 680<153 181>
VStem: -10 44<38 41 38 72> 140 36 146 52
LayerCount: 2
Fore
SplineSet
179 -231 m 0xd0
 176 -231 172 -229 167 -224 c 0xd0
 154 -213 139 -202 125 -192 c 0
 37 -129 -10 -44 -10 65 c 0
 -10 79 -10 92 -8 106 c 0
 -3 155 25 183 67 183 c 0
 76 183 86 181 97 178 c 0
 111 174 125 167 139 161 c 1
 140 160 l 1
 140 186 l 2
 139 224 138 262 136 300 c 0
 136 322 134 343 134 365 c 0
 134 386 136 408 141 429 c 0
 143 436 143 449 153 449 c 2
 154 449 l 2
 165 448 173 439 173 425 c 0
 174 397 177 368 176 340 c 2
 176 309 l 2xe0
 176 250 179 191 181 132 c 0
 184 47 197 -36 198 -121 c 0
 198 -154 196 -189 187 -222 c 0
 185 -228 183 -231 179 -231 c 0xd0
152 -96 m 1
 150 -70 149 -43 146 -15 c 0
 144 7 143 29 143 51 c 1
 139 53 l 2
 120 61 101 71 80 71 c 0
 73 71 65 69 57 66 c 0
 41 60 33 52 34 41 c 0
 34 35 35 29 39 21 c 0
 63 -31 107 -64 152 -96 c 1
EndSplineSet
EndChar

StartChar: uniE444
Encoding: 58436 58436 17
Width: 300
Flags: MW
HStem: -338 689
VStem: 125 35 129 31.5 132 30
LayerCount: 2
Fore
SplineSet
135 -338 m 1xa0
 124 -315 125 -291 124 -269 c 0
 123 -238 125 -208 129 -178 c 1
 129 -170 l 1
 43 -191 l 2
 39 -192 36 -192 34 -192 c 0xa0
 26 -192 23 -187 23 -176 c 0
 24 -167 24 -157 24 -148 c 0
 24 -92 19 -92 78 -79 c 2
 132 -67 l 1
 132 -45 131 -23 130 -1 c 0
 129 21 128 43 128 65 c 1x90
 94 58 59 46 24 46 c 0
 22 46 20 46 19 46 c 0
 9 46 6 51 5 60 c 0
 3 79 1 98 0 117 c 0
 0 145 4 150 33 154 c 0
 65 158 97 164 128 171 c 1
 128 208 125 245 125 282 c 0
 125 297 126 312 127 327 c 0
 128 340 131 348 146 351 c 1
 161 306 159 260 160 214 c 0
 161 202 161 191 161 179 c 1
 187 185 213 192 239 195 c 0
 247 196 253 197 259 197 c 0xc0
 279 197 284 186 282 157 c 0
 278 101 271 93 217 84 c 0
 198 81 180 77 162 73 c 1
 162 44 161 15 162 -14 c 0
 162 -29 163 -44 163 -59 c 1x90
 270 -32 l 2
 277 -30 282 -29 286 -29 c 0
 297 -29 300 -38 300 -61 c 0
 300 -79 297 -96 290 -114 c 0
 285 -126 276 -134 262 -138 c 0
 230 -145 198 -153 165 -161 c 1
 164 -207 159 -254 156 -300 c 0
 155 -314 149 -326 135 -338 c 1xa0
EndSplineSet
EndChar

StartChar: uniE445
Encoding: 58437 58437 18
Width: 377
Flags: MW
HStem: -356 767<132.5 239>
VStem: 112 42 125.5 41.5 135 31 203 55<-241 -175> 211 53 216 44.5
LayerCount: 2
Fore
SplineSet
137 -356 m 0xc8
 128 -356 130 -344 128 -337 c 0
 116 -303 112 -269 112 -234 c 0
 112 -220 112 -207 113 -194 c 1xc4
 77 -202 41 -209 5 -217 c 0
 1 -218 -2 -219 -4 -219 c 0
 -12 -218 -15 -213 -15 -202 c 0
 -16 -179 -25 -157 -25 -133 c 0
 -25 -109 -13 -101 8 -96 c 0
 45 -87 82 -80 119 -73 c 1
 121 -57 123 -41 124 -24 c 2
 127 66 l 1xa4
 95 60 63 55 30 50 c 0
 26 49 23 48 20 48 c 0
 7 49 2 55 4 74 c 0
 5 86 -3 99 0 110 c 0
 0 155 6 161 47 168 c 0
 75 173 103 177 131 183 c 1
 132 214 133 245 135 277 c 0
 135 293 132 312 154 323 c 1
 162 308 162 294 163 279 c 0
 165 249 166 219 166 189 c 1
 219 201 l 1
 218 259 216 317 216 376 c 2
 216 395 l 2
 217 406 227 409 235 411 c 2
 239 411 l 2
 245 411 244 402 246 397 c 0
 255 354 257 310 259 267 c 2
 262 213 l 1x92
 294 222 325 232 356 245 c 0
 360 247 364 247 367 247 c 2
 369 247 l 2
 375 247 378 242 382 232 c 0
 386 222 387 211 387 201 c 0
 387 183 382 166 378 148 c 0
 374 132 361 124 346 119 c 0
 319 110 292 102 264 95 c 1
 264 63 263 31 262 -1 c 0
 261 -16 261 -31 260 -45 c 1
 277 -42 l 2
 301 -38 326 -33 349 -27 c 0
 353 -26 356 -26 360 -26 c 2
 362 -26 l 2x94
 373 -26 378 -35 379 -48 c 0
 380 -58 379 -67 379 -80 c 0
 375 -133 368 -141 313 -152 c 2
 255 -164 l 1
 256 -188 258 -213 258 -237 c 0
 258 -245 258 -253 257 -262 c 0
 257 -274 256 -287 249 -298 c 0
 246 -303 244 -310 238 -309 c 0
 232 -309 228 -303 227 -298 c 0
 213 -258 205 -217 203 -175 c 1
 159 -184 l 1
 158 -204 156 -224 154 -244 c 0
 153 -251 153 -260 153 -267 c 0
 153 -278 154 -288 154 -299 c 0
 154 -311 153 -324 149 -337 c 0
 147 -344 145 -355 137 -356 c 0xc8
164 -64 m 1xa4
 206 -55 l 1
 209 -9 211 37 216 83 c 1
 200 79 184 76 167 73 c 1
 167 49 167 26 166 2 c 0
 165 -20 165 -42 164 -64 c 1xa4
EndSplineSet
EndChar

StartChar: uniE446
Encoding: 58438 58438 19
Width: 360
Flags: MW
HStem: -420 763
VStem: 153 32<-256 -236> 159 33<64 96> 171.5 30.5
LayerCount: 2
Fore
SplineSet
164 -420 m 1xc0
 156 -383 155 -350 154 -318 c 0
 153 -293 153 -268 153 -244 c 1
 87 -259 l 2
 84 -260 81 -260 78 -260 c 0
 68 -260 64 -254 66 -241 c 0
 67 -226 59 -212 62 -200 c 0
 62 -159 64 -158 102 -151 c 0
 119 -148 136 -144 153 -141 c 1
 153 -120 153 -99 154 -78 c 1xc0
 109 -88 64 -98 19 -110 c 0
 16 -111 13 -111 10 -111 c 0
 3 -111 -1 -108 0 -96 c 2
 0 -41 l 2
 2 1 4 5 46 14 c 0
 83 22 120 30 158 39 c 1
 158 47 158 55 159 64 c 0
 159 73 160 82 160 90 c 1xa0
 60 75 l 1
 55 75 l 2
 45 75 42 81 43 92 c 2
 43 114 l 2
 43 176 43 175 103 186 c 0
 124 190 145 193 166 196 c 1
 169 236 172 276 177 316 c 0
 178 322 180 329 183 334 c 0
 185 340 190 343 196 343 c 0
 204 343 201 335 203 330 c 0
 206 322 207 314 207 306 c 0
 207 297 206 289 205 281 c 2
 199 202 l 1
 218 206 238 209 258 214 c 0
 263 215 268 216 272 216 c 0
 282 216 286 210 286 197 c 0
 286 179 283 160 279 141 c 0
 275 122 262 111 243 107 c 0x90
 226 103 209 100 192 96 c 1
 192 79 191 63 190 46 c 1xa0
 236 56 282 66 327 77 c 0
 331 78 335 78 338 78 c 0
 356 78 359 66 359 43 c 0
 359 23 355 4 348 -16 c 0
 343 -31 331 -40 315 -43 c 0
 272 -54 230 -62 187 -71 c 1
 186 -92 184 -113 183 -134 c 1
 211 -128 238 -122 265 -115 c 0
 269 -114 272 -114 274 -114 c 0
 284 -114 286 -119 287 -131 c 0
 289 -152 286 -172 281 -192 c 0
 277 -207 267 -217 251 -221 c 2
 185 -236 l 1
 186 -255 187 -275 187 -294 c 0
 187 -322 186 -349 182 -377 c 0
 181 -392 178 -405 164 -420 c 1xc0
EndSplineSet
EndChar

StartChar: uniE447
Encoding: 58439 58439 20
Width: 468
Flags: MW
HStem: -460 810
VStem: 150 33 157 33<57.5 59> 163 36 289 30 289 33<-303 -295> 295 32<84 85 85 85> 301 32
LayerCount: 2
Fore
SplineSet
160 -460 m 1xc4
 152 -424 151 -391 150 -358 c 0
 149 -325 149 -293 149 -261 c 1
 134 -265 119 -269 105 -274 c 0
 103 -275 101 -275 100 -275 c 0
 93 -275 94 -268 94 -265 c 0
 92 -249 93 -233 93 -219 c 0
 93 -207 92 -198 92 -191 c 0
 92 -173 98 -171 141 -159 c 2
 149 -156 l 1
 150 -138 150 -120 151 -101 c 1
 127 -106 104 -110 80 -114 c 0xc4
 58 -118 37 -124 15 -129 c 0
 12 -130 10 -130 8 -130 c 0
 3 -130 0 -128 1 -119 c 0
 2 -101 -1 -82 -1 -64 c 0
 -1 -33 9 -20 31 -15 c 2
 155 12 l 1
 155 21 l 2
 156 34 157 46 157 59 c 1
 137 56 117 52 96 49 c 0
 94 49 92 48 91 48 c 0
 85 48 83 52 83 58 c 0
 82 71 83 84 83 97 c 0
 83 104 83 111 82 118 c 0
 78 144 93 155 115 158 c 0xa4
 131 161 147 163 163 166 c 1
 166 203 168 240 174 276 c 0
 175 282 177 289 180 294 c 0
 183 298 187 302 192 302 c 0
 201 302 197 294 199 290 c 0
 203 282 204 274 204 265 c 0
 204 257 203 249 202 240 c 2
 196 171 l 1
 231 177 266 184 301 191 c 1
 304 235 307 279 313 322 c 0
 314 327 314 332 316 336 c 0
 318 344 324 350 331 350 c 0
 341 350 338 340 339 335 c 0
 342 326 343 318 343 309 c 0
 343 301 342 293 341 285 c 0
 337 256 335 227 333 198 c 1
 346 200 359 203 373 206 c 0
 377 207 381 208 384 208 c 0
 394 208 401 202 401 188 c 0
 401 171 400 154 398 137 c 0
 396 116 382 103 362 98 c 0x91
 350 96 339 94 327 91 c 1
 327 77 326 63 326 50 c 1
 352 55 378 61 403 67 c 2
 420 70 l 2xc2
 431 73 439 75 445 75 c 0
 460 75 464 65 467 32 c 2
 467 13 l 2
 466 6 466 -6 463 -17 c 0
 458 -37 444 -49 422 -53 c 2
 321 -71 l 1
 320 -85 319 -100 319 -114 c 1
 338 -109 358 -105 377 -100 c 0
 381 -99 384 -99 386 -99 c 0
 394 -99 398 -102 400 -114 c 0
 401 -120 402 -127 402 -133 c 0
 402 -149 399 -164 396 -180 c 0
 393 -193 385 -203 369 -207 c 0xc8
 353 -211 336 -214 319 -218 c 1
 321 -242 322 -266 322 -290 c 0
 322 -316 321 -343 318 -370 c 0
 317 -385 315 -398 299 -412 c 1
 291 -376 289 -342 289 -309 c 0
 289 -281 288 -253 288 -225 c 1
 252 -233 217 -242 181 -251 c 1
 182 -282 183 -313 183 -344 c 0
 183 -371 181 -399 178 -427 c 0
 177 -438 173 -449 160 -460 c 1xc4
182 -148 m 1
 217 -138 253 -129 288 -121 c 1
 289 -106 289 -91 290 -76 c 1xc8
 254 -83 219 -89 183 -95 c 1
 183 -105 183 -114 182 -123 c 2
 182 -148 l 1
188 19 m 1xa2
 293 43 l 1
 294 52 294 61 295 70 c 2
 295 85 l 1
 260 78 225 71 190 65 c 1
 190 50 189 35 188 19 c 1xa2
EndSplineSet
EndChar

StartChar: uniE4A0
Encoding: 58528 58528 21
Width: 425
Flags: MW
HStem: 0 326<9 110 11 110>
VStem: 0 19<0.5 9 0.5 12> 0 425<6 192.5 8.5 192.5>
LayerCount: 2
Fore
SplineSet
19 1 m 1xa0
 19 0 19 0 18 0 c 2
 11 0 l 2
 7 0 2 1 0 6 c 0
 0 7 0 8 0 9 c 0
 0 15 6 20 9 25 c 0xc0
 37 73 83 92 133 107 c 0
 173 119 210 141 250 156 c 1
 182 181 115 207 47 231 c 0
 36 234 31 239 31 245 c 0
 31 248 33 252 37 257 c 0
 54 277 67 300 87 317 c 0
 95 323 101 326 108 326 c 0
 112 326 117 325 122 323 c 0
 191 295 260 267 331 241 c 0
 360 230 388 217 415 203 c 0
 422 199 425 195 425 190 c 0
 425 188 424 184 422 180 c 0
 409 153 387 135 362 128 c 0
 319 116 284 89 241 78 c 0
 176 63 117 31 54 8 c 0
 43 4 32 0 19 1 c 1xa0
EndSplineSet
EndChar

StartChar: uniE4A1
Encoding: 58529 58529 22
Width: 425
Flags: MW
HStem: -326 326<9 110 11 110 18 110>
VStem: 0 425<-320 -133.5 -317.5 -133.5>
LayerCount: 2
Fore
SplineSet
11 -326 m 2
 7 -326 2 -325 0 -320 c 0
 0 -319 0 -318 0 -317 c 0
 0 -311 6 -307 9 -301 c 0
 37 -254 83 -234 133 -219 c 0
 173 -208 210 -185 250 -170 c 1
 182 -145 115 -119 47 -95 c 0
 36 -92 31 -87 31 -81 c 0
 31 -78 33 -74 37 -69 c 0
 54 -49 67 -26 87 -9 c 0
 95 -3 101 0 108 0 c 0
 112 0 117 -1 122 -3 c 0
 191 -31 260 -59 331 -85 c 0
 360 -96 388 -109 415 -124 c 0
 422 -127 425 -131 425 -136 c 0
 425 -139 424 -142 422 -146 c 0
 409 -173 387 -192 362 -198 c 0
 319 -210 284 -237 241 -248 c 0
 176 -264 117 -296 54 -318 c 0
 43 -322 32 -326 19 -326 c 2
 19 -326 19 -326 18 -326 c 2
 11 -326 l 2
EndSplineSet
EndChar

StartChar: uniE4A2
Encoding: 58530 58530 23
Width: 111
Flags: MW
HStem: 0 156
VStem: 2 110
LayerCount: 2
Fore
SplineSet
68 0 m 0
 61 0 53 6 45 19 c 0
 37 32 28 43 13 46 c 0
 3 48 0 55 2 63 c 0
 8 88 8 113 16 137 c 0
 21 152 31 154 44 156 c 1
 59 150 81 149 87 129 c 0
 91 116 107 116 110 103 c 0
 112 95 112 86 112 78 c 0
 112 55 104 35 92 16 c 0
 85 5 76 0 68 0 c 0
EndSplineSet
EndChar

StartChar: uniE4A3
Encoding: 58531 58531 24
Width: 111
Flags: MW
HStem: -156 156
VStem: 2 110
LayerCount: 2
Fore
SplineSet
92 -140 m 0
 85 -151 76 -156 68 -156 c 0
 61 -156 52 -150 45 -137 c 0
 37 -124 28 -114 13 -110 c 0
 3 -108 0 -101 2 -93 c 0
 7 -68 8 -43 16 -19 c 0
 21 -4 31 -2 44 0 c 1
 59 -6 80 -7 87 -27 c 0
 91 -40 106 -40 110 -53 c 0
 112 -61 112 -70 112 -78 c 0
 113 -101 105 -121 92 -140 c 0
EndSplineSet
EndChar

StartChar: uniE4A4
Encoding: 58532 58532 25
Width: 471
Flags: MW
HStem: 4 52
VStem: 0.619995 470.38
LayerCount: 2
Fore
SplineSet
95 0 m 0
 75 0 53 2 31 11 c 0
 25 14 18 17 13 22 c 0
 6 30 -2 39 1 49 c 0
 5 59 17 54 25 55 c 2
 111 55 l 2
 134 55 154 56 177 56 c 0
 237 56 296 54 355 52 c 0
 389 51 421 51 454 41 c 0
 467 37 472 31 471 19 c 0
 471 7 460 8 452 7 c 0
 431 2 408 0 386 0 c 0
 371 0 353 2 335 3 c 0
 319 4 300 4 284 4 c 0
 235 4 186 1 137 1 c 0
 124 1 108 0 95 0 c 0
EndSplineSet
EndChar

StartChar: uniE4A5
Encoding: 58533 58533 26
Width: 471
Flags: MW
HStem: -55 52
VStem: 0.619995 470.38
LayerCount: 2
Fore
SplineSet
95 -59 m 0
 75 -59 53 -57 31 -48 c 0
 25 -45 18 -42 13 -37 c 0
 6 -29 -2 -20 1 -10 c 0
 5 0 17 -5 25 -4 c 2
 111 -4 l 2
 134 -4 154 -3 177 -3 c 0
 237 -3 296 -5 355 -7 c 0
 389 -8 421 -8 454 -18 c 0
 467 -22 472 -28 471 -40 c 0
 471 -52 460 -51 452 -52 c 0
 431 -57 408 -59 386 -59 c 0
 371 -59 353 -57 335 -56 c 0
 319 -55 300 -55 284 -55 c 0
 235 -55 186 -58 137 -58 c 0
 124 -58 108 -59 95 -59 c 0
EndSplineSet
EndChar

StartChar: uniE4A6
Encoding: 58534 58534 27
Width: 139
Flags: MW
HStem: 0 411<67 88 71 72>
VStem: 0 139<311.5 340 311.5 340>
LayerCount: 2
Fore
SplineSet
67 0 m 1
 64 4 60 9 58 14 c 0
 36 72 30 134 19 194 c 0
 10 241 10 289 0 336 c 1
 0 340 l 2
 2 366 22 379 38 394 c 0
 50 406 64 411 78 411 c 0
 98 411 116 398 126 375 c 0
 134 356 139 335 139 315 c 0
 139 308 138 301 137 294 c 0
 125 222 110 151 100 80 c 0
 96 52 99 20 72 0 c 1
 67 0 l 1
EndSplineSet
EndChar

StartChar: uniE4A7
Encoding: 58535 58535 28
Width: 139
Flags: MW
HStem: -411 411<67 68>
VStem: 0 139<-340 -311.5>
LayerCount: 2
Fore
SplineSet
61 -411 m 0
 41 -411 23 -398 13 -375 c 0
 5 -356 0 -335 0 -315 c 0
 0 -308 1 -301 2 -294 c 0
 14 -222 29 -151 39 -80 c 0
 43 -52 40 -20 67 0 c 1
 72 0 l 1
 75 -4 79 -9 81 -14 c 0
 103 -72 109 -134 120 -194 c 0
 129 -241 129 -289 139 -336 c 1
 139 -340 l 2
 137 -366 117 -379 101 -394 c 0
 89 -406 75 -411 61 -411 c 0
EndSplineSet
EndChar

StartChar: uniE4A8
Encoding: 58536 58536 29
Width: 85
Flags: MW
HStem: 0 295<42 42>
VStem: 0 85<270.5 275 260.5 282>
LayerCount: 2
Fore
SplineSet
42 0 m 1
 29 11 31 27 30 41 c 0
 30 44 30 48 30 51 c 0
 30 120 22 186 4 253 c 0
 2 261 0 268 0 273 c 0
 0 291 12 295 43 295 c 0
 71 295 85 286 85 264 c 0
 85 257 83 248 80 237 c 0
 60 172 60 106 53 40 c 0
 52 26 51 12 42 0 c 1
EndSplineSet
EndChar

StartChar: uniE4A9
Encoding: 58537 58537 30
Width: 85
Flags: MW
HStem: -295 295<42 42>
VStem: 0 85<-275 -270.5 -282 -260.5>
LayerCount: 2
Fore
SplineSet
42 -295 m 0
 14 -295 0 -286 0 -264 c 0
 0 -257 2 -248 5 -237 c 0
 25 -172 25 -106 32 -40 c 0
 33 -26 34 -12 43 0 c 1
 56 -11 54 -27 55 -41 c 0
 55 -44 55 -48 55 -51 c 0
 55 -120 63 -186 81 -253 c 0
 83 -261 85 -268 85 -273 c 0
 85 -291 73 -295 42 -295 c 0
EndSplineSet
EndChar

StartChar: uniE4AA
Encoding: 58538 58538 31
Width: 64
Flags: MW
HStem: 0 452<24 39>
VStem: 0 64<129 221 179 221 179 224 215.5 221 179 224>
LayerCount: 2
Fore
SplineSet
26 0 m 0
 22 0 18 5 16 14 c 0
 6 52 -1 90 0 129 c 2
 0 163 l 2
 1 186 0 207 0 224 c 0
 1 242 1 260 1 277 c 2
 1 326 l 2
 1 354 2 382 6 409 c 0
 7 416 9 423 10 430 c 0
 13 446 26 451 38 452 c 2
 39 452 l 2
 50 452 51 438 53 429 c 0
 63 391 63 351 63 312 c 0
 63 276 64 239 64 203 c 0
 64 155 63 107 59 59 c 0
 58 39 54 21 39 7 c 0
 34 2 30 0 26 0 c 0
EndSplineSet
EndChar

StartChar: uniE4AB
Encoding: 58539 58539 32
Width: 64
Flags: MW
HStem: -452 452<19.5 40 25 40>
VStem: 0 64<-221 -179>
LayerCount: 2
Fore
SplineSet
25 -452 m 2
 14 -452 13 -438 11 -429 c 0
 1 -391 1 -351 1 -312 c 0
 1 -276 0 -239 0 -203 c 0
 0 -155 1 -107 5 -59 c 0
 6 -39 10 -21 25 -7 c 0
 30 -2 34 0 38 0 c 0
 42 0 46 -5 48 -14 c 0
 58 -52 65 -90 64 -129 c 2
 64 -163 l 2
 63 -186 64 -207 64 -224 c 0
 63 -242 63 -260 63 -277 c 2
 63 -326 l 2
 63 -354 62 -382 58 -409 c 0
 57 -416 55 -423 54 -430 c 0
 51 -446 38 -451 26 -452 c 2
 25 -452 l 2
EndSplineSet
EndChar

StartChar: uniE4AC
Encoding: 58540 58540 33
Width: 396
Flags: MW
HStem: 0 327.9
VStem: 0.289993 395.71
LayerCount: 2
Fore
SplineSet
331 0 m 0
 324 0 317 3 311 10 c 0
 271 60 225 105 191 159 c 0
 185 168 182 177 177 187 c 1
 134 139 98 87 58 37 c 0
 50 27 41 20 29 16 c 0
 26 14 22 14 19 14 c 0
 6 14 -3 24 1 39 c 0
 9 73 18 107 39 136 c 0
 78 190 123 238 168 287 c 0
 176 295 182 304 190 312 c 0
 197 320 204 333 217 326 c 2
 221 323 l 2
 229 322 236 317 240 308 c 1
 240 307 l 2
 243 303 246 298 247 293 c 0
 281 229 338 184 380 127 c 0
 389 115 396 102 396 86 c 0
 391 56 379 28 354 9 c 0
 347 4 339 0 331 0 c 0
EndSplineSet
EndChar

StartChar: uniE4AD
Encoding: 58541 58541 34
Width: 396
Flags: MW
HStem: -327.89 327.89
VStem: 0 395.69
LayerCount: 2
Fore
SplineSet
179 -326 m 2
 175 -323 l 2
 167 -322 160 -317 156 -308 c 1
 156 -307 l 2
 153 -303 150 -298 149 -293 c 0
 115 -229 58 -184 16 -127 c 0
 7 -115 0 -102 0 -86 c 0
 5 -56 17 -28 42 -9 c 0
 49 -4 57 0 65 0 c 0
 72 0 79 -3 85 -10 c 0
 125 -60 171 -105 205 -159 c 0
 211 -168 214 -177 219 -187 c 1
 262 -139 298 -87 338 -37 c 0
 346 -27 355 -20 367 -16 c 0
 370 -14 374 -14 377 -14 c 0
 390 -14 399 -24 395 -39 c 0
 387 -73 378 -107 357 -136 c 0
 318 -190 273 -238 228 -287 c 0
 220 -295 214 -304 206 -312 c 0
 199 -320 192 -333 179 -326 c 2
EndSplineSet
EndChar

StartChar: uniE4AE
Encoding: 58542 58542 35
Width: 416
Flags: MW
HStem: 0 483<206 207>
VStem: 0 416<195 297>
LayerCount: 2
Fore
SplineSet
2 191 m 0
 1 193 0 194 0 196 c 0
 0 201 4 207 6 211 c 0
 53 298 112 377 167 459 c 0
 178 475 190 483 205 483 c 0
 213 483 222 481 232 477 c 0
 267 463 292 436 318 410 c 0
 346 380 373 348 401 318 c 0
 409 310 416 302 416 292 c 0
 416 289 415 286 414 283 c 0
 412 235 377 198 337 198 c 0
 334 198 330 198 327 199 c 0
 315 201 309 207 302 216 c 0
 266 259 237 309 196 349 c 0
 193 351 190 354 187 357 c 0
 181 364 176 368 171 368 c 0
 165 368 159 364 153 355 c 0
 126 314 99 274 70 235 c 0
 57 218 44 200 23 192 c 0
 16 190 8 186 2 191 c 0
206 0 m 0
 175 1 164 5 164 21 c 0
 164 28 166 37 170 49 c 0
 177 74 180 99 194 122 c 0
 201 134 208 143 218 143 c 0
 223 143 228 141 235 136 c 0
 246 128 266 135 269 116 c 0
 271 106 272 97 274 88 c 0
 279 62 242 8 217 2 c 0
 212 1 208 0 206 0 c 0
EndSplineSet
EndChar

StartChar: uniE4AF
Encoding: 58543 58543 36
Width: 416
Flags: MW
HStem: -483 483<209 210 209 218.5>
VStem: 0 416<-297 -195>
LayerCount: 2
Fore
SplineSet
211 -483 m 0
 203 -483 194 -481 184 -477 c 0
 149 -463 124 -436 98 -410 c 0
 70 -380 43 -348 15 -318 c 0
 7 -310 0 -302 0 -292 c 0
 0 -289 1 -286 2 -283 c 0
 4 -235 39 -198 79 -198 c 0
 82 -198 86 -198 89 -199 c 0
 101 -201 107 -207 114 -216 c 0
 150 -259 179 -309 220 -349 c 0
 223 -351 226 -354 229 -357 c 0
 235 -364 240 -368 245 -368 c 0
 251 -368 257 -364 263 -355 c 0
 290 -314 317 -274 346 -235 c 0
 359 -218 372 -200 393 -192 c 0
 400 -190 408 -186 414 -191 c 0
 415 -193 416 -194 416 -196 c 0
 416 -201 412 -207 410 -211 c 0
 363 -298 304 -377 249 -459 c 0
 238 -475 226 -483 211 -483 c 0
198 -143 m 0
 193 -143 188 -141 181 -136 c 0
 170 -128 150 -135 147 -116 c 0
 145 -106 144 -97 142 -88 c 0
 137 -62 174 -8 199 -2 c 0
 204 -1 208 0 210 0 c 0
 241 -1 252 -5 252 -21 c 0
 252 -28 250 -37 246 -49 c 0
 239 -74 236 -99 222 -122 c 0
 215 -134 208 -143 198 -143 c 0
EndSplineSet
EndChar

StartChar: uniE4B0
Encoding: 58544 58544 37
Width: 385
Flags: MW
HStem: 0 505<36.5 200>
VStem: 0 385<190 374 191 374>
LayerCount: 2
Fore
SplineSet
24 176 m 0
 14 179 2 179 0 190 c 2
 0 191 l 2
 0 199 12 202 19 206 c 0
 86 241 160 259 228 292 c 0
 235 295 243 297 256 302 c 1
 195 325 140 345 85 366 c 2
 76 369 l 2
 23 389 8 393 8 417 c 0
 8 430 12 448 17 477 c 0
 20 496 29 505 44 505 c 0
 49 505 55 503 62 501 c 0
 138 475 214 447 290 421 c 0
 313 413 336 407 358 399 c 0
 375 394 385 383 385 365 c 0
 385 321 367 296 325 283 c 0
 251 261 183 224 110 199 c 0
 90 193 71 185 52 179 c 0
 43 177 33 174 24 176 c 0
186 0 m 0
 178 3 165 -1 160 11 c 0
 158 17 157 22 157 26 c 0
 157 33 159 39 164 46 c 0
 176 63 184 82 198 98 c 0
 206 107 218 112 229 112 c 0
 241 112 252 107 259 99 c 0
 263 95 264 91 264 88 c 0
 264 81 261 75 260 69 c 0
 256 39 214 0 186 0 c 0
EndSplineSet
EndChar

StartChar: uniE4B1
Encoding: 58545 58545 38
Width: 385
Flags: MW
HStem: -505.65 504.65
VStem: 0 385<-491 -307 -490 -307>
LayerCount: 2
Fore
SplineSet
24 -505 m 0
 14 -502 2 -502 0 -491 c 2
 0 -490 l 2
 0 -482 12 -479 19 -475 c 0
 86 -440 160 -422 228 -389 c 0
 235 -386 243 -384 256 -379 c 1
 195 -356 140 -336 85 -315 c 2
 76 -312 l 2
 23 -292 8 -288 8 -264 c 0
 8 -251 12 -233 17 -204 c 0
 20 -185 29 -176 44 -176 c 0
 49 -176 55 -178 62 -180 c 0
 138 -206 214 -234 290 -260 c 0
 313 -268 336 -274 358 -282 c 0
 375 -287 385 -298 385 -316 c 0
 385 -360 367 -385 325 -398 c 0
 251 -420 183 -457 110 -482 c 0
 90 -488 71 -496 52 -502 c 0
 43 -504 33 -507 24 -505 c 0
229 -113 m 0
 218 -113 206 -108 198 -99 c 0
 184 -83 176 -64 164 -47 c 0
 159 -40 157 -34 157 -27 c 0
 157 -23 158 -18 160 -12 c 0
 165 0 178 -4 186 -1 c 0
 214 -1 256 -40 260 -70 c 0
 261 -76 264 -82 264 -89 c 0
 264 -92 263 -96 259 -100 c 0
 252 -108 241 -113 229 -113 c 0
EndSplineSet
EndChar

StartChar: uniE4B2
Encoding: 58546 58546 39
Width: 472
Flags: MW
HStem: 222 48<39 171>
VStem: 0 472<230 244 230 249>
LayerCount: 2
Fore
SplineSet
342 217 m 1
 242 222 142 222 41 222 c 0
 37 222 33 222 29 223 c 0
 17 226 0 230 0 243 c 2
 0 244 l 2
 0 254 17 253 27 256 c 0
 69 267 112 270 155 270 c 0
 187 270 220 268 253 266 c 0
 307 263 362 262 417 260 c 0
 430 260 443 259 455 256 c 0
 468 254 470 244 472 236 c 2
 472 234 l 2
 472 226 462 226 456 224 c 0
 434 217 411 217 388 217 c 2
 342 217 l 1
217 0 m 1
 192 2 176 16 163 32 c 0
 161 34 161 37 161 39 c 0
 161 47 167 55 172 57 c 0
 201 71 218 102 251 111 c 0
 259 113 266 116 272 116 c 0
 279 116 285 112 289 99 c 0
 293 87 313 81 306 65 c 0
 296 45 286 23 262 15 c 0
 246 10 230 4 217 0 c 1
EndSplineSet
EndChar

StartChar: uniE4B3
Encoding: 58547 58547 40
Width: 472
Flags: MW
HStem: -270 48<301 433>
VStem: 0 472<-249 -234 -249 -230>
LayerCount: 2
Fore
SplineSet
317 -270 m 0
 285 -270 252 -268 219 -266 c 0
 165 -263 110 -262 55 -260 c 0
 42 -260 29 -259 17 -256 c 0
 4 -254 2 -244 0 -236 c 2
 0 -234 l 2
 0 -226 10 -226 16 -224 c 0
 38 -217 61 -217 84 -217 c 2
 130 -217 l 1
 230 -222 330 -222 431 -222 c 0
 435 -222 439 -222 443 -223 c 0
 455 -226 472 -230 472 -243 c 2
 472 -244 l 2
 472 -254 455 -253 445 -256 c 0
 403 -267 360 -270 317 -270 c 0
200 -116 m 0
 193 -116 187 -112 183 -99 c 0
 179 -87 159 -81 166 -65 c 0
 176 -45 186 -23 210 -15 c 0
 226 -10 242 -4 255 0 c 1
 280 -2 296 -16 309 -32 c 0
 311 -34 311 -37 311 -39 c 0
 311 -47 305 -55 300 -57 c 0
 271 -71 254 -102 221 -111 c 0
 213 -113 206 -116 200 -116 c 0
EndSplineSet
EndChar

StartChar: uniE4B4
Encoding: 58548 58548 41
Width: 521
Flags: MW
HStem: 3 54 99 18
VStem: 0 521<22 23 15 29>
LayerCount: 2
Fore
SplineSet
103 99 m 0
 89 99 76 101 64 117 c 1
 140 153 224 162 300 205 c 1
 245 232 197 261 149 292 c 0
 116 314 79 331 52 361 c 0
 42 372 36 379 36 385 c 0
 36 392 44 397 61 404 c 0
 83 413 100 430 124 436 c 0
 132 438 139 438 146 438 c 0
 165 438 181 433 198 421 c 0
 242 392 288 364 334 338 c 0
 358 323 385 310 397 279 c 0
 402 267 413 256 425 248 c 0
 436 240 442 233 442 227 c 0
 442 220 436 213 424 205 c 0
 368 166 304 148 240 129 c 0
 195 115 151 99 103 99 c 0
86 0 m 0
 71 0 56 1 42 4 c 0
 38 4 33 3 30 5 c 0
 17 10 0 15 0 29 c 0
 1 42 19 37 29 40 c 0
 75 52 122 47 169 50 c 0
 227 53 285 57 343 57 c 0
 359 57 374 57 390 56 c 0
 425 55 461 46 497 46 c 0
 511 46 518 35 521 23 c 2
 521 20 l 2
 521 10 507 13 502 8 c 0
 489 0 474 4 458 3 c 0
 407 10 355 12 302 12 c 0
 250 11 198 5 147 3 c 0
 127 2 106 0 86 0 c 0
EndSplineSet
EndChar

StartChar: uniE4B5
Encoding: 58549 58549 42
Width: 521
Flags: MW
HStem: -438 18 -57 54
VStem: 0 521<-23 -22>
LayerCount: 2
Fore
SplineSet
103 -438 m 0
 89 -438 76 -436 64 -420 c 1
 140 -384 224 -375 300 -332 c 1
 245 -305 197 -276 149 -245 c 0
 116 -223 79 -206 52 -176 c 0
 42 -165 36 -158 36 -152 c 0
 36 -145 44 -140 61 -133 c 0
 83 -124 100 -107 124 -101 c 0
 132 -99 139 -99 146 -99 c 0
 165 -99 181 -104 198 -116 c 0
 242 -145 288 -173 334 -199 c 0
 358 -214 385 -227 397 -258 c 0
 402 -270 413 -281 425 -289 c 0
 436 -297 442 -304 442 -310 c 0
 442 -317 436 -324 424 -332 c 0
 368 -371 304 -389 240 -408 c 0
 195 -422 151 -438 103 -438 c 0
343 -57 m 0
 285 -57 227 -53 169 -50 c 0
 122 -47 75 -52 29 -40 c 0
 19 -37 1 -42 0 -29 c 0
 0 -15 17 -10 30 -5 c 0
 33 -3 38 -4 42 -4 c 0
 56 -1 71 0 86 0 c 0
 106 0 127 -2 147 -3 c 0
 198 -5 250 -11 302 -12 c 0
 355 -12 407 -10 458 -3 c 0
 474 -4 489 0 502 -8 c 0
 507 -13 521 -10 521 -20 c 2
 521 -23 l 2
 518 -35 511 -46 497 -46 c 0
 461 -46 425 -55 390 -56 c 0
 374 -57 359 -57 343 -57 c 0
EndSplineSet
EndChar

StartChar: uniE4B6
Encoding: 58550 58550 43
Width: 305
Flags: MW
HStem: 0 319<12 284.5>
VStem: 0 305
LayerCount: 2
Fore
SplineSet
14 0 m 0
 10 0 5 0 0 2 c 1
 17 49 44 89 74 129 c 0
 114 184 154 240 203 288 c 0
 222 306 246 319 274 319 c 0
 295 319 305 305 305 282 c 0
 305 235 275 204 244 179 c 0
 179 125 114 71 50 16 c 0
 40 7 29 0 14 0 c 0
EndSplineSet
EndChar

StartChar: uniE4B7
Encoding: 58551 58551 44
Width: 305
Flags: MW
HStem: -319 319<12 284.5>
VStem: 0 305
LayerCount: 2
Fore
SplineSet
274 -319 m 0
 246 -319 222 -306 203 -288 c 0
 154 -240 114 -184 74 -129 c 0
 44 -89 17 -49 0 -2 c 1
 5 0 10 0 14 0 c 0
 29 0 40 -7 50 -16 c 0
 114 -71 179 -125 244 -179 c 0
 275 -204 305 -235 305 -282 c 0
 305 -305 295 -319 274 -319 c 0
EndSplineSet
EndChar

StartChar: uniE4B8
Encoding: 58552 58552 45
Width: 492
Flags: MW
HStem: 0 106<234 249>
VStem: 0 492<238 245.5>
LayerCount: 2
Fore
SplineSet
227 0 m 0
 130 0 56 71 18 155 c 0
 5 183 0 211 0 241 c 0
 0 250 0 259 1 268 c 0
 2 282 5 296 20 296 c 2
 21 296 l 2
 32 296 34 282 36 273 c 0
 57 205 102 159 163 127 c 0
 190 113 219 106 249 106 c 0
 306 106 364 132 401 179 c 0
 422 206 442 233 454 266 c 0
 456 274 461 279 467 283 c 0
 472 286 476 288 479 288 c 0
 484 288 488 284 490 274 c 0
 491 266 492 258 492 251 c 0
 492 225 484 201 472 177 c 0
 441 116 399 63 338 29 c 0
 299 7 271 0 227 0 c 0
EndSplineSet
EndChar

StartChar: uniE4B9
Encoding: 58553 58553 46
Width: 492
Flags: MW
HStem: -106 106<234 249 178.5 277.5>
VStem: 0 492<-245.5 -238 -254.5 -226>
LayerCount: 2
Fore
SplineSet
20 -296 m 2
 5 -296 2 -282 1 -268 c 0
 0 -259 0 -250 0 -241 c 0
 0 -211 5 -183 18 -155 c 0
 56 -71 130 0 227 0 c 0
 271 0 299 -7 338 -29 c 0
 399 -63 441 -116 472 -177 c 0
 484 -201 492 -225 492 -251 c 0
 492 -258 491 -266 490 -274 c 0
 488 -284 484 -288 479 -288 c 0
 476 -288 472 -286 467 -283 c 0
 461 -279 456 -274 454 -266 c 0
 442 -233 422 -206 401 -179 c 0
 364 -132 306 -106 249 -106 c 0
 219 -106 190 -113 163 -127 c 0
 102 -159 57 -205 36 -273 c 0
 34 -282 32 -296 21 -296 c 2
 20 -296 l 2
EndSplineSet
EndChar

StartChar: uniE4BA
Encoding: 58554 58554 47
Width: 413
Flags: MW
HStem: 107 74<158.5 220.5>
VStem: 404 8
LayerCount: 2
Fore
SplineSet
404 0 m 1
 364 74 292 95 218 105 c 0
 208 106 198 107 189 107 c 0
 128 107 73 81 25 38 c 0
 21 35 17 31 13 27 c 0
 10 24 7 20 3 22 c 0
 -2 24 0 29 0 33 c 0
 -2 79 21 110 60 133 c 0
 97 155 138 171 179 179 c 0
 187 181 195 181 203 181 c 0
 238 181 272 167 303 152 c 0
 322 144 341 133 356 119 c 0
 383 92 409 64 412 23 c 2
 412 16 l 2
 412 12 410 9 404 0 c 1
EndSplineSet
EndChar

StartChar: uniE4BB
Encoding: 58555 58555 48
Width: 412
Flags: MW
HStem: -181 74<158.5 220.5>
VStem: 404 8
LayerCount: 2
Fore
SplineSet
404 0 m 1
 410 -9 412 -12 412 -16 c 2
 412 -23 l 2
 409 -64 383 -92 356 -119 c 0
 341 -133 322 -144 303 -152 c 0
 272 -167 238 -181 203 -181 c 0
 195 -181 187 -181 179 -179 c 0
 138 -171 97 -155 60 -133 c 0
 21 -110 -2 -79 0 -33 c 0
 0 -29 -2 -24 3 -22 c 0
 7 -20 10 -24 13 -27 c 0
 17 -31 21 -35 25 -38 c 0
 73 -81 128 -107 189 -107 c 0
 198 -107 208 -106 218 -105 c 0
 292 -95 364 -74 404 0 c 1
EndSplineSet
EndChar

StartChar: uniE4BC
Encoding: 58556 58556 49
Width: 537
Flags: MW
HStem: 0 44<211 256.5>
VStem: 0 537<17.5 30 17.5 30>
LayerCount: 2
Fore
SplineSet
114 127 m 0
 108 129 107 132 107 136 c 0
 107 141 111 149 110 155 c 0
 109 160 109 166 109 171 c 0
 109 234 148 281 185 328 c 0
 206 353 227 378 247 404 c 0
 257 416 267 422 278 422 c 0
 286 422 295 418 303 410 c 0
 348 367 390 320 430 271 c 0
 440 258 443 242 442 225 c 0
 444 206 436 188 430 170 c 0
 424 155 414 147 402 147 c 0
 393 147 383 152 374 162 c 0
 336 206 302 252 268 299 c 0
 263 305 260 308 257 308 c 0
 254 308 252 304 248 299 c 0
 214 252 174 210 149 158 c 0
 147 154 144 150 141 146 c 0
 134 137 126 123 114 127 c 0
211 0 m 0
 161 0 111 0 61 1 c 0
 37 1 17 8 0 25 c 1
 0 30 l 1
 50 42 101 45 152 45 c 0
 171 45 191 44 211 44 c 2
 503 44 l 2
 509 44 514 44 520 43 c 0
 531 43 533 32 536 25 c 0
 537 23 537 22 537 21 c 0
 537 14 527 15 523 12 c 0
 512 3 497 3 484 3 c 0
 393 1 302 0 211 0 c 0
EndSplineSet
EndChar

StartChar: uniE4BD
Encoding: 58557 58557 50
Width: 537
Flags: MW
HStem: -44 44<201 211 211 256.5 186 503>
VStem: 0 537<-30 -17.5 -25 -17.5>
LayerCount: 2
Fore
SplineSet
271 -422 m 0
 263 -422 254 -418 246 -410 c 0
 201 -367 159 -320 119 -271 c 0
 109 -258 106 -242 107 -225 c 0
 105 -206 113 -188 119 -170 c 0
 125 -155 135 -147 147 -147 c 0
 156 -147 166 -152 175 -162 c 0
 213 -206 247 -252 281 -299 c 0
 286 -305 289 -308 292 -308 c 0
 295 -308 297 -304 301 -299 c 0
 335 -252 375 -210 400 -158 c 0
 402 -154 405 -150 408 -146 c 0
 415 -137 423 -123 435 -127 c 0
 441 -129 442 -132 442 -136 c 0
 442 -140 439 -147 439 -153 c 0
 439 -158 440 -165 440 -171 c 0
 440 -234 401 -281 364 -328 c 0
 343 -353 322 -378 302 -404 c 0
 292 -416 282 -422 271 -422 c 0
152 -45 m 0
 101 -45 50 -42 0 -30 c 1
 0 -25 l 1
 17 -8 37 -1 61 -1 c 0
 111 0 161 0 211 0 c 0
 302 0 393 -1 484 -3 c 0
 497 -3 512 -3 523 -12 c 0
 527 -15 537 -14 537 -21 c 0
 537 -22 537 -23 536 -25 c 0
 533 -32 531 -43 520 -43 c 0
 514 -44 509 -44 503 -44 c 2
 211 -44 l 2
 191 -44 171 -45 152 -45 c 0
EndSplineSet
EndChar

StartChar: uniE500
Encoding: 58624 58624 51
Width: 599
Flags: MW
HStem: -250 425<159.5 537.5>
VStem: 474 102
LayerCount: 2
Fore
SplineSet
53 -232 m 0
 50 -233 48 -234 46 -234 c 0
 41 -234 38 -230 36 -226 c 0
 26 -204 10 -184 2 -161 c 0
 0 -156 0 -152 0 -148 c 0
 0 -136 7 -129 18 -124 c 0
 114 -86 202 -33 293 13 c 2
 551 145 l 2
 555 147 558 148 561 148 c 0
 566 148 570 145 575 140 c 0
 594 122 594 97 599 79 c 1
 600 57 594 44 577 36 c 0
 426 -40 275 -117 126 -198 c 0
 103 -210 77 -219 53 -232 c 0
150 68 m 0
 139 76 131 88 121 96 c 0
 112 104 109 111 109 118 c 0
 109 127 113 135 120 143 c 0
 123 147 127 150 130 154 c 0
 144 168 154 175 165 175 c 0
 176 175 187 166 201 149 c 0
 218 128 224 117 224 102 c 0
 227 87 211 81 202 72 c 0
 190 59 184 52 177 52 c 0
 171 52 164 58 150 68 c 0
534 -250 m 0
 530 -250 525 -248 522 -245 c 0
 508 -227 488 -214 474 -195 c 0
 469 -188 467 -182 467 -176 c 0
 467 -170 469 -164 474 -158 c 0
 481 -148 492 -140 497 -128 c 0
 502 -117 509 -113 515 -113 c 0
 521 -113 528 -116 534 -122 c 0
 555 -139 571 -161 576 -183 c 0
 576 -197 541 -250 534 -250 c 0
EndSplineSet
EndChar

StartChar: uniE501
Encoding: 58625 58625 52
Width: 775
Flags: MW
HStem: -246.62 609.25
VStem: 0 774.99
LayerCount: 2
Fore
SplineSet
631 286 m 1
 625 305 624 326 612 344 c 0
 598 367 592 368 569 352 c 0
 433 256 295 161 153 72 c 0
 110 45 67 17 25 -11 c 0
 -4 -30 -5 -37 8 -67 c 0
 17 -87 33 -102 43 -121 c 0
 47 -127 53 -131 63 -124 c 0
 143 -71 223 -18 303 35 c 0
 406 102 506 173 606 244 c 0
 620 255 629 267 631 286 c 1
775 158 m 1
 770 175 769 195 759 213 c 0
 747 236 736 238 715 223 c 0
 598 140 473 68 359 -20 c 0
 303 -63 242 -100 181 -136 c 0
 163 -146 158 -158 166 -179 c 0
 174 -200 189 -218 198 -239 c 0
 201 -247 207 -250 216 -243 c 0
 254 -218 294 -194 332 -167 c 0
 432 -97 529 -23 632 41 c 0
 669 64 705 87 741 110 c 0
 758 121 774 133 775 158 c 1
743 -73 m 1
 735 -44 717 -22 693 -5 c 0
 678 6 667 4 659 -15 c 0
 652 -31 643 -46 634 -61 c 0
 623 -78 624 -94 642 -106 c 0
 659 -119 676 -133 693 -146 c 0
 697 -149 704 -152 708 -146 c 0
 721 -122 734 -99 743 -73 c 1
231 235 m 0
 231 264 197 306 171 315 c 0
 161 318 158 314 156 306 c 0
 151 291 147 276 141 261 c 0
 127 221 129 213 162 187 c 0
 172 179 182 171 192 163 c 0
 199 158 206 156 210 167 c 0
 220 190 229 213 231 235 c 0
EndSplineSet
EndChar

StartChar: uniE502
Encoding: 58626 58626 53
Width: 1374
Flags: MW
HStem: -304 608<588.5 808.5>
VStem: 0 1374 132 99
LayerCount: 2
Fore
SplineSet
566 -255 m 0xc0
 562 -255 559 -252 557 -248 c 0
 543 -226 524 -206 515 -181 c 0
 513 -177 512 -173 512 -170 c 0
 512 -165 515 -160 520 -154 c 0
 545 -128 576 -112 606 -94 c 0
 766 7 923 112 1077 222 c 0
 1088 229 1097 234 1104 234 c 0
 1114 234 1121 226 1129 208 c 0
 1135 192 1138 176 1142 163 c 1
 1141 141 1133 128 1118 118 c 2
 955 4 l 2
 837 -81 713 -158 591 -238 c 0
 586 -241 580 -245 576 -249 c 0
 572 -253 569 -255 566 -255 c 0xc0
202 103 m 0xa0
 194 103 183 118 154 139 c 0
 140 149 132 161 132 175 c 0
 132 182 134 191 140 200 c 0
 148 212 150 227 153 241 c 0
 156 253 161 259 168 259 c 0
 172 259 177 256 183 252 c 0
 207 233 229 212 231 178 c 0
 229 171 228 163 226 155 c 0
 214 118 210 103 202 103 c 0xa0
54 -185 m 0
 50 -185 47 -182 44 -177 c 0
 31 -155 12 -136 3 -111 c 0
 1 -107 0 -103 0 -100 c 0
 0 -94 3 -89 8 -84 c 0
 33 -58 64 -42 94 -23 c 0
 254 77 411 182 565 292 c 0
 576 300 585 304 592 304 c 0
 602 304 609 296 616 278 c 0
 623 263 626 246 630 234 c 1
 629 212 621 198 606 188 c 0
 551 150 497 112 443 74 c 0
 324 -10 201 -87 79 -167 c 0
 74 -171 68 -174 64 -179 c 0
 61 -183 57 -185 54 -185 c 0
275 -250 m 0
 271 -250 268 -246 267 -243 c 0
 258 -221 243 -204 235 -182 c 0
 232 -176 231 -170 231 -165 c 0
 231 -155 237 -147 248 -140 c 0
 415 -45 562 81 728 179 c 0
 751 193 773 210 795 225 c 0
 799 228 802 229 805 229 c 0
 809 229 812 227 817 223 c 0
 837 203 836 176 843 155 c 1
 841 130 826 118 808 107 c 0
 746 67 684 26 622 -13 c 0
 552 -56 490 -108 423 -155 c 0
 377 -187 327 -213 283 -247 c 0
 280 -249 278 -250 275 -250 c 0
807 -304 m 0
 803 -304 799 -300 798 -296 c 0
 790 -275 774 -257 766 -235 c 0
 764 -229 763 -223 763 -219 c 0
 763 -208 768 -201 780 -194 c 0
 947 -98 1094 28 1260 126 c 0
 1283 140 1304 156 1327 172 c 0
 1330 175 1333 176 1336 176 c 0
 1340 176 1344 174 1349 169 c 0
 1369 150 1367 123 1374 102 c 1
 1373 76 1357 64 1340 53 c 0
 1278 13 1216 -27 1153 -67 c 0
 1084 -110 1021 -162 954 -208 c 0
 909 -240 859 -267 815 -301 c 0
 812 -303 810 -304 807 -304 c 0
1302 -205 m 0
 1299 -205 1295 -203 1293 -201 c 0
 1276 -187 1256 -176 1240 -160 c 0
 1232 -153 1229 -146 1229 -138 c 0
 1229 -132 1231 -126 1234 -120 c 2
 1258 -76 l 2
 1266 -61 1271 -54 1278 -54 c 0
 1283 -54 1290 -58 1300 -67 c 0
 1320 -83 1337 -102 1343 -131 c 1
 1334 -155 1322 -179 1307 -202 c 0
 1305 -204 1304 -205 1302 -205 c 0
EndSplineSet
EndChar

StartChar: uniE503
Encoding: 58627 58627 54
Width: 114
Flags: MW
HStem: 62 151<45.5 74>
VStem: 0 114
LayerCount: 2
Fore
SplineSet
73 62 m 0
 70 62 66 64 64 66 c 0
 47 80 27 91 11 107 c 0
 3 114 0 121 0 129 c 0
 0 135 2 141 5 147 c 2
 29 191 l 2
 37 206 42 213 49 213 c 0
 54 213 61 209 71 200 c 0
 91 184 108 165 114 136 c 1
 105 112 93 88 78 65 c 0
 76 63 75 62 73 62 c 0
EndSplineSet
EndChar

StartChar: uniE504
Encoding: 58628 58628 55
Width: 630
Flags: MW
HStem: -225 490
VStem: 0 630
LayerCount: 2
Fore
SplineSet
54 -225 m 0
 50 -224 47 -221 44 -217 c 0
 29 -197 12 -176 3 -151 c 0
 1 -147 0 -143 0 -140 c 0
 0 -133 3 -129 8 -123 c 0
 31 -95 64 -82 94 -63 c 0
 253 38 419 133 565 252 c 0
 576 261 585 266 592 265 c 0
 602 264 609 256 616 239 c 0
 623 223 626 207 630 194 c 1
 629 172 621 159 606 149 c 0
 550 112 497 72 443 34 c 0
 324 -50 201 -127 79 -207 c 0
 74 -210 67 -213 64 -218 c 0
 61 -223 57 -226 54 -225 c 0
EndSplineSet
EndChar

StartChar: uniE505
Encoding: 58629 58629 56
Width: 114
Flags: MW
HStem: -206 151<45.5 74>
VStem: 0 114
LayerCount: 2
Fore
SplineSet
73 -206 m 0
 70 -206 66 -204 64 -202 c 0
 47 -188 27 -177 11 -161 c 0
 3 -154 0 -147 0 -139 c 0
 0 -133 2 -127 5 -121 c 2
 29 -77 l 2
 37 -62 42 -55 49 -55 c 0
 54 -55 61 -59 71 -68 c 0
 91 -84 108 -103 114 -132 c 1
 105 -156 93 -180 78 -203 c 0
 76 -205 75 -206 73 -206 c 0
EndSplineSet
EndChar

StartChar: uniE030
Encoding: 57392 57392 57
Width: 51
Flags: MW
HStem: 1 1024<21.5 23 23 25.5 21 27 21 30>
VStem: 8 43<428.5 446.5 388 539>
LayerCount: 2
Fore
SplineSet
27 1 m 2
 16 1 8 5 5 15 c 0
 2 27 -1 39 0 51 c 0
 6 202 8 353 8 504 c 0
 8 574 7 644 7 714 c 0
 6 786 2 858 2 930 c 0
 2 951 2 971 3 991 c 0
 3 997 3 1003 4 1008 c 0
 4 1019 14 1023 21 1025 c 2
 23 1025 l 2
 28 1025 30 1017 33 1012 c 0
 40 999 41 986 41 972 c 0
 41 960 40 947 41 935 c 0
 46 875 47 815 47 755 c 2
 47 664 l 2
 48 577 51 490 51 403 c 0
 51 373 51 343 50 313 c 0
 49 286 49 260 49 233 c 0
 49 180 50 126 50 73 c 0
 50 56 48 38 47 21 c 0
 46 10 41 2 30 1 c 2
 27 1 l 2
EndSplineSet
EndChar

StartChar: uniE031
Encoding: 57393 57393 58
Width: 173
Flags: MW
HStem: 1 1072
VStem: 102 47<875 905 905 929.5 929.5 945 938 958 958 961.5>
LayerCount: 2
Fore
SplineSet
152 16 m 0
 141 16 141 26 138 35 c 0
 116 104 122 175 118 246 c 0
 114 324 114 403 113 481 c 0
 113 612 102 743 102 875 c 0
 102 885 102 895 102 905 c 0
 102 918 102 931 102 945 c 0
 102 978 101 1011 101 1044 c 0
 101 1060 109 1071 123 1073 c 0
 135 1074 139 1057 143 1046 c 0
 148 1029 149 1012 149 994 c 0
 149 982 149 970 149 958 c 0
 149 947 149 935 149 924 c 0
 149 826 153 729 157 630 c 0
 160 530 160 431 163 331 c 0
 166 242 169 153 173 65 c 0
 173 52 172 39 166 28 c 0
 162 23 159 16 152 16 c 0
45 1 m 0
 32 1 35 17 33 27 c 0
 20 97 22 168 18 239 c 0
 11 358 17 477 9 630 c 0
 9 659 9 704 9 754 c 0
 9 782 9 814 9 844 c 0
 9 898 4 951 0 1005 c 0
 0 1008 0 1010 0 1013 c 0
 0 1020 0 1027 1 1034 c 0
 2 1044 12 1047 20 1050 c 0
 21 1050 22 1050 22 1050 c 2
 29 1050 27 1042 30 1037 c 0
 40 1022 37 1004 39 988 c 0
 45 924 46 861 48 797 c 0
 52 710 51 623 53 536 c 0
 56 448 56 360 58 272 c 0
 60 196 64 119 67 43 c 0
 67 37 67 32 66 26 c 0
 63 15 58 1 45 1 c 0
EndSplineSet
EndChar

StartChar: uniE032
Encoding: 57394 57394 59
Width: 401
Flags: MW
HStem: 2 1049
VStem: 2 41 154 234<733 971.5>
LayerCount: 2
Fore
SplineSet
189 13 m 0
 152 14 143 24 142 56 c 2
 142 199 l 2
 141 214 144 229 144 243 c 0
 141 315 148 387 154 458 c 0
 157 493 160 528 160 563 c 0
 157 631 154 699 154 767 c 0
 154 839 160 910 163 982 c 0
 163 991 161 999 159 1008 c 0
 158 1011 161 1014 161 1016 c 0
 161 1032 172 1045 188 1045 c 2
 188 1045 190 1045 193 1044 c 0
 201 1042 212 1041 220 1041 c 0
 230 1041 243 1044 257 1047 c 0
 266 1050 277 1051 286 1051 c 0
 338 1051 388 1001 388 942 c 0
 388 823 393 704 397 584 c 0
 397 571 401 558 401 545 c 0
 398 469 391 393 393 316 c 0
 394 230 382 145 381 58 c 0
 381 22 380 13 342 13 c 0
 309 13 277 13 243 13 c 0
 223 13 206 13 189 13 c 0
18 2 m 0
 3 3 5 17 4 28 c 0
 0 124 2 219 2 315 c 0
 -1 410 0 506 1 601 c 0
 2 733 6 864 9 996 c 0
 9 1007 13 1018 13 1029 c 0
 14 1040 20 1042 29 1042 c 0
 38 1042 41 1037 43 1029 c 0
 47 1013 51 997 51 982 c 0
 48 968 47 954 47 941 c 0
 43 870 45 798 45 726 c 0
 42 655 43 583 43 511 c 0
 43 445 45 379 45 312 c 0
 42 246 43 180 43 113 c 0
 43 99 47 85 47 71 c 0
 44 55 43 39 39 23 c 0
 35 12 33 0 18 2 c 0
EndSplineSet
EndChar

StartChar: uniE033
Encoding: 57395 57395 60
Width: 401
Flags: MW
HStem: 2 1049
VStem: 13 234<733 971.5> 356 36
LayerCount: 2
Fore
SplineSet
212 13 m 0
 195 13 178 13 158 13 c 0
 124 13 92 13 59 13 c 0
 21 13 20 22 20 58 c 0
 19 145 7 230 8 316 c 0
 10 393 3 469 0 545 c 0
 0 558 4 571 4 584 c 0
 8 704 13 823 13 942 c 0
 13 1001 63 1051 115 1051 c 0
 124 1051 135 1050 144 1047 c 0
 158 1044 171 1041 181 1041 c 0
 189 1041 200 1042 208 1044 c 0
 211 1045 213 1045 213 1045 c 2
 229 1045 240 1032 240 1016 c 0
 240 1014 243 1011 242 1008 c 0
 240 999 238 991 238 982 c 0
 241 910 247 839 247 767 c 0
 247 699 244 631 241 563 c 0
 241 528 244 493 247 458 c 0
 253 387 260 315 257 243 c 0
 257 229 260 214 259 199 c 2
 259 56 l 2
 258 24 249 14 212 13 c 0
383 2 m 0
 368 0 366 12 362 23 c 0
 358 39 357 55 354 71 c 0
 354 85 358 99 358 113 c 0
 358 180 359 246 356 312 c 0
 356 379 358 445 358 511 c 0
 358 583 359 655 356 726 c 0
 356 798 358 870 354 941 c 0
 354 954 353 968 350 982 c 0
 350 997 354 1013 358 1029 c 0
 360 1037 363 1042 372 1042 c 0
 381 1042 387 1040 388 1029 c 0
 388 1018 392 1007 392 996 c 0
 395 864 399 733 400 601 c 0
 401 506 402 410 399 315 c 0
 399 219 401 124 397 28 c 0
 396 17 398 3 383 2 c 0
EndSplineSet
EndChar

StartChar: uniE034
Encoding: 57396 57396 61
Width: 259
Flags: MW
HStem: 13 1038<40 119.5 89 119.5 89 158 89 212>
VStem: 13 234<733 971.5>
LayerCount: 2
Fore
SplineSet
212 13 m 0
 195 13 178 13 158 13 c 0
 124 13 92 13 59 13 c 0
 21 13 20 22 20 58 c 0
 19 145 7 230 8 316 c 0
 10 393 3 469 0 545 c 0
 0 558 4 571 4 584 c 0
 8 704 13 823 13 942 c 0
 13 1001 63 1051 115 1051 c 0
 124 1051 135 1050 144 1047 c 0
 158 1044 171 1041 181 1041 c 0
 189 1041 200 1042 208 1044 c 0
 211 1045 213 1045 213 1045 c 2
 229 1045 240 1032 240 1016 c 0
 240 1014 243 1011 242 1008 c 0
 240 999 238 991 238 982 c 0
 241 910 247 839 247 767 c 0
 247 699 244 631 241 563 c 0
 241 528 244 493 247 458 c 0
 253 387 260 315 257 243 c 0
 257 229 260 214 259 199 c 2
 259 56 l 2
 258 24 249 14 212 13 c 0
EndSplineSet
EndChar

StartChar: uniE035
Encoding: 57397 57397 62
Width: 581
Flags: MW
HStem: 0 1022<115.5 444>
VStem: 0 234 366 199<819.5 874.5>
LayerCount: 2
Fore
SplineSet
37 8 m 2
 22 8 17 13 14 29 c 0
 3 97 0 164 0 232 c 0
 0 283 2 334 2 385 c 0
 2 402 2 419 1 436 c 2
 1 471 l 2
 1 567 8 664 13 760 c 0
 18 829 23 898 23 967 c 0
 23 1006 23 1017 42 1017 c 0
 47 1017 53 1016 61 1015 c 0
 68 1014 74 1013 80 1013 c 0
 86 1013 93 1014 100 1018 c 0
 105 1021 112 1022 119 1022 c 0
 153 1022 203 992 212 964 c 0
 230 912 231 857 234 804 c 0
 238 739 240 675 240 610 c 0
 240 568 239 525 238 483 c 0
 235 379 233 275 230 171 c 0
 228 128 224 86 222 43 c 0
 221 33 217 24 207 24 c 0
 178 24 152 6 123 8 c 2
 37 8 l 2
365 7 m 0
 347 12 339 21 340 39 c 0
 353 234 347 430 358 625 c 0
 362 703 366 781 366 858 c 0
 366 891 366 923 364 955 c 2
 364 966 l 2
 364 970 364 973 363 976 c 0
 361 981 361 985 361 989 c 0
 361 1004 373 1008 389 1006 c 0
 407 1003 424 1003 442 1003 c 0
 472 1003 502 1004 531 997 c 0
 560 990 566 984 565 954 c 2
 565 637 l 2
 565 619 564 600 564 582 c 0
 564 474 571 368 579 261 c 0
 580 246 581 231 581 216 c 0
 581 161 574 107 562 53 c 0
 556 28 548 15 521 10 c 0
 490 4 459 0 429 0 c 0
 408 0 386 2 365 7 c 0
EndSplineSet
EndChar

StartChar: uniE036
Encoding: 57398 57398 63
Width: 41
Flags: MW
HStem: 0 978<19.5 20 20 24 17 26.5>
VStem: 0 36<915.5 919 919 926> 4 32<641 678.5> 6 35
LayerCount: 2
Fore
SplineSet
13 178 m 1x90
 6 206 4 232 4 258 c 0
 4 274 5 289 6 305 c 0
 9 348 9 390 10 432 c 0
 11 447 9 472 27 471 c 0
 40 471 41 452 41 438 c 0
 41 362 39 286 31 210 c 0
 30 199 25 189 13 178 c 1x90
23 0 m 0
 16 0 15 8 15 14 c 0
 16 32 9 49 9 67 c 0
 9 70 10 73 10 76 c 0
 11 83 10 91 10 98 c 0
 10 108 12 117 25 118 c 0
 39 118 39 92 40 77 c 0
 41 70 41 62 41 55 c 0
 41 41 40 27 35 14 c 0
 33 8 30 0 23 0 c 0
15 543 m 0xa0
 8 544 10 552 10 557 c 0
 6 591 4 624 4 658 c 0
 4 699 6 741 5 782 c 0
 5 793 8 803 18 805 c 2
 19 805 l 2
 30 805 29 793 31 786 c 0
 35 769 36 751 36 735 c 0
 36 716 35 698 36 683 c 2
 36 594 l 2
 36 580 33 567 27 555 c 0
 24 550 23 541 15 543 c 0xa0
12 859 m 0xc0
 5 861 1 870 0 878 c 2
 0 919 l 2
 0 933 0 946 1 960 c 0
 1 970 8 976 17 978 c 2
 20 978 l 2
 28 978 27 969 29 964 c 0
 34 950 36 937 36 924 c 0
 36 907 33 891 28 875 c 0
 25 867 21 857 12 859 c 0xc0
EndSplineSet
EndChar

StartChar: uniE037
Encoding: 57399 57399 64
Width: 66
Flags: MW
HStem: 0 968 508 51<14 49> 672 45<21 45.5> 752 52<16 47>
VStem: 1 50 4 51 16 37 38 9
LayerCount: 2
Fore
SplineSet
43 508 m 0x48
 32 508 -1 532 1 539 c 0
 4 548 7 559 21 559 c 0
 37 559 57 542 57 525 c 0
 55 518 55 508 43 508 c 0x48
53 0 m 0
 44 -1 13 28 14 36 c 0
 16 45 20 54 32 54 c 0
 46 53 66 32 66 17 c 0
 64 10 62 2 53 0 c 0
38 80 m 0
 28 79 -2 108 1 116 c 0
 4 124 8 132 18 132 c 0
 33 132 51 113 51 96 c 0
 50 89 48 81 38 80 c 0
42 179 m 0
 30 188 17 197 14 213 c 2
 14 216 l 2
 14 220 18 223 22 224 c 0
 35 225 56 196 51 185 c 0
 49 181 45 176 42 179 c 0
32 255 m 0
 22 266 10 274 8 290 c 0
 8 294 11 299 12 299 c 0
 27 298 46 269 41 259 c 0
 39 256 36 251 32 255 c 0
37 328 m 0
 29 326 0 357 1 366 c 0
 2 376 9 384 20 384 c 0
 34 384 52 362 51 346 c 0
 49 339 47 330 37 328 c 0
45 417 m 0x82
 39 416 15 445 16 452 c 0
 16 459 21 466 28 464 c 0
 44 459 49 444 53 431 c 0
 52 424 52 418 45 417 c 0x82
40 584 m 0x28
 30 583 -1 609 0 618 c 0
 2 627 6 636 18 636 c 0
 33 637 52 619 53 603 c 0
 52 595 52 585 40 584 c 0x28
42 672 m 0
 33 671 6 698 8 706 c 0
 10 711 13 718 21 717 c 0
 33 717 52 696 51 683 c 0
 50 678 49 672 42 672 c 0
42 752 m 0x14
 30 753 2 780 4 789 c 0
 7 796 11 804 21 804 c 0
 35 804 55 785 55 770 c 0
 55 761 52 752 42 752 c 0x14
38 832 m 1x81
 27 841 13 848 9 863 c 1
 9 866 l 2
 9 872 13 877 19 876 c 0
 35 872 43 860 47 844 c 1
 47 842 l 2
 47 837 45 833 38 832 c 1x81
41 914 m 0x84
 31 914 2 943 4 951 c 0
 6 960 12 968 23 968 c 0
 36 968 55 948 55 932 c 0
 52 925 52 914 41 914 c 0x84
EndSplineSet
EndChar

StartChar: uniE038
Encoding: 57400 57400 65
Width: 50
Flags: MW
HStem: 525 475<16.5 21 14 36>
VStem: 0 45<696 747 696 768 696 768>
LayerCount: 2
Fore
SplineSet
36 525 m 2
 21 525 l 2
 12 525 5 527 2 540 c 0
 1 547 0 553 0 560 c 2
 0 768 l 1
 3 976 l 2
 3 980 2 985 2 989 c 0
 2 995 4 999 14 1000 c 0
 28 1000 45 987 46 975 c 0
 47 952 47 928 47 905 c 0
 47 843 45 779 45 715 c 0
 45 677 46 639 46 601 c 0
 46 582 49 563 49 544 c 0
 49 541 50 539 50 536 c 0
 50 529 47 524 36 525 c 2
EndSplineSet
EndChar

StartChar: uniE039
Encoding: 57401 57401 66
Width: 56
Flags: MW
HStem: 877 244.04
VStem: 0 46<888.5 978>
LayerCount: 2
Fore
SplineSet
29 877 m 0
 16 879 1 877 0 897 c 2
 0 978 l 2
 0 1013 5 1059 10 1105 c 0
 11 1114 12 1124 24 1121 c 0
 37 1118 57 1118 56 1099 c 0
 50 1031 45 963 46 894 c 0
 46 883 43 876 29 877 c 0
EndSplineSet
EndChar

StartChar: uniE1F0
Encoding: 57840 57840 67
Width: 318
Flags: MW
HStem: -155 806
VStem: 265 52<245 618>
LayerCount: 2
Fore
SplineSet
129 -148 m 0
 116 -152 103 -155 91 -155 c 0
 37 -155 0 -113 0 -57 c 0
 0 -47 1 -37 3 -27 c 0
 19 40 64 87 122 123 c 0
 151 141 182 153 215 153 c 0
 226 153 238 152 249 149 c 0
 251 149 253 148 255 148 c 0
 263 148 264 155 264 164 c 0
 264 191 264 218 265 245 c 0
 265 370 268 496 272 621 c 0
 273 638 275 652 297 651 c 0
 316 649 317 633 317 618 c 2
 317 314 l 2
 319 259 313 188 313 114 c 0
 313 95 314 74 314 55 c 0
 314 11 288 -23 262 -55 c 0
 228 -101 183 -130 129 -148 c 0
EndSplineSet
EndChar

StartChar: uniE1F1
Encoding: 57841 57841 68
Width: 318
Flags: MW
HStem: -155 994<64 297.5>
VStem: 264 53
LayerCount: 2
Fore
SplineSet
129 -148 m 0
 116 -152 103 -155 91 -155 c 0
 37 -155 0 -113 0 -57 c 0
 0 -47 1 -37 3 -27 c 0
 19 38 62 85 118 120 c 0
 148 140 181 153 216 153 c 0
 227 153 238 152 250 149 c 2
 253 149 l 2
 262 149 264 152 264 161 c 2
 264 214 l 1
 273 768 l 2
 273 784 272 800 273 816 c 0
 274 825 276 835 288 838 c 0
 290 839 291 839 293 839 c 0
 302 839 304 829 309 823 c 0
 318 810 317 794 317 779 c 2
 317 389 l 2
 319 330 313 248 313 161 c 0
 313 137 314 114 314 90 c 0
 314 39 301 -5 270 -46 c 0
 233 -95 187 -128 129 -148 c 0
EndSplineSet
EndChar

StartChar: uniE1F2
Encoding: 57842 57842 69
Width: 333
Flags: MW
HStem: 531 125<10.5 144 10.5 264>
VStem: 279 53
LayerCount: 2
Fore
SplineSet
125 -153 m 0
 118 -154 112 -155 105 -155 c 0
 66 -155 31 -130 21 -91 c 0
 17 -78 15 -65 15 -53 c 0
 15 -33 20 -14 29 5 c 0
 62 72 114 118 183 145 c 0
 198 151 213 153 228 153 c 0
 239 153 250 152 261 150 c 0
 264 149 267 149 270 149 c 0
 277 149 279 153 279 164 c 0
 281 280 282 396 284 512 c 2
 284 515 l 2
 284 529 277 531 264 531 c 2
 144 531 l 2
 104 531 64 531 24 530 c 0
 4 530 0 536 0 554 c 0
 1 569 1 583 1 598 c 2
 1 644 l 2
 1 653 5 656 16 656 c 0
 66 656 116 655 166 655 c 0
 216 655 266 656 316 656 c 0
 334 656 332 646 332 635 c 2
 332 322 l 2
 334 265 328 192 328 116 c 0
 328 96 329 76 329 55 c 0
 329 6 298 -32 268 -67 c 0
 231 -112 182 -140 125 -153 c 0
EndSplineSet
EndChar

StartChar: uniE1F3
Encoding: 57843 57843 70
Width: 332
Flags: MW
HStem: 713 125<11.5 141 11.5 258>
VStem: 285 47
LayerCount: 2
Fore
SplineSet
145 -149 m 0
 132 -153 119 -155 107 -155 c 0
 53 -155 16 -114 16 -59 c 0
 16 -49 17 -39 19 -29 c 0
 34 39 80 87 139 123 c 0
 168 141 199 153 232 153 c 0
 242 153 253 152 264 149 c 0
 267 148 269 148 271 148 c 0
 278 148 279 153 279 158 c 0
 279 227 280 296 282 366 c 0
 283 471 286 577 288 682 c 0
 289 713 289 713 258 713 c 2
 141 713 l 2
 102 713 64 713 25 712 c 0
 7 712 1 717 1 731 c 0
 1 747 2 764 2 780 c 0
 2 794 2 808 1 822 c 2
 1 825 l 2
 1 835 6 838 17 838 c 0
 67 838 116 837 166 837 c 0
 215 837 265 838 315 838 c 0
 334 838 332 828 332 816 c 2
 332 361 l 2
 332 290 328 194 328 99 c 0
 329 -16 256 -113 145 -149 c 0
EndSplineSet
EndChar

StartChar: uniE1F4
Encoding: 57844 57844 71
Width: 333
Flags: MW
HStem: 354 123<259 268.5> 531 125<17 21 21 258>
VStem: 279 53
LayerCount: 2
Fore
SplineSet
126 -152 m 0
 119 -154 111 -154 104 -154 c 0
 64 -154 30 -129 20 -87 c 0
 17 -76 16 -64 16 -53 c 0
 16 -33 20 -13 30 6 c 0
 63 73 115 119 184 145 c 0
 199 151 214 153 229 153 c 0
 240 153 251 152 262 150 c 0
 265 149 268 149 270 149 c 0
 277 149 280 153 279 163 c 0
 279 222 279 280 280 338 c 2
 280 340 l 2
 280 353 273 354 264 354 c 0
 184 354 103 354 23 353 c 0
 6 353 -1 357 1 375 c 0
 1 386 2 398 2 409 c 0
 2 426 0 443 0 460 c 0
 0 476 8 479 24 479 c 0
 102 478 180 479 259 477 c 0
 284 477 283 487 285 506 c 0
 287 530 277 532 258 531 c 2
 21 531 l 2
 3 531 -1 538 1 556 c 0
 2 570 2 584 2 598 c 0
 2 612 2 626 1 640 c 2
 1 643 l 2
 1 653 6 656 17 656 c 2
 315 656 l 2
 331 656 332 650 332 636 c 2
 332 322 l 2
 333 312 333 302 333 292 c 0
 333 243 328 186 328 126 c 0
 328 104 330 83 330 61 c 0
 330 39 324 18 314 -1 c 0
 272 -77 214 -133 126 -152 c 0
EndSplineSet
EndChar

StartChar: uniE1F5
Encoding: 57845 57845 72
Width: 332
Flags: MW
HStem: 532 124<124 142 142 144 144 162.5 20 262> 714 125<11.5 143 11.5 264>
VStem: 285 47<509 518>
LayerCount: 2
Fore
SplineSet
144 -148 m 0
 131 -152 118 -155 106 -155 c 0
 53 -155 16 -113 16 -57 c 0
 16 -47 17 -37 19 -27 c 0
 34 39 78 86 135 122 c 0
 165 140 197 153 231 153 c 0
 242 153 253 152 265 149 c 2
 268 149 l 2
 277 149 279 152 279 161 c 0
 279 177 279 193 280 209 c 0
 281 309 282 409 285 509 c 0
 285 527 280 532 262 532 c 2
 144 532 l 2
 104 532 65 532 25 531 c 0
 8 531 0 534 0 551 c 0
 0 568 2 586 2 603 c 0
 2 615 1 626 1 638 c 2
 1 641 l 2
 1 653 7 656 20 656 c 2
 142 656 l 2
 183 656 224 656 264 655 c 0
 295 655 286 675 288 690 c 0
 288 693 289 695 289 697 c 0
 289 711 280 714 264 714 c 2
 143 714 l 2
 103 714 63 714 22 713 c 0
 7 713 1 716 1 731 c 2
 1 824 l 2
 1 834 5 839 18 839 c 0
 68 839 117 838 167 838 c 0
 216 838 266 839 315 839 c 0
 335 839 332 828 332 816 c 2
 332 397 l 2
 334 337 328 248 328 155 c 0
 328 133 329 111 329 89 c 0
 329 38 317 -5 286 -46 c 0
 249 -95 203 -128 144 -148 c 0
EndSplineSet
EndChar

StartChar: uniE1F6
Encoding: 57846 57846 73
Width: 332
Flags: MW
HStem: 353 125<21 24 24 141 141 161 21 268> 531 125<21 274> 713 125<16 24 24 263>
VStem: 279 49<157.5 191.5> 285 47<505 513.5>
LayerCount: 2
Fore
SplineSet
146 -148 m 0xf0
 132 -153 119 -155 106 -155 c 0
 52 -155 15 -113 15 -58 c 0
 15 -48 16 -38 19 -27 c 0
 35 41 81 88 140 124 c 0
 169 141 199 153 231 153 c 0
 241 153 252 152 263 149 c 0
 266 148 268 148 270 148 c 0
 277 148 279 153 279 162 c 0
 279 221 279 280 280 339 c 0
 280 352 275 353 268 353 c 2xf0
 24 353 l 2
 8 353 1 356 1 370 c 0
 1 385 2 400 2 415 c 0
 2 427 2 440 1 453 c 2
 1 460 l 2
 1 473 6 478 21 478 c 2
 141 478 l 2
 181 478 221 478 260 477 c 0
 284 477 284 487 285 505 c 0
 285 522 284 531 264 531 c 0
 184 531 104 531 24 530 c 0
 8 530 0 533 0 549 c 0
 0 566 2 584 2 601 c 0
 2 613 1 624 1 636 c 2
 1 639 l 2
 1 653 7 656 21 656 c 2
 169 656 l 2
 201 656 233 655 265 655 c 0
 295 655 286 675 288 691 c 0
 289 694 289 696 289 698 c 0
 289 712 278 714 263 713 c 2
 24 713 l 2
 7 713 0 716 0 732 c 0
 0 747 1 762 1 778 c 2
 1 821 l 2
 1 833 3 838 16 838 c 2
 318 838 l 2
 334 838 332 828 332 817 c 2
 332 383 l 2xe8
 332 316 328 238 328 159 c 0
 328 136 329 112 329 88 c 0
 329 38 317 -5 286 -45 c 0
 250 -94 204 -128 146 -148 c 0xf0
EndSplineSet
EndChar

StartChar: uniE1F7
Encoding: 57847 57847 74
Width: 332
Flags: MW
HStem: 530 126<12 19 314 320>
VStem: 0 332<541.5 544 544 547 538.5 549>
LayerCount: 2
Fore
SplineSet
19 530 m 0
 5 530 0 534 0 549 c 0
 1 564 1 579 1 594 c 2
 1 642 l 2
 1 652 5 656 18 656 c 0
 68 656 117 655 167 655 c 0
 216 655 266 656 315 656 c 0
 328 656 333 652 332 638 c 0
 332 623 331 608 331 593 c 0
 331 577 332 562 332 547 c 2
 332 544 l 2
 332 533 326 530 314 530 c 0
 265 531 215 531 165 531 c 0
 117 531 68 531 19 530 c 0
EndSplineSet
EndChar

StartChar: uniE1F8
Encoding: 57848 57848 75
Width: 332
Flags: MW
HStem: 713 125<84 96 96 315>
VStem: 1 331<724 727 727 739 721.5 825 721.5 830>
LayerCount: 2
Fore
SplineSet
25 712 m 0
 7 712 1 717 1 731 c 0
 1 747 2 764 2 780 c 0
 2 794 2 808 1 822 c 2
 1 825 l 2
 1 835 5 838 17 838 c 2
 317 838 l 2
 330 838 333 833 332 821 c 2
 332 727 l 2
 332 716 327 713 315 713 c 2
 96 713 l 2
 72 713 49 713 25 712 c 0
EndSplineSet
EndChar

StartChar: uniE1F9
Encoding: 57849 57849 76
Width: 331
Flags: MW
HStem: 353 125<9 314 18 314 314 316> 530 126<11 15 316 318.5>
VStem: 0 331<368 462 360.5 463 360.5 469 546 638 360.5 641 360.5 646.5>
LayerCount: 2
Fore
SplineSet
15 530 m 0
 3 530 0 535 0 546 c 2
 0 641 l 2
 0 652 4 656 18 656 c 0
 68 655 117 655 167 655 c 0
 215 655 263 655 311 656 c 0
 326 656 331 652 331 638 c 2
 331 543 l 2
 331 533 327 530 316 530 c 0
 266 531 216 531 166 531 c 0
 115 531 65 531 15 530 c 0
15 353 m 2
 3 353 0 357 0 368 c 2
 0 463 l 2
 0 475 4 478 18 478 c 2
 314 478 l 2
 327 478 331 473 331 462 c 2
 331 365 l 2
 331 356 327 353 316 353 c 2
 15 353 l 2
EndSplineSet
EndChar

StartChar: uniE1FA
Encoding: 57850 57850 77
Width: 332
Flags: MW
HStem: 530 126<10 17 309 316.5> 713 125<9 317 15 313>
VStem: 0 332<548 551 540 639 540 645 540 823 540 828.5>
LayerCount: 2
Fore
SplineSet
17 530 m 0
 3 530 -1 534 0 548 c 2
 0 639 l 2
 0 651 3 656 16 656 c 0
 66 656 116 655 166 655 c 0
 215 655 265 656 315 656 c 0
 328 656 332 652 331 639 c 2
 331 595 l 2
 331 580 331 566 332 551 c 2
 332 548 l 2
 332 532 324 530 309 530 c 0
 262 531 214 531 166 531 c 0
 116 531 67 531 17 530 c 0
15 713 m 2
 3 713 0 717 0 728 c 2
 0 823 l 2
 0 834 3 838 15 838 c 2
 317 838 l 2
 328 838 332 834 331 823 c 2
 331 728 l 2
 331 716 327 712 313 713 c 2
 15 713 l 2
EndSplineSet
EndChar

StartChar: uniE1FB
Encoding: 57851 57851 78
Width: 331
Flags: MW
HStem: 352 125<17 22 22 315> 530 125<13.5 16 16 44.5 289.5 314> 712 125<9.5 315 19 315 315 317>
VStem: 1 331<369 460 360.5 464 360.5 469 545 547 630.5 638 360.5 639 360.5 645.5 727 821>
LayerCount: 2
Fore
SplineSet
16 530 m 2
 6 530 1 533 1 545 c 2
 1 639 l 2
 1 652 7 655 20 655 c 0
 69 655 118 654 167 654 c 0
 216 654 265 655 314 655 c 0
 328 655 333 652 332 638 c 0
 332 623 331 607 331 592 c 0
 331 577 332 562 332 547 c 2
 332 544 l 2
 332 532 327 529 314 530 c 2
 16 530 l 2
22 352 m 2
 8 352 1 355 1 369 c 2
 1 464 l 2
 1 474 6 477 17 477 c 2
 317 477 l 2
 330 477 333 472 332 460 c 2
 332 366 l 2
 332 355 327 352 315 352 c 2
 22 352 l 2
15 712 m 2
 4 712 1 716 1 727 c 2
 1 822 l 2
 1 834 5 838 19 837 c 2
 315 837 l 2
 328 837 332 832 332 821 c 2
 332 727 l 2
 332 716 329 712 317 712 c 2
 15 712 l 2
EndSplineSet
EndChar

StartChar: uniE1FC
Encoding: 57852 57852 79
Width: 99
Flags: MW
HStem: -37 103<45 55 31.5 57>
VStem: 0 99<7.5 13 1.5 19>
LayerCount: 2
Fore
SplineSet
57 -37 m 0
 33 -37 0 -4 0 19 c 0
 1 43 21 66 42 66 c 0
 68 66 100 37 99 13 c 0
 99 -10 76 -38 57 -37 c 0
EndSplineSet
EndChar

StartChar: uniE1FD
Encoding: 57853 57853 80
Width: 356
Flags: MW
HStem: -308 49<171 171>
VStem: 0 356<-212.5 -186.5>
LayerCount: 2
Fore
SplineSet
171 -308 m 1
 113 -302 53 -276 12 -215 c 0
 8 -209 6 -204 3 -198 c 0
 2 -195 0 -191 0 -188 c 0
 0 -185 1 -183 5 -181 c 0
 6 -180 7 -180 9 -180 c 0
 13 -180 16 -185 18 -189 c 0
 43 -221 76 -241 115 -251 c 0
 134 -256 153 -259 171 -259 c 0
 221 -259 267 -240 309 -204 c 0
 312 -201 314 -198 317 -196 c 0
 325 -193 329 -180 337 -180 c 0
 339 -180 342 -181 345 -184 c 0
 352 -191 356 -199 356 -209 c 0
 356 -216 353 -224 347 -230 c 0
 301 -274 251 -309 171 -308 c 1
EndSplineSet
EndChar

StartChar: uniE1FE
Encoding: 57854 57854 81
Width: 321
Flags: MW
HStem: 953 47
VStem: 2.5 24.5
LayerCount: 2
Fore
SplineSet
16 777 m 1
 5 791 -1 806 0 821 c 0
 6 872 3 924 5 975 c 0
 6 992 12 998 30 998 c 0
 119 998 206 1000 295 1000 c 0
 319 1000 321 985 321 967 c 0
 321 948 307 948 293 949 c 0
 254 953 214 953 174 953 c 0
 134 953 94 953 54 954 c 0
 34 954 27 950 27 928 c 0
 28 882 25 835 23 789 c 0
 23 785 23 781 16 777 c 1
EndSplineSet
EndChar

StartChar: uniE1FF
Encoding: 57855 57855 82
Width: 346
Flags: MW
HStem: 729 108 1116 102
VStem: 10 326<850 981>
LayerCount: 2
Fore
SplineSet
171 729 m 0
 139 729 106 743 77 762 c 0
 72 765 68 770 63 774 c 0
 27 802 10 832 10 868 c 0
 10 883 13 899 19 917 c 0
 22 925 25 929 29 929 c 0
 33 929 37 926 43 921 c 0
 83 883 124 845 183 837 c 0
 228 831 271 874 285 906 c 0
 291 920 275 943 255 954 c 0
 245 959 235 961 224 961 c 0
 212 961 200 958 188 953 c 0
 170 945 153 934 137 923 c 0
 131 919 124 912 118 917 c 0
 115 919 114 923 114 926 c 0
 114 930 115 934 116 938 c 0
 116 999 149 1044 186 1087 c 1
 204 1112 l 1
 167 1114 131 1116 97 1116 c 0
 83 1116 70 1116 57 1115 c 2
 52 1115 l 2
 43 1115 39 1117 39 1123 c 0
 39 1126 40 1130 42 1136 c 0
 48 1155 52 1175 59 1195 c 0
 65 1209 73 1215 88 1215 c 0
 161 1215 234 1218 308 1218 c 0
 322 1218 328 1214 326 1199 c 0
 323 1168 313 1140 293 1117 c 0
 280 1102 266 1087 251 1070 c 1
 268 1065 285 1066 299 1057 c 0
 320 1044 333 1026 335 1001 c 0
 336 993 336 985 336 977 c 0
 336 896 303 827 249 766 c 0
 226 740 198 729 171 729 c 0
EndSplineSet
EndChar

StartChar: uniE200
Encoding: 57856 57856 83
Width: 308
Flags: MW
HStem: 949 48
VStem: 287 21
LayerCount: 2
Fore
SplineSet
298 775 m 1
 289 802 291 828 289 854 c 0
 286 877 287 902 287 925 c 0
 288 946 278 950 259 950 c 0
 220 949 181 949 142 949 c 0
 102 949 62 948 22 948 c 0
 2 948 0 958 0 975 c 0
 -1 994 8 1000 25 999 c 0
 110 998 195 997 279 997 c 0
 293 996 301 992 302 978 c 0
 305 929 308 879 308 829 c 0
 308 815 307 801 307 787 c 0
 307 783 306 779 298 775 c 1
EndSplineSet
EndChar

StartChar: uniE201
Encoding: 57857 57857 84
Width: 320
Flags: MW
HStem: 1178 41<245 296.5 245 299>
VStem: 8 24<1020.5 1050>
LayerCount: 2
Fore
SplineSet
27 1000 m 1
 15 1015 8 1031 8 1050 c 0
 6 1100 3 1149 0 1198 c 0
 0 1199 0 1201 0 1202 c 0
 0 1214 5 1221 19 1220 c 0
 109 1220 200 1219 290 1219 c 0
 303 1219 311 1216 316 1203 c 0
 318 1196 320 1191 320 1187 c 0
 320 1180 314 1178 299 1178 c 0
 244 1178 189 1178 134 1178 c 0
 107 1178 79 1178 52 1178 c 0
 32 1179 25 1174 27 1154 c 0
 30 1110 31 1066 32 1022 c 0
 32 1019 33 1015 33 1012 c 0
 33 1008 32 1004 27 1000 c 1
EndSplineSet
EndChar

StartChar: uniE202
Encoding: 57858 57858 85
Width: 346
Flags: MW
HStem: 956 108 1343 102
VStem: 10 326<1077 1208>
LayerCount: 2
Fore
SplineSet
171 956 m 0
 139 956 106 970 77 989 c 0
 72 992 68 997 63 1001 c 0
 27 1029 10 1059 10 1095 c 0
 10 1110 13 1126 19 1144 c 0
 22 1152 25 1156 29 1156 c 0
 33 1156 37 1153 43 1148 c 0
 83 1110 124 1072 183 1064 c 0
 228 1058 271 1101 285 1133 c 0
 291 1147 275 1170 255 1181 c 0
 245 1186 235 1188 224 1188 c 0
 212 1188 200 1185 188 1180 c 0
 170 1172 153 1161 137 1150 c 0
 131 1146 124 1139 118 1144 c 0
 115 1146 114 1150 114 1153 c 0
 114 1157 115 1161 116 1165 c 0
 116 1226 149 1271 186 1314 c 1
 204 1339 l 1
 167 1341 131 1343 97 1343 c 0
 83 1343 70 1343 57 1342 c 2
 52 1342 l 2
 43 1342 39 1344 39 1350 c 0
 39 1353 40 1357 42 1363 c 0
 48 1382 52 1402 59 1422 c 0
 65 1436 73 1442 88 1442 c 0
 161 1442 234 1445 308 1445 c 0
 322 1445 328 1441 326 1426 c 0
 323 1395 313 1367 293 1344 c 0
 280 1329 266 1314 251 1297 c 1
 268 1292 285 1293 299 1284 c 0
 320 1271 333 1253 335 1228 c 0
 336 1220 336 1212 336 1204 c 0
 336 1123 303 1054 249 993 c 0
 226 967 198 956 171 956 c 0
EndSplineSet
EndChar

StartChar: uniE203
Encoding: 57859 57859 86
Width: 335
Flags: MW
HStem: 1180 45<11 79>
VStem: 308 23
LayerCount: 2
Fore
SplineSet
324 1000 m 1
 310 1014 302 1030 304 1050 c 0
 306 1086 306 1122 308 1158 c 2
 308 1161 l 2
 308 1172 303 1175 291 1175 c 0
 206 1177 121 1180 37 1180 c 0
 13 1180 8 1197 1 1212 c 0
 0 1214 0 1215 0 1216 c 0
 0 1222 7 1225 15 1225 c 2
 302 1216 l 2
 323 1215 337 1200 335 1175 c 0
 332 1121 333 1066 331 1012 c 0
 331 1008 330 1003 324 1000 c 1
EndSplineSet
EndChar

StartChar: uniE5D0
Encoding: 58832 58832 87
Width: 312
Flags: MW
HStem: -390 418
VStem: -0.380005 312.38
LayerCount: 2
Fore
SplineSet
0 -390 m 1
 0 -361 -1 -337 0 -313 c 0
 1 -294 9 -284 31 -276 c 0
 145 -234 240 -169 275 -46 c 0
 279 -32 280 -16 283 -2 c 0
 286 10 285 28 301 28 c 0
 311 28 310 10 311 -1 c 0
 312 -10 312 -18 312 -27 c 0
 312 -80 299 -131 273 -178 c 0
 213 -286 119 -350 0 -390 c 1
EndSplineSet
EndChar

StartChar: uniE5D1
Encoding: 58833 58833 88
Width: 441
Flags: MW
HStem: 241 44<223 247>
VStem: 0 31<63 68 50.5 83.5> 287 32 409 32<423.5 472.5>
LayerCount: 2
Fore
SplineSet
36 0 m 1
 10 16 0 49 0 77 c 0
 0 90 2 102 6 111 c 0
 13 128 26 137 44 140 c 0
 63 143 82 145 100 150 c 0
 131 158 142 173 144 205 c 0
 148 273 156 281 223 285 c 0
 232 285 240 287 249 288 c 0
 279 293 286 302 287 333 c 0
 287 390 297 404 354 415 c 0
 386 422 409 433 409 470 c 0
 409 475 410 482 418 483 c 0
 423 483 425 478 428 474 c 0
 437 463 441 449 441 436 c 0
 441 411 426 387 400 377 c 0
 386 372 371 370 357 367 c 0
 328 359 318 347 319 317 c 0
 321 260 305 243 247 241 c 0
 240 241 234 241 228 240 c 0
 178 232 178 231 177 181 c 0
 176 137 154 112 111 103 c 0
 102 101 92 100 83 99 c 0
 46 94 31 82 31 54 c 0
 31 47 32 39 34 30 c 0
 36 23 37 17 38 11 c 0
 38 8 37 5 36 0 c 1
EndSplineSet
EndChar

StartChar: uniE5D2
Encoding: 58834 58834 89
Width: 807
Flags: MW
HStem: 214 39<209 219 219 228 209 233> 314 40<304.5 322.5> 430 43
VStem: 0 38<41 54.5 36.5 55> 116 37<170 174.5 123 176> 248 35 772 35<769 816.5>
LayerCount: 2
Fore
SplineSet
35 0 m 0
 32 0 29 5 26 7 c 0
 9 18 0 31 0 51 c 0
 0 59 1 68 4 78 c 0
 10 106 21 115 52 119 c 0
 59 119 66 120 73 121 c 0
 109 125 115 133 116 170 c 0
 116 182 117 195 120 208 c 0
 125 232 140 248 165 251 c 0
 183 253 200 253 218 253 c 0
 238 253 247 263 248 282 c 2
 248 299 l 2
 250 342 262 354 305 354 c 0
 349 354 357 361 364 405 c 0
 372 462 384 472 441 473 c 0
 498 474 512 486 517 542 c 0
 517 549 517 557 518 564 c 0
 523 615 537 631 587 640 c 0
 637 650 645 659 652 710 c 0
 658 751 673 765 714 770 c 0
 719 770 724 771 728 771 c 0
 761 773 770 782 772 815 c 0
 772 818 771 823 771 827 c 0
 771 832 773 837 779 838 c 2
 781 838 l 2
 789 838 792 827 796 821 c 0
 804 808 807 795 807 783 c 0
 807 755 787 733 753 727 c 0
 697 718 696 719 684 660 c 0
 676 616 644 602 606 595 c 0
 562 587 560 584 554 540 c 0
 551 522 550 504 547 486 c 0
 540 451 520 434 485 431 c 0
 475 430 465 430 456 430 c 0
 413 429 403 420 398 377 c 0
 397 369 397 361 395 354 c 0
 386 322 369 311 337 313 c 0
 331 313 325 314 320 314 c 0
 289 314 284 304 283 264 c 0
 282 223 273 215 233 214 c 2
 219 214 l 2
 165 214 153 201 153 148 c 0
 153 98 140 84 90 81 c 0
 52 78 38 69 38 40 c 0
 38 33 39 25 40 16 c 0
 41 11 45 5 38 1 c 0
 37 0 36 0 35 0 c 0
EndSplineSet
EndChar

StartChar: uniE5D3
Encoding: 58835 58835 90
Width: 1159
Flags: MW
HStem: 54 43<59 82.5 57.5 106> 185 42 331 43<308.5 350> 451 46<478.5 483.5 465 499.5> 577 44<568.5 572.5 555 582.5> 702 47 820 46<874.5 899.5> 831 48<811.5 836.5> 967 48<966.5 972.5 954 984> 1054 47<1108.5 1131.5> 1066 47<1049.5 1068.5>
VStem: 115.5 30.5 1025 27<1036 1057>
LayerCount: 2
Fore
SplineSet
33 0 m 1xfed8
 10 15 0 30 0 51 c 0
 0 56 0 61 1 66 c 0
 5 83 15 94 34 96 c 0
 43 97 53 97 62 97 c 0
 103 97 112 104 115 144 c 0
 116 154 115 163 116 173 c 0
 117 204 133 221 164 226 c 0
 167 227 170 227 174 227 c 0
 232 233 246 246 255 304 c 0
 256 314 258 323 260 333 c 0
 268 365 278 376 304 376 c 0
 309 376 314 376 319 375 c 0
 324 375 328 374 332 374 c 0
 368 374 383 391 387 430 c 0
 389 442 390 453 393 463 c 0
 400 490 410 500 432 500 c 0
 437 500 442 500 447 499 c 0
 455 498 462 497 468 497 c 0
 499 497 509 511 516 549 c 0
 517 556 519 564 520 572 c 0
 528 608 540 621 570 621 c 0
 575 621 581 621 587 620 c 0
 592 619 596 619 600 619 c 0
 626 619 636 631 640 661 c 0
 642 679 644 698 649 715 c 0
 656 741 670 750 697 749 c 0
 748 747 750 749 762 800 c 0
 766 820 769 841 782 858 c 0
 792 872 804 879 819 879 c 0
 825 879 831 878 837 876 c 2xfdd8
 859 869 l 2
 866 867 872 866 877 866 c 0
 893 866 902 876 906 897 c 0
 910 915 911 933 913 951 c 0
 920 998 938 1015 970 1015 c 0
 975 1015 980 1015 985 1014 c 0
 990 1013 994 1013 998 1013 c 0
 1022 1013 1027 1024 1025 1055 c 0
 1025 1059 1024 1063 1024 1067 c 0
 1024 1075 1025 1083 1028 1090 c 0
 1033 1105 1043 1113 1056 1113 c 0
 1059 1113 1062 1113 1065 1112 c 0xfeb8
 1069 1112 1073 1110 1077 1109 c 0
 1093 1104 1105 1101 1112 1101 c 0
 1127 1101 1128 1113 1129 1147 c 0
 1130 1156 1127 1170 1139 1171 c 2
 1140 1171 l 2
 1149 1171 1151 1160 1154 1152 c 0
 1158 1140 1159 1128 1159 1116 c 0
 1159 1105 1158 1094 1156 1083 c 0
 1152 1064 1140 1054 1123 1054 c 0
 1118 1054 1114 1055 1109 1056 c 2xfed8
 1086 1062 l 2
 1078 1065 1071 1066 1066 1066 c 0
 1055 1066 1052 1058 1052 1036 c 0
 1053 1031 1053 1025 1053 1019 c 0
 1054 982 1034 963 997 966 c 0
 991 967 986 967 982 967 c 0
 951 967 943 954 942 916 c 0
 942 894 939 871 930 851 c 0
 921 830 909 820 890 820 c 0
 885 820 879 820 873 822 c 0xfeb8
 868 823 864 825 860 826 c 0
 850 829 840 831 833 831 c 0
 811 831 799 817 794 787 c 0xfdd8
 792 775 791 763 788 751 c 0
 779 714 762 701 724 702 c 2
 709 702 l 1
 685 706 676 691 674 671 c 0
 671 650 670 629 664 610 c 0
 656 585 641 573 617 573 c 0
 614 573 611 574 607 574 c 0
 595 576 586 577 579 577 c 0
 558 577 555 567 548 530 c 0
 547 524 545 518 544 512 c 0
 538 471 517 451 482 451 c 0
 475 451 468 452 461 453 c 0
 455 454 450 455 446 455 c 0
 432 455 426 447 422 427 c 0
 418 412 418 395 414 380 c 0
 406 344 378 325 342 329 c 0
 333 330 325 331 319 331 c 0
 298 331 294 322 289 289 c 2
 280 247 l 2
 270 207 249 186 207 185 c 0
 149 183 146 163 146 117 c 0
 146 69 130 54 82 54 c 0
 36 54 36 54 35 7 c 0
 35 5 34 2 33 0 c 1xfed8
EndSplineSet
EndChar

StartChar: uniE5D4
Encoding: 58836 58836 91
Width: 271
Flags: MW
HStem: -50 382<5 264.5>
VStem: 0 271
LayerCount: 2
Fore
SplineSet
9 -50 m 0
 1 -50 1 -42 1 -19 c 0
 0 -16 0 -14 0 -12 c 0
 7 51 -1 46 53 66 c 0
 140 98 192 166 224 251 c 0
 232 272 238 294 243 315 c 0
 246 325 253 332 261 332 c 0
 268 332 268 320 269 313 c 0
 270 304 271 295 271 287 c 0
 271 255 263 225 253 194 c 0
 217 82 149 -1 35 -43 c 0
 22 -47 14 -50 9 -50 c 0
EndSplineSet
EndChar

StartChar: uniE5D5
Encoding: 58837 58837 92
Width: 476
Flags: MW
HStem: -50 383
VStem: -0.270004 476.27
LayerCount: 2
Fore
SplineSet
11 -50 m 0
 2 -50 0 -45 0 -35 c 0
 1 -23 0 -12 0 -1 c 0
 0 53 -8 53 55 62 c 0
 133 73 209 90 280 127 c 0
 356 167 416 223 446 306 c 0
 450 317 454 335 465 333 c 0
 478 330 475 312 476 300 c 0
 480 205 427 138 362 79 c 0
 302 24 227 -5 149 -23 c 0
 106 -33 62 -39 19 -49 c 0
 16 -50 13 -50 11 -50 c 0
EndSplineSet
EndChar

StartChar: uniE5D6
Encoding: 58838 58838 93
Width: 1113
Flags: MW
HStem: -50 434
VStem: 0 1113
LayerCount: 2
Fore
SplineSet
14 -50 m 2
 2 -50 -1 -45 0 -29 c 0
 2 -11 1 8 1 26 c 0
 2 46 11 55 32 56 c 0
 168 62 305 67 441 73 c 0
 548 78 656 77 762 97 c 0
 848 113 930 140 995 205 c 0
 1039 249 1076 298 1090 361 c 0
 1094 376 1094 376 1108 384 c 1
 1111 371 1113 359 1113 346 c 0
 1114 325 1108 304 1101 284 c 0
 1054 149 962 62 827 16 c 0
 721 -20 612 -21 504 -27 c 0
 343 -36 182 -37 22 -50 c 1
 14 -50 l 2
EndSplineSet
EndChar

StartChar: uniE5D7
Encoding: 58839 58839 94
Width: 298
Flags: MW
HStem: -39 104<61.5 84.5>
VStem: 275 23
LayerCount: 2
Fore
SplineSet
275 -344 m 1
 265 -256 231 -180 181 -111 c 0
 148 -66 108 -39 61 -39 c 0
 46 -39 31 -41 14 -47 c 0
 11 -48 9 -48 7 -48 c 0
 1 -48 0 -43 0 -36 c 2
 0 34 l 2
 0 51 14 56 27 60 c 0
 40 64 55 65 68 65 c 0
 120 65 166 41 198 -4 c 0
 247 -72 285 -145 296 -229 c 0
 297 -241 298 -253 298 -265 c 0
 298 -284 297 -302 292 -320 c 0
 290 -329 286 -338 275 -344 c 1
EndSplineSet
EndChar

StartChar: uniE5D8
Encoding: 58840 58840 95
Width: 495
Flags: MW
HStem: -47 104
VStem: 0 495<-324 25.5>
LayerCount: 2
Fore
SplineSet
477 -372 m 1
 453 -314 l 2
 413 -217 335 -162 247 -113 c 0
 175 -73 98 -50 15 -47 c 0
 9 -47 6 -46 5 -40 c 0
 4 -19 0 2 0 23 c 0
 0 28 0 34 1 39 c 0
 2 56 15 58 28 57 c 0
 88 52 147 43 202 18 c 0
 280 -17 357 -57 414 -123 c 0
 459 -175 495 -234 495 -305 c 2
 495 -324 l 2
 494 -341 491 -357 477 -372 c 1
EndSplineSet
EndChar

StartChar: uniE5D9
Encoding: 58841 58841 96
Width: 1105
Flags: MW
HStem: -47 101<235 342 342 345>
VStem: 0 1105<-303.5 26.5>
LayerCount: 2
Fore
SplineSet
1083 -362 m 2
 1076 -362 1076 -354 1073 -349 c 0
 1047 -285 1013 -226 964 -177 c 0
 899 -112 825 -68 730 -62 c 0
 576 -52 422 -47 268 -47 c 0
 202 -47 136 -50 70 -50 c 2
 51 -50 l 2
 1 -52 0 -52 0 0 c 0
 0 53 0 54 51 54 c 2
 342 54 l 2
 479 54 616 51 752 40 c 0
 862 31 947 -24 1014 -108 c 0
 1050 -153 1080 -203 1099 -259 c 0
 1103 -271 1105 -282 1105 -294 c 0
 1105 -313 1100 -331 1094 -350 c 0
 1092 -355 1088 -362 1084 -362 c 2
 1083 -362 l 2
EndSplineSet
EndChar

StartChar: uniE5DA
Encoding: 58842 58842 97
Width: 385
Flags: MW
HStem: 0 434<12 377.5>
VStem: 0 385
LayerCount: 2
Fore
SplineSet
377 0 m 0
 371 0 368 9 364 12 c 2
 46 320 l 2
 20 345 11 380 1 413 c 0
 0 415 0 416 0 418 c 0
 0 424 4 429 8 432 c 0
 10 433 11 434 13 434 c 0
 18 434 21 427 24 423 c 0
 115 335 205 247 295 159 c 2
 349 108 l 2
 373 84 379 53 385 25 c 1
 385 13 l 2
 385 8 385 3 380 1 c 0
 379 1 378 0 377 0 c 0
EndSplineSet
EndChar

StartChar: uniE5DB
Encoding: 58843 58843 98
Width: 849
Flags: MW
HStem: 0 936<11.5 838.5>
VStem: 0 849
LayerCount: 2
Fore
SplineSet
838 0 m 0
 831 0 827 11 822 16 c 2
 392 454 l 2
 269 580 146 705 25 833 c 0
 3 856 0 892 0 925 c 0
 0 928 5 933 9 935 c 0
 10 936 11 936 12 936 c 0
 16 936 17 931 19 929 c 0
 203 741 387 552 571 363 c 0
 652 280 733 196 815 113 c 0
 839 88 845 58 849 33 c 1
 849 20 l 2
 849 10 848 3 841 1 c 0
 840 0 839 0 838 0 c 0
EndSplineSet
EndChar

StartChar: uniE5DC
Encoding: 58844 58844 99
Width: 1319
Flags: MW
HStem: 0 1363<12.5 1309.5>
VStem: 0 1319
LayerCount: 2
Fore
SplineSet
1309 0 m 0
 1303 0 1299 9 1295 13 c 2
 955 348 l 2
 808 493 661 638 515 783 c 0
 362 934 211 1085 58 1235 c 0
 29 1263 15 1297 3 1333 c 0
 1 1338 0 1342 0 1347 c 0
 0 1352 2 1358 8 1361 c 0
 10 1362 12 1363 13 1363 c 0
 20 1363 24 1354 28 1350 c 2
 751 640 l 2
 922 472 1092 303 1263 137 c 0
 1296 105 1321 73 1319 26 c 2
 1319 18 l 2
 1319 11 1318 5 1313 1 c 0
 1311 0 1310 0 1309 0 c 0
EndSplineSet
EndChar

StartChar: uniE5DD
Encoding: 58845 58845 100
Width: 412
Flags: MW
HStem: 61 44<302.5 310.5 296.5 328> 200 46<157.5 162 151.5 177> 303 47<44.5 98>
VStem: 26 9 381 31<25 59 25 64.5>
LayerCount: 2
Fore
SplineSet
406 0 m 1
 387 17 379 34 381 55 c 2
 381 59 l 2
 381 70 375 72 364 69 c 0
 361 68 358 66 355 66 c 0
 343 63 333 61 323 61 c 0
 282 61 257 89 254 140 c 0
 254 156 254 172 253 188 c 0
 253 205 243 210 228 209 c 0
 217 207 206 207 195 204 c 0
 187 201 180 200 174 200 c 0
 141 200 122 231 114 265 c 0
 111 279 114 301 105 307 c 0
 103 309 100 309 96 309 c 0
 85 309 70 303 58 303 c 0
 31 303 0 331 0 359 c 0
 0 382 7 404 16 425 c 0
 19 431 22 434 25 434 c 2
 25 434 26 434 26 434 c 2
 29 434 32 431 35 426 c 0
 40 418 42 411 42 404 c 0
 42 393 39 383 35 373 c 0
 32 365 31 359 31 355 c 0
 31 349 35 347 43 347 c 0
 46 347 50 347 55 348 c 0
 64 349 72 350 79 350 c 0
 117 350 131 331 138 282 c 0
 143 253 144 246 159 246 c 0
 165 246 171 247 180 248 c 0
 188 249 195 249 202 249 c 0
 256 249 278 224 282 160 c 0
 285 118 287 105 306 105 c 0
 315 105 328 108 347 112 c 0
 354 113 360 114 365 114 c 0
 385 114 395 104 402 79 c 0
 407 63 412 47 412 30 c 0
 412 20 410 10 406 0 c 1
EndSplineSet
EndChar

StartChar: uniE5DE
Encoding: 58846 58846 101
Width: 791
Flags: MW
HStem: 80 43<706.5 712 706.5 720> 181 44 281 42<401.5 433> 420 42<286 354> 552 44<198 206 198 218>
VStem: 0 30<762 762.5 758 774> 239 27<484.5 519.5> 363 36<329 388> 500 27 673.5 25.5 755 36<33.5 73>
LayerCount: 2
Fore
SplineSet
776 0 m 1
 760 12 755 26 755 41 c 0
 755 57 760 74 761 90 c 1
 754 88 749 87 744 85 c 0
 733 82 724 80 716 80 c 0
 693 80 680 95 674 128 c 0
 674 131 673 134 673 137 c 0
 670 175 669 182 643 182 c 0
 638 182 631 181 623 181 c 0
 608 181 593 177 577 177 c 0
 527 175 496 209 500 259 c 0
 500 264 501 268 501 272 c 0
 501 285 497 289 487 289 c 0
 483 289 477 288 470 287 c 0
 461 285 453 283 444 282 c 0
 440 282 435 281 431 281 c 0
 389 281 363 307 363 351 c 0
 363 355 364 359 364 363 c 0
 365 376 372 390 372 402 c 0
 372 407 371 411 367 415 c 0
 363 419 357 420 351 420 c 0
 340 420 327 416 316 417 c 0
 271 418 238 452 238 497 c 0
 238 503 239 509 239 516 c 0
 239 523 240 528 240 533 c 0
 240 553 234 552 202 552 c 0
 146 552 118 577 108 634 c 0
 105 649 102 664 101 679 c 0
 98 702 85 711 63 709 c 0
 36 707 18 716 6 741 c 0
 1 749 0 758 0 766 c 0
 0 782 7 798 11 813 c 0
 12 817 15 819 18 819 c 0
 21 819 25 816 27 812 c 0
 31 804 37 795 37 785 c 0
 37 781 36 777 33 772 c 0
 31 768 30 764 30 761 c 0
 30 755 34 751 46 752 c 0
 49 752 52 753 55 753 c 0
 86 753 101 729 113 703 c 0
 125 678 129 650 132 623 c 0
 134 605 144 599 159 598 c 0
 174 596 190 596 206 596 c 0
 244 595 265 575 268 537 c 0
 269 520 269 503 266 486 c 0
 266 483 265 481 265 479 c 0
 265 467 272 463 286 462 c 0
 302 462 318 461 334 462 c 0
 374 464 389 456 397 406 c 0
 398 399 399 392 399 384 c 0
 399 373 397 362 395 351 c 0
 393 344 392 338 392 334 c 0
 392 326 396 323 407 323 c 0
 411 323 416 323 421 324 c 0
 432 325 443 327 454 329 c 0
 461 330 467 331 473 331 c 0
 507 331 523 313 527 272 c 0
 528 267 528 263 528 259 c 0
 528 254 528 250 527 246 c 0
 524 222 536 218 555 220 c 0
 573 222 590 223 608 225 c 0
 666 229 697 203 699 145 c 0
 700 129 703 123 710 123 c 0
 714 123 719 124 725 127 c 0
 736 131 745 134 753 134 c 0
 771 134 781 119 790 84 c 0
 791 80 791 76 791 70 c 0
 791 49 784 18 776 0 c 1
EndSplineSet
EndChar

StartChar: uniE5DF
Encoding: 58847 58847 102
Width: 1179
Flags: MW
HStem: 90 38 210 41 363 43<735 743.5 734 752.5> 377 43<805 808.5> 477.5 43.5 617 41<455.5 458 454 475.5> 627 42<525.5 529.5> 729 40 747 40<416 421.5> 860 38<204.5 235.5> 867 42<277.5 282.5> 983 37<36.5 59.5> 1007 39<152 159>
VStem: 0 30<1029.5 1075> 162 34<937.5 1005.5> 277 33<772 776 772 790.5> 290 36<859.5 861> 426 32<736.5 742> 523 33<523 526 526 532 520.5 545> 534 38<618.5 621.5> 694 32 803 34<270.5 271 263 281.5> 952 38<192 202.5> 1141 38<30.5 73.5>
LayerCount: 2
Fore
SplineSet
1170 0 m 0xed2f6f
 1167 0 1163 2 1158 6 c 0
 1146 15 1141 24 1141 37 c 0
 1141 40 1141 44 1142 48 c 0
 1144 58 1145 66 1145 72 c 0
 1145 86 1139 90 1122 90 c 0
 1117 90 1111 90 1103 89 c 0
 1075 86 1047 81 1019 81 c 0
 976 79 946 109 946 148 c 0
 946 153 947 159 948 164 c 2
 948 167 l 2
 950 180 952 189 952 195 c 0
 952 210 943 210 913 210 c 0
 882 211 852 210 827 233 c 0
 813 247 803 261 803 280 c 0
 803 283 803 286 804 290 c 0
 807 313 809 337 812 361 c 2
 813 368 l 2
 813 374 811 377 806 377 c 0
 804 377 800 376 796 374 c 0xdd2f6f
 788 371 779 370 771 367 c 0
 763 365 756 363 749 363 c 0
 721 363 701 381 696 414 c 0
 693 430 694 447 694 464 c 0
 694 477 688 483 675 481 c 0
 653 478 632 478 610 474 c 0
 606 473 602 473 599 473 c 0
 559 473 523 503 523 543 c 0
 523 547 523 551 524 555 c 0xed2f6f
 527 573 528 592 533 609 c 0
 534 613 534 616 534 619 c 0
 534 624 532 627 527 627 c 0
 524 627 521 626 517 625 c 0
 508 622 498 621 489 619 c 0
 483 618 478 617 473 617 c 0
 438 617 415 641 415 675 c 0
 415 680 416 685 417 691 c 0
 418 698 419 705 421 712 c 0
 424 725 426 734 426 739 c 0
 426 745 424 747 419 747 c 0
 413 747 404 745 390 741 c 0xecaf5f
 378 738 366 734 353 731 c 0
 347 730 341 729 335 729 c 0
 301 729 277 753 277 788 c 0
 277 793 278 799 279 805 c 0xed2f6f
 281 820 284 834 288 847 c 0
 289 851 290 855 290 858 c 0
 290 864 286 867 279 867 c 0
 276 867 273 867 269 866 c 0
 253 862 241 860 230 860 c 0
 205 860 192 872 174 900 c 0
 164 914 162 930 162 945 c 0
 162 953 162 960 163 967 c 0
 164 978 165 986 165 992 c 0
 165 1003 163 1007 155 1007 c 0
 149 1007 139 1004 125 1000 c 0xed2eef
 109 996 93 991 77 986 c 0
 70 984 63 983 56 983 c 0
 29 983 6 1001 2 1031 c 0
 1 1040 0 1048 0 1057 c 0
 0 1093 10 1128 24 1162 c 0
 27 1169 30 1172 34 1172 c 0
 37 1172 40 1169 44 1164 c 0
 50 1156 54 1148 54 1139 c 0
 54 1135 52 1130 50 1124 c 0
 38 1098 35 1069 30 1041 c 1
 30 1034 l 2
 30 1025 33 1020 40 1020 c 0
 43 1020 47 1021 52 1023 c 0xed376f
 76 1031 101 1038 126 1044 c 0
 132 1045 138 1046 143 1046 c 0
 175 1046 196 1023 196 988 c 0
 196 966 195 943 193 922 c 0
 193 921 193 920 193 918 c 0
 193 904 199 898 210 898 c 0
 213 898 216 898 219 899 c 0xed4f6f
 233 902 246 904 259 907 c 0
 266 908 273 909 279 909 c 0
 309 909 326 893 326 863 c 0
 326 856 325 848 323 840 c 2xed2eef
 311 781 l 2
 310 779 310 777 310 775 c 0
 310 769 314 767 323 769 c 0xed2f6f
 348 775 373 781 398 786 c 0
 403 787 407 787 411 787 c 0
 440 787 458 765 458 731 c 0
 458 711 453 693 450 674 c 0
 449 670 449 667 449 665 c 0
 449 660 451 658 457 658 c 0
 459 658 462 658 465 659 c 0xecaf6f
 481 663 498 665 515 668 c 0
 518 669 521 669 524 669 c 0
 551 669 572 647 572 620 c 0
 572 617 572 613 571 610 c 0xeb2f5f
 565 584 560 558 556 532 c 1
 556 526 l 2
 556 515 562 515 572 516 c 0
 599 517 625 521 651 521 c 0
 697 521 724 493 726 446 c 0
 727 416 728 406 740 406 c 0xed2f6f
 747 406 758 409 774 414 c 0
 788 418 799 420 809 420 c 0
 836 420 847 404 847 367 c 0xdd2f6f
 847 337 844 308 838 279 c 0
 838 276 837 272 837 270 c 0
 837 256 843 251 859 251 c 0
 883 251 908 250 932 249 c 0
 965 249 990 225 990 192 c 0
 990 175 988 159 983 143 c 0
 981 138 981 134 981 131 c 0
 981 119 990 116 1005 118 c 0
 1037 122 1070 126 1103 128 c 0
 1147 130 1179 97 1179 50 c 0
 1179 39 1178 27 1178 16 c 0
 1177 6 1175 0 1170 0 c 0xed2f6f
EndSplineSet
EndChar

StartChar: uniE5E0
Encoding: 58848 58848 103
Width: 289
Flags: MW
HStem: -20 420
VStem: 0 289
LayerCount: 2
Fore
SplineSet
270 -20 m 1
 252 25 239 66 220 106 c 0
 190 170 155 231 94 272 c 0
 73 286 49 292 25 293 c 0
 8 294 -2 299 0 319 c 0
 1 324 1 328 1 333 c 0
 1 347 0 361 0 374 c 0
 1 392 10 401 29 400 c 0
 81 400 121 379 154 340 c 0
 220 262 267 174 285 73 c 0
 287 62 289 50 289 39 c 0
 289 19 284 -1 270 -20 c 1
EndSplineSet
EndChar

StartChar: uniE5E1
Encoding: 58849 58849 104
Width: 402
Flags: MW
HStem: 0 361
VStem: 0 29<175.5 199 199 252>
LayerCount: 2
Fore
SplineSet
402 0 m 1
 29 252 l 1
 29 199 l 2
 29 152 28 105 28 58 c 0
 28 42 26 28 12 14 c 1
 1 39 1 64 0 87 c 2
 0 331 l 2
 0 343 2 354 14 359 c 0
 16 360 18 361 20 361 c 0
 27 361 31 354 36 350 c 0
 143 269 249 188 355 106 c 0
 387 81 402 47 402 0 c 1
EndSplineSet
EndChar

StartChar: uniE5E2
Encoding: 58850 58850 105
Width: 334
Flags: MW
HStem: 0 92<212 280.5>
VStem: 0 334
LayerCount: 2
Fore
SplineSet
223 0 m 0
 201 0 177 6 148 18 c 0
 127 26 109 40 90 51 c 0
 82 56 75 58 68 58 c 0
 58 58 50 54 41 44 c 0
 31 33 22 20 0 18 c 1
 22 62 41 103 76 133 c 0
 90 145 103 151 117 151 c 0
 129 151 143 145 159 135 c 0
 185 120 209 103 238 97 c 0
 250 95 262 92 274 92 c 0
 287 92 300 95 312 103 c 0
 318 107 325 110 330 107 c 0
 333 105 334 102 334 99 c 0
 334 95 332 91 330 87 c 0
 303 30 271 0 223 0 c 0
EndSplineSet
EndChar

StartChar: uniE5E3
Encoding: 58851 58851 106
Width: 381
Flags: MW
HStem: 0 104<196 221.5 180.5 228>
VStem: 0 32<263 265 238.5 292.5> 350 31
LayerCount: 2
Fore
SplineSet
207 0 m 0
 185 0 162 3 139 7 c 0
 107 12 75 19 47 37 c 0
 14 58 1 87 2 123 c 0
 3 135 3 146 3 158 c 0
 3 200 0 242 0 284 c 0
 0 301 1 317 2 334 c 0
 2 338 2 342 3 346 c 0
 4 356 10 364 19 363 c 0
 26 363 25 352 26 345 c 0
 31 313 32 281 32 249 c 0
 32 228 32 208 31 187 c 0
 31 160 43 144 64 135 c 0
 110 116 157 104 204 104 c 0
 239 104 275 111 310 126 c 0
 336 138 351 153 351 183 c 0
 351 196 350 208 350 221 c 0
 350 258 352 295 353 332 c 0
 353 339 354 346 355 353 c 0
 357 361 364 367 370 367 c 0
 378 367 376 358 377 352 c 0
 380 335 381 319 381 301 c 0
 381 274 379 246 378 214 c 0
 377 205 377 195 377 185 c 2
 377 150 l 2
 377 132 377 113 373 94 c 0
 368 64 348 49 328 35 c 0
 290 10 249 0 207 0 c 0
EndSplineSet
EndChar

StartChar: uniE5E4
Encoding: 58852 58852 107
Width: 646
Flags: MW
HStem: 0 212<147 221>
VStem: 0 646
LayerCount: 2
Fore
SplineSet
215 0 m 0
 203 0 191 8 175 23 c 0
 152 45 129 67 109 92 c 0
 103 99 98 103 94 103 c 0
 90 103 86 99 80 91 c 0
 68 75 52 61 37 46 c 0
 31 40 22 35 10 35 c 0
 7 35 4 35 0 36 c 1
 14 55 25 72 38 88 c 0
 66 123 95 158 123 194 c 0
 133 206 142 212 152 212 c 0
 161 212 170 207 180 196 c 0
 208 168 236 139 262 109 c 0
 268 102 272 99 277 99 c 0
 281 99 286 102 292 108 c 0
 316 132 343 154 366 179 c 0
 386 200 403 209 419 209 c 0
 438 209 457 196 480 174 c 0
 500 154 526 138 537 108 c 0
 539 102 543 100 548 100 c 0
 553 100 559 103 564 106 c 0
 578 116 592 127 605 138 c 0
 613 145 622 149 633 149 c 0
 637 149 641 148 646 147 c 1
 641 129 632 115 620 102 c 0
 594 73 564 50 531 30 c 0
 517 21 501 17 486 17 c 0
 460 17 434 29 415 50 c 0
 399 68 380 83 364 100 c 0
 359 105 356 107 352 107 c 0
 348 107 344 105 340 101 c 0
 317 79 294 59 270 38 c 0
 265 34 260 28 255 23 c 0
 239 7 227 0 215 0 c 0
EndSplineSet
EndChar

StartChar: uniE5E5
Encoding: 58853 58853 108
Width: 274
Flags: MW
HStem: 112 42<111.5 119> 114 45<239.5 258 232 262>
VStem: 116 33<34 40> 123 30.5
LayerCount: 2
Fore
SplineSet
141 0 m 0x60
 136 0 133 8 128 11 c 0
 119 18 116 28 116 40 c 2
 119 112 l 1
 104 112 90 112 75 111 c 0
 61 111 47 110 32 109 c 0xa0
 21 109 13 109 7 121 c 0
 2 131 0 138 0 143 c 0
 0 152 8 154 27 154 c 2
 120 154 l 1x90
 123 242 l 1
 123 249 l 2
 123 254 124 258 128 259 c 0
 129 259 130 260 131 260 c 0
 137 260 141 253 145 248 c 0
 152 239 156 228 155 215 c 2
 152 158 l 1
 184 158 216 159 248 159 c 0x50
 268 159 272 145 274 131 c 2
 274 128 l 2
 274 115 266 114 258 114 c 0
 221 114 186 113 150 112 c 0
 150 110 150 108 149 106 c 2
 149 19 l 1
 150 9 l 2
 150 6 149 3 145 1 c 0
 144 0 143 0 141 0 c 0x60
EndSplineSet
EndChar

StartChar: uniE5E6
Encoding: 58854 58854 109
Width: 315
Flags: MW
HStem: 0 43<150 150 150 161 150 185> 120 43<68.5 76 76 119> 122 45<238.5 249 249 259 152 260.5> 264 45<157 160 133 168.5>
VStem: 2 28<118 157> 119 31<120 120> 121 32.5 287 28<96 155>
LayerCount: 2
Fore
SplineSet
161 0 m 2xbb
 69 0 4 59 2 143 c 0
 0 150 0 154 2 157 c 2
 2 158 l 2
 4 196 25 226 49 253 c 2
 60 263 l 2
 94 292 119 309 147 309 c 0
 173 309 201 296 243 266 c 0
 282 238 307 198 314 149 c 0
 315 143 315 137 315 131 c 0
 315 61 253 5 185 0 c 1
 161 0 l 2xbb
117 45 m 1xdd
 117 49 l 2
 118 73 118 96 119 120 c 1
 76 120 l 2
 61 120 47 119 33 118 c 2
 30 118 l 1
 31 86 51 63 90 51 c 2
 117 45 l 1xdd
40 163 m 1xdb
 121 163 l 1
 121 192 122 221 123 250 c 2
 123 252 l 1
 86 232 57 202 40 163 c 1xdb
150 43 m 1xbd
 203 45 247 64 275 113 c 0
 282 126 287 140 287 155 c 0
 286 176 278 197 261 214 c 0
 246 230 229 243 209 251 c 0
 194 257 177 264 160 264 c 0
 154 264 148 264 142 261 c 1
 145 257 l 2
 153 247 156 236 155 224 c 2
 152 167 l 1
 173 167 194 167 215 167 c 0
 227 167 237 167 249 167 c 0xbb
 269 167 272 154 274 139 c 0
 275 138 275 137 275 136 c 0
 275 123 265 122 256 122 c 0
 221 122 186 121 150 121 c 1
 150 43 l 1xbd
EndSplineSet
EndChar

StartChar: uniE5E7
Encoding: 58855 58855 110
Width: 312
Flags: MW
HStem: 0 43<136 146 136 160 136 184> 265 44<154.5 158.5 131 166.5>
VStem: 1 27<119 124.5 119 169.5> 285 28<147.5 149 131 165.5>
LayerCount: 2
Fore
SplineSet
160 0 m 2
 65 0 1 61 1 148 c 0
 1 191 21 224 48 253 c 0
 51 256 55 259 58 263 c 0
 92 292 117 309 145 309 c 0
 172 309 200 296 242 266 c 0
 281 238 306 198 313 149 c 1
 313 131 l 2
 314 61 252 5 184 0 c 1
 160 0 l 2
146 43 m 0
 200 44 246 63 273 113 c 0
 281 126 285 140 285 155 c 0
 285 176 276 197 260 214 c 0
 245 230 228 243 208 251 c 0
 192 257 175 265 158 265 c 0
 151 265 144 264 137 260 c 0
 90 239 55 205 36 157 c 0
 31 143 28 130 28 119 c 0
 29 87 49 63 89 51 c 0
 107 46 126 43 146 43 c 0
EndSplineSet
EndChar

StartChar: uniE5E8
Encoding: 58856 58856 111
Width: 284
Flags: MW
HStem: 108 43<283 341 281 342> 112 42<-64.5 -63>
VStem: 124 29<296 305 294 331 294 332.5> 126 32
LayerCount: 2
Fore
SplineSet
154 -83 m 1x50
 133 -70 124 -53 125 -28 c 0
 125 -18 126 -8 126 3 c 1
 90 7 62 25 41 53 c 0
 27 72 12 90 4 111 c 1
 -15 112 -34 112 -53 113 c 2
 -63 112 l 2
 -66 112 -69 113 -71 116 c 0
 -77 125 -84 134 -85 145 c 2
 -85 146 l 2
 -85 155 -77 154 -69 154 c 2
 1 154 l 1x50
 10 220 59 271 117 294 c 0
 119 295 122 296 124 296 c 1
 124 331 l 2
 124 334 123 338 123 342 c 0
 123 346 124 349 128 351 c 0
 129 351 130 352 131 352 c 0
 138 352 142 343 145 337 c 0
 151 328 153 317 153 305 c 2
 153 294 l 1
 213 279 273 212 283 151 c 1
 342 151 l 2
 346 151 351 151 355 146 c 0
 361 139 365 131 365 122 c 0
 365 109 359 107 353 107 c 0
 349 107 345 108 341 108 c 2
 281 108 l 1xa0
 267 52 209 4 157 1 c 1
 157 -19 158 -40 158 -61 c 0
 158 -64 159 -67 159 -70 c 0
 159 -74 158 -79 154 -83 c 1x50
EndSplineSet
EndChar

StartChar: uniE5E9
Encoding: 58857 58857 112
Width: 306
Flags: MW
HStem: 2 44<179 179> 113 43<305 363 265 304> 117 42<-42.5 -41 -4 -3 -47 1> 245 44<175 204.5>
VStem: 146 29<289 310> 147 33<-57.5 1> 280 25
LayerCount: 2
Fore
SplineSet
176 -78 m 1xd6
 155 -65 146 -48 147 -23 c 2
 147 1 l 1
 115 3 83 15 54 40 c 0xc6
 41 51 30 63 20 77 c 0
 11 90 5 103 1 117 c 1
 -9 117 -20 117 -31 118 c 2
 -41 117 l 2
 -44 117 -47 118 -49 121 c 0
 -55 130 -62 139 -63 150 c 2
 -63 151 l 2
 -63 160 -55 159 -47 159 c 2
 -3 159 l 1
 0 196 21 230 59 252 c 0
 86 268 116 282 146 287 c 1
 146 336 l 2
 146 339 145 343 145 347 c 0
 145 351 146 354 150 356 c 0
 151 356 152 357 153 357 c 0
 160 357 164 348 167 342 c 0
 173 333 175 322 175 310 c 2
 175 289 l 1xba
 179 289 183 289 188 288 c 0
 260 279 299 236 305 156 c 1
 364 156 l 2
 368 156 373 156 377 151 c 0
 383 144 387 136 387 127 c 0
 387 114 381 112 375 112 c 0
 371 112 367 113 363 113 c 2
 304 113 l 1
 300 76 283 36 233 16 c 0
 215 8 197 4 179 2 c 1
 179 -17 180 -37 180 -56 c 0
 180 -59 181 -62 181 -65 c 0
 181 -69 180 -74 176 -78 c 1xd6
178 46 m 0
 179 46 180 46 182 47 c 0
 227 58 254 79 268 113 c 1
 245 114 223 114 200 114 c 0
 176 114 176 114 177 91 c 0
 177 76 177 61 178 46 c 0
278 156 m 1
 279 167 280 178 280 190 c 0
 279 201 275 212 265 219 c 0
 242 235 218 245 191 245 c 0
 186 245 180 245 175 244 c 1
 175 222 176 200 176 179 c 0
 176 157 176 157 199 157 c 0x5a
 225 156 252 156 278 156 c 1
EndSplineSet
EndChar

StartChar: uniE5EA
Encoding: 58858 58858 113
Width: 293
Flags: MW
HStem: 111 43<294 339 294 294> 116 41<-55 -55> 241 50<122 151>
VStem: 0 30 122 29<291 308 291 334 291 335.5> 124 32
LayerCount: 2
Fore
SplineSet
152 -80 m 1x84
 131 -67 122 -50 123 -25 c 0
 123 -16 124 -7 124 3 c 1x94
 69 14 14 64 2 114 c 1
 -17 115 -36 115 -55 116 c 2
 -65 115 l 2
 -68 115 -71 116 -73 119 c 0
 -79 128 -86 137 -87 148 c 2
 -87 149 l 2
 -87 158 -79 157 -71 157 c 2
 0 157 l 1
 7 230 53 282 122 290 c 1
 122 334 l 2
 122 337 121 341 121 345 c 0
 121 349 122 352 126 354 c 0
 127 354 128 355 129 355 c 0
 136 355 140 346 143 340 c 0
 149 331 151 320 151 308 c 2
 151 291 l 1x78
 217 287 280 232 293 154 c 1
 340 154 l 2
 344 154 349 154 353 149 c 0
 359 142 363 134 363 125 c 0
 363 112 357 110 351 110 c 0
 347 110 343 111 339 111 c 2
 294 111 l 1
 286 49 228 4 155 0 c 1
 155 -19 156 -38 156 -58 c 0
 156 -61 157 -64 157 -67 c 0
 157 -71 156 -76 152 -80 c 1x84
116 43 m 0x54
 119 42 121 42 123 43 c 2
 123 98 l 2
 123 109 118 112 106 112 c 0
 81 113 56 113 30 114 c 1
 30 102 31 91 39 82 c 0
 60 60 85 46 116 43 c 0x54
104 155 m 0x68
 122 155 123 155 123 174 c 2
 123 241 l 1
 121 241 119 241 117 240 c 0
 71 228 44 199 35 156 c 1
 61 156 l 2
 75 156 90 155 104 155 c 0x68
EndSplineSet
EndChar

StartChar: uniE5EB
Encoding: 58859 58859 114
Width: 298
Flags: MW
HStem: 0 44<149 149> 115 43<299 333 299 299> 120 41<-84.5 -61> 255 43<145 152 145 145>
VStem: 1 37<160 164> 117 29<178 193 170 251> 117 33<-55.5 -16.5> 269 29<158 158>
LayerCount: 2
Fore
SplineSet
146 -76 m 1xad
 125 -63 116 -46 117 -21 c 0
 117 -12 117 -3 118 6 c 1
 62 21 20 64 6 118 c 1
 -16 119 -38 119 -61 120 c 2
 -71 119 l 2
 -74 119 -77 120 -79 123 c 0
 -85 132 -92 141 -93 152 c 2
 -93 153 l 2
 -93 160 -88 161 -81 161 c 0
 -54 161 -26 161 1 160 c 1
 1 168 2 176 3 185 c 0
 13 242 57 285 111 297 c 1
 116 297 l 1
 116 338 l 2
 116 341 115 345 115 349 c 0
 115 353 116 356 120 358 c 0
 121 358 122 359 123 359 c 0
 130 359 134 350 137 344 c 0
 143 335 145 324 145 312 c 2
 145 298 l 1xbd
 191 295 240 269 264 232 c 0
 279 209 292 185 298 158 c 1
 334 158 l 2
 338 158 343 158 347 153 c 0
 353 146 357 138 357 129 c 0
 357 116 351 114 345 114 c 0
 341 114 337 115 333 115 c 2
 299 115 l 1
 292 61 248 10 190 2 c 0
 176 0 162 -1 149 0 c 1
 149 -18 150 -36 150 -54 c 0
 150 -57 151 -60 151 -63 c 0xdb
 151 -67 150 -72 146 -76 c 1xad
117 46 m 1xdd
 117 102 l 2
 117 113 112 116 100 116 c 0
 78 117 56 117 34 117 c 1
 36 84 51 65 85 54 c 0
 95 50 106 48 117 46 c 1xdd
98 159 m 0
 116 159 117 159 117 178 c 2
 117 251 l 1
 72 239 44 200 38 160 c 1
 55 160 l 2
 69 160 84 159 98 159 c 0
148 44 m 1
 157 44 165 45 174 47 c 0
 213 56 244 82 260 115 c 1
 230 116 200 116 170 116 c 0
 146 116 146 116 147 93 c 0
 147 76 148 60 148 44 c 1
269 158 m 1
 270 205 239 238 183 251 c 0
 173 254 162 254 152 255 c 2
 145 255 l 1
 145 230 146 205 146 181 c 0
 146 159 146 160 169 159 c 0
 202 158 236 158 269 158 c 1
EndSplineSet
EndChar

StartChar: uniE5EC
Encoding: 58860 58860 115
Width: 382
Flags: MW
HStem: 0 394
VStem: 0 382<31 368>
LayerCount: 2
Fore
SplineSet
29 0 m 1
 17 6 8 14 2 25 c 0
 0 28 0 30 0 32 c 0
 0 38 6 41 11 46 c 0
 115 162 233 264 339 379 c 0
 344 385 349 394 357 394 c 0
 360 394 364 392 369 388 c 0
 378 380 382 372 382 364 c 0
 382 357 379 350 372 343 c 0
 298 268 226 191 149 119 c 0
 115 87 83 52 51 17 c 0
 45 11 36 6 29 0 c 1
EndSplineSet
EndChar

StartChar: uniE5ED
Encoding: 58861 58861 116
Width: 860
Flags: MW
HStem: 0 866.34
VStem: 0 860
LayerCount: 2
Fore
SplineSet
30 0 m 0
 21 0 14 9 7 15 c 0
 2 19 0 23 0 26 c 0
 0 33 9 38 14 43 c 0
 127 153 242 260 355 371 c 0
 514 527 670 686 820 851 c 0
 826 858 830 871 842 865 c 0
 853 859 856 846 860 835 c 1
 859 823 851 816 844 808 c 0
 774 730 700 655 628 577 c 0
 478 416 314 268 157 113 c 0
 121 78 82 46 47 10 c 0
 40 3 35 0 30 0 c 0
EndSplineSet
EndChar

StartChar: uniE5EE
Encoding: 58862 58862 117
Width: 1302
Flags: MW
HStem: 0.75 1310.25
VStem: 0 1302<25 1286>
LayerCount: 2
Fore
SplineSet
31 1 m 0
 21 6 7 8 1 20 c 0
 0 23 0 24 0 26 c 0
 0 33 8 39 13 44 c 0
 79 108 146 170 208 237 c 0
 399 444 611 629 810 828 c 0
 963 981 1116 1133 1261 1293 c 0
 1266 1299 1271 1311 1279 1311 c 0
 1282 1310 1286 1309 1290 1305 c 0
 1298 1299 1302 1290 1302 1282 c 0
 1302 1274 1299 1266 1292 1259 c 0
 1067 1010 827 776 584 544 c 0
 490 454 395 365 305 271 c 0
 241 203 175 138 110 72 c 0
 88 49 60 32 42 5 c 0
 40 1 37 -1 31 1 c 0
EndSplineSet
EndChar

StartChar: uniE5EF
Encoding: 58863 58863 118
Width: 301
Flags: MW
HStem: 0 45<138 160.5 138 163.5> 254 46
VStem: 0 31<149.5 164.5 126.5 196.5> 269 32<163.5 175.5 124 188.5>
LayerCount: 2
Fore
SplineSet
156 0 m 0
 107 0 61 27 28 77 c 0
 9 105 0 135 0 164 c 0
 0 229 47 286 126 297 c 0
 137 299 149 299 158 300 c 0
 202 297 246 305 271 261 c 0
 290 228 301 194 301 157 c 0
 301 91 258 26 201 8 c 0
 186 3 171 0 156 0 c 0
45 88 m 1
 46 89 l 1
 106 142 165 195 225 249 c 1
 210 253 195 254 181 254 c 0
 167 254 154 253 141 252 c 0
 82 249 31 194 31 135 c 0
 31 118 36 102 45 88 c 1
145 45 m 0
 176 45 205 55 228 81 c 0
 255 111 269 145 269 182 c 0
 269 195 267 208 264 221 c 1
 256 212 l 1
 198 161 140 109 83 58 c 1
 89 55 95 52 102 51 c 0
 117 47 131 45 145 45 c 0
EndSplineSet
EndChar

StartChar: uniE870
Encoding: 59504 59504 119
Width: 506
Flags: MW
HStem: 0 66 424 76<212 307>
VStem: 0 92 414 92<192 195 125 243.5>
LayerCount: 2
Fore
SplineSet
276 0 m 0
 220 3 155 36 97 81 c 0
 64 106 36 136 19 174 c 0
 6 203 0 231 0 260 c 0
 0 292 8 325 22 357 c 0
 52 427 100 477 176 495 c 0
 191 499 205 500 219 500 c 0
 258 500 294 487 328 465 c 0
 407 413 464 346 494 255 c 0
 502 230 506 206 506 184 c 0
 506 66 400 -1 276 0 c 0
236 66 m 1
 337 67 414 146 414 238 c 0
 414 249 412 260 410 272 c 0
 405 300 392 327 378 351 c 0
 351 400 326 424 288 424 c 0
 270 424 250 419 225 409 c 0
 139 374 101 304 92 218 c 0
 85 150 162 58 236 66 c 1
EndSplineSet
EndChar

StartChar: uniE871
Encoding: 59505 59505 120
Width: 472
Flags: MW
HStem: 0 73<181 267>
VStem: 0 84 386 85<223.5 232.5 197 266.5>
LayerCount: 2
Fore
SplineSet
-20 -33 m 0
 -23 -33 -26 -32 -29 -29 c 0
 -31 -27 -32 -25 -32 -23 c 0
 -32 -17 -24 -11 -21 -5 c 0
 0 32 30 60 61 89 c 1
 21 123 -1 169 0 225 c 0
 -3 257 6 285 19 312 c 0
 50 377 97 429 157 470 c 0
 174 481 191 488 209 488 c 0
 222 488 237 484 251 475 c 0
 276 459 304 450 332 440 c 0
 352 433 368 421 383 406 c 1
 458 480 l 2
 465 487 472 492 480 492 c 0
 483 492 487 491 491 489 c 0
 494 487 496 485 496 480 c 0
 496 478 496 475 495 471 c 0
 494 462 486 449 475 439 c 2
 411 376 l 2
 411 375 412 375 412 374 c 0
 454 324 471 264 471 201 c 0
 471 193 470 186 470 179 c 0
 466 98 386 31 316 9 c 0
 296 3 276 0 258 0 c 0
 196 0 144 30 93 65 c 1
 66 39 39 13 12 -14 c 0
 8 -17 5 -22 0 -25 c 0
 -6 -28 -13 -33 -20 -33 c 0
195 73 m 0
 233 73 267 85 298 107 c 0
 349 144 386 190 386 257 c 0
 386 276 383 296 380 316 c 0
 378 324 376 331 373 338 c 1
 146 117 l 2
 139 109 131 102 124 95 c 1
 143 81 167 73 195 73 c 0
98 124 m 1
 181 207 265 289 348 372 c 1
 325 394 293 407 262 404 c 0
 256 403 249 402 244 399 c 0
 172 351 113 292 89 206 c 0
 86 195 84 184 84 174 c 0
 84 156 89 139 98 124 c 1
EndSplineSet
EndChar

StartChar: uniE872
Encoding: 59506 59506 121
Width: 530
Flags: MW
HStem: 227 72<271 517.5> 232 72<207 229 20 230>
VStem: 227 41<407 514> 231 45<94.5 133>
LayerCount: 2
Fore
SplineSet
264 0 m 1x90
 260 3 255 5 254 9 c 0
 242 44 231 76 231 113 c 0
 231 153 231 192 230 232 c 1x50
 184 232 138 233 91 235 c 0
 59 236 31 256 5 277 c 0
 1 280 0 283 0 287 c 0
 0 291 2 295 3 299 c 0
 5 307 14 304 20 304 c 2
 229 304 l 1x60
 228 346 228 388 227 431 c 0
 227 459 228 486 227 514 c 0
 227 527 234 534 243 538 c 0
 245 539 246 539 248 539 c 0
 256 539 258 529 261 523 c 0
 270 510 274 494 274 479 c 0
 274 473 273 467 272 461 c 0
 269 448 268 434 268 421 c 0
 268 393 272 365 271 337 c 2
 271 299 l 1xa0
 441 299 l 2
 478 299 504 279 524 251 c 0
 528 246 530 242 530 238 c 0
 530 231 524 227 511 227 c 0
 433 229 355 230 276 231 c 1
 276 32 l 2
 276 25 276 17 273 10 c 0
 271 6 267 3 264 0 c 1x90
EndSplineSet
EndChar

StartChar: uniE873
Encoding: 59507 59507 122
Width: 593
Flags: MW
HStem: 10 92
VStem: 0 593
LayerCount: 2
Fore
SplineSet
76 0 m 2
 71 0 66 1 62 7 c 0
 45 35 21 60 5 89 c 0
 2 94 0 99 0 104 c 0
 0 110 2 115 5 120 c 0
 89 263 172 406 256 550 c 0
 263 563 269 569 276 569 c 0
 283 569 291 562 302 546 c 0
 333 500 362 453 392 406 c 0
 450 317 507 228 564 139 c 0
 580 115 587 89 593 68 c 1
 594 44 588 36 569 35 c 0
 494 30 420 24 345 19 c 2
 86 1 l 1
 76 0 l 2
113 102 m 0
 117 102 121 104 124 103 c 0
 249 113 373 123 496 132 c 0
 507 133 511 136 511 140 c 0
 511 143 508 148 505 153 c 0
 442 251 380 349 318 448 c 0
 314 455 310 458 307 458 c 0
 303 458 300 455 296 447 c 0
 235 339 174 232 114 124 c 0
 110 118 102 113 106 106 c 0
 108 103 110 102 113 102 c 0
EndSplineSet
EndChar

StartChar: uniE874
Encoding: 59508 59508 123
Width: 482
Flags: MW
HStem: 193 57
VStem: 0 481.35
LayerCount: 2
Fore
SplineSet
117 193 m 0
 80 193 46 202 13 218 c 0
 2 223 0 231 0 241 c 0
 1 254 12 250 19 250 c 2
 392 265 l 2
 421 267 445 254 468 240 c 0
 476 235 484 225 481 216 c 0
 478 208 467 211 459 210 c 0
 406 208 353 205 299 202 c 1
 299 203 l 1
 245 200 191 199 137 194 c 0
 130 193 123 193 117 193 c 0
EndSplineSet
EndChar

StartChar: uniE875
Encoding: 59509 59509 124
Width: 155
Flags: MW
HStem: 0 1034<144.5 164.5 147 164.5>
VStem: 0 57<514 619.5>
LayerCount: 2
Fore
SplineSet
147 0 m 2
 142 0 139 5 136 8 c 0
 124 27 110 46 100 67 c 0
 66 138 43 213 25 290 c 0
 11 350 1 412 1 470 c 0
 1 481 1 491 2 501 c 0
 0 521 0 541 0 560 c 0
 0 679 28 790 79 897 c 0
 97 935 110 975 134 1010 c 0
 141 1019 147 1034 157 1034 c 0
 172 1034 176 1016 180 1002 c 0
 183 991 185 980 185 970 c 0
 185 952 180 935 170 916 c 0
 119 822 83 721 63 615 c 0
 58 587 57 559 57 531 c 0
 57 497 59 462 60 428 c 0
 62 329 86 235 116 141 c 0
 126 111 143 86 153 56 c 0
 156 46 159 36 159 26 c 0
 159 22 159 17 157 12 c 0
 155 7 155 1 149 0 c 2
 147 0 l 2
EndSplineSet
EndChar

StartChar: uniE876
Encoding: 59510 59510 125
Width: 189
Flags: MW
HStem: 0.309998 1057.69
VStem: 144 44
LayerCount: 2
Fore
SplineSet
21 1 m 0
 17 2 14 13 13 20 c 0
 12 48 13 76 32 99 c 0
 77 158 90 229 115 296 c 0
 133 342 144 389 144 438 c 0
 144 446 144 455 143 464 c 0
 139 515 128 565 113 613 c 0
 95 673 75 733 47 790 c 0
 24 836 0 882 -25 927 c 0
 -36 947 -40 965 -40 984 c 0
 -40 1000 -37 1017 -32 1034 c 0
 -30 1044 -23 1056 -11 1057 c 0
 -11 1058 -10 1058 -10 1058 c 1
 1 1058 3 1045 7 1038 c 0
 89 899 137 748 171 592 c 0
 181 542 191 492 188 463 c 0
 186 349 166 263 131 179 c 0
 115 142 101 106 85 69 c 0
 75 47 60 28 44 10 c 0
 38 4 29 -2 21 1 c 0
EndSplineSet
EndChar

StartChar: uniE877
Encoding: 59511 59511 126
Width: 328
Flags: MW
HStem: 9 107<116.5 184 145 167 167 184 184 191 145 199> 695 112<283.5 309.5>
VStem: 20 110
LayerCount: 2
Fore
SplineSet
47 2 m 0
 39 2 37 8 37 15 c 0
 38 30 38 46 39 61 c 0
 34 171 20 281 20 391 c 0
 20 402 20 412 20 422 c 0
 20 436 21 451 21 465 c 0
 21 536 16 606 9 677 c 1
 2 681 0 688 0 701 c 0
 0 720 0 739 1 759 c 0
 1 778 12 783 28 784 c 0
 120 791 212 799 305 807 c 0
 314 807 319 806 322 796 c 0
 326 785 328 773 328 761 c 0
 328 745 324 728 317 713 c 0
 311 698 300 695 288 695 c 0
 279 695 270 696 262 696 c 2
 115 684 l 1
 130 566 129 448 130 330 c 0
 131 258 138 187 145 116 c 1
 184 116 l 2
 198 116 213 115 227 115 c 0
 253 115 279 116 305 121 c 0
 307 121 308 121 310 121 c 0
 317 121 321 117 324 108 c 0
 326 100 328 92 328 84 c 0
 328 48 302 17 263 12 c 0
 242 9 220 9 199 9 c 0
 188 9 178 9 167 9 c 0
 154 9 142 9 129 9 c 0
 104 9 78 8 53 3 c 0
 51 2 49 2 47 2 c 0
EndSplineSet
EndChar

StartChar: uniE878
Encoding: 59512 59512 127
Width: 600
Flags: MW
HStem: 725 104<51 79>
VStem: 180 104<439 506.5 425.5 508.5> 184 104<652 674.5> 196 110
LayerCount: 2
Fore
SplineSet
73 0 m 2xc0
 23 0 23 0 20 51 c 2
 20 56 l 2
 19 102 19 102 66 105 c 0
 110 108 154 112 198 118 c 1x90
 197 135 195 152 194 169 c 0
 188 277 180 385 180 493 c 0xc0
 180 524 180 556 182 587 c 0
 183 613 184 639 184 665 c 0
 184 684 183 702 183 721 c 1xa0
 141 722 100 725 58 725 c 0
 44 725 29 725 15 724 c 0
 4 724 0 729 1 739 c 0
 3 759 2 780 4 801 c 0
 7 824 19 830 39 829 c 2
 149 829 l 1
 149 826 l 1
 174 826 198 826 223 826 c 0
 235 826 247 826 259 826 c 0
 283 828 287 813 286 795 c 2
 286 788 l 2xc0
 288 782 288 775 288 768 c 2
 288 639 l 2
 288 632 289 624 289 616 c 0xa0
 289 577 284 530 284 483 c 0xc0
 284 368 293 254 301 139 c 0
 303 118 306 97 306 76 c 0
 306 64 305 53 303 42 c 0
 300 30 297 23 282 22 c 0
 274 21 266 21 259 20 c 2
 258 20 l 1x90
 199 14 141 -2 81 0 c 2
 73 0 l 2xc0
EndSplineSet
EndChar

StartChar: uniE879
Encoding: 59513 59513 128
Width: 101
Flags: MW
HStem: 0 934
VStem: 0 43<536.5 560>
LayerCount: 2
Fore
SplineSet
89 0 m 0
 82 0 80 9 78 14 c 0
 65 62 51 109 40 157 c 0
 23 233 11 310 7 388 c 0
 4 433 2 478 0 515 c 0
 0 605 13 686 27 767 c 0
 33 805 41 843 49 881 c 0
 52 897 57 912 67 925 c 0
 71 931 79 935 86 934 c 0
 93 932 91 923 92 917 c 0
 95 881 82 848 76 814 c 0
 65 755 56 695 48 636 c 0
 44 606 43 576 43 547 c 0
 43 526 43 506 44 485 c 0
 49 394 58 302 81 213 c 0
 90 178 98 142 110 107 c 0
 114 95 116 83 116 71 c 0
 116 51 111 31 102 12 c 0
 100 6 95 0 89 0 c 0
EndSplineSet
EndChar

StartChar: uniE87A
Encoding: 59514 59514 129
Width: 111
Flags: MW
HStem: 0 1009
VStem: 73 38
LayerCount: 2
Fore
SplineSet
-2 0 m 0
 -10 2 -9 12 -11 19 c 0
 -17 36 -20 53 -20 70 c 0
 -20 96 -13 121 -3 148 c 0
 33 239 50 336 63 433 c 0
 69 478 73 523 73 568 c 0
 73 602 71 635 67 669 c 0
 59 746 49 822 19 894 c 0
 7 924 6 956 5 988 c 0
 5 1000 12 1006 21 1009 c 2
 24 1009 l 1
 24 1009 25 1009 25 1009 c 2
 32 1009 33 999 35 994 c 0
 60 938 75 880 85 820 c 0
 101 727 114 633 111 547 c 1
 113 420 94 305 69 190 c 0
 58 138 40 89 25 39 c 0
 22 31 18 23 14 15 c 0
 10 8 6 -1 -2 0 c 0
EndSplineSet
EndChar

StartChar: uniE87B
Encoding: 59515 59515 130
Width: 368
Flags: MW
HStem: 0.0899963 1070.91
VStem: -50.23 418.23
LayerCount: 2
Fore
SplineSet
30 2 m 0
 8 14 -17 17 -37 32 c 0
 -44 37 -54 41 -49 53 c 0
 -44 89 -28 123 -17 157 c 2
 220 843 l 2
 244 914 269 984 293 1055 c 0
 297 1066 301 1071 307 1071 c 0
 311 1071 316 1069 322 1066 c 0
 353 1050 368 1025 368 996 c 0
 368 986 367 976 363 965 c 2
 147 315 l 1
 48 14 l 2
 46 5 41 -4 30 2 c 0
EndSplineSet
EndChar

StartChar: uniE87C
Encoding: 59516 59516 131
Width: 990
Flags: MW
HStem: -26.93 1054.45
VStem: 0 990
LayerCount: 2
Fore
SplineSet
10 -26 m 0
 0 -22 7 -6 4 6 c 0
 2 16 -1 26 0 35 c 0
 1 58 5 76 22 92 c 0
 99 164 171 241 247 314 c 0
 337 400 423 489 511 577 c 0
 614 680 716 779 820 881 c 0
 865 924 909 970 954 1015 c 0
 962 1023 972 1031 983 1026 c 0
 988 1024 990 1018 990 1012 c 0
 990 1007 989 1003 989 999 c 0
 984 970 974 944 953 923 c 0
 811 781 672 636 531 494 c 0
 444 406 358 318 272 231 c 0
 194 151 118 73 40 -6 c 0
 32 -15 24 -31 10 -26 c 0
EndSplineSet
EndChar

StartChar: uniE050
Encoding: 57424 57424 132
Width: 664
Flags: MW
HStem: -228 117<267.5 285 267.5 292> 133 140
VStem: 0 81<14 14> 169 44<-78 4.5> 211 54<655.5 683.5 616.5 703> 341 63<-228 -223.5 -228 -223 -228 -223> 352 78<678.5 800>
LayerCount: 2
Fore
SplineSet
238 -559 m 0xea
 226 -559 216 -552 210 -538 c 0
 203 -523 196 -507 190 -492 c 0
 189 -488 188 -485 188 -481 c 0
 188 -472 193 -465 204 -464 c 0
 242 -461 260 -432 279 -406 c 0
 315 -356 330 -297 341 -237 c 0
 342 -232 341 -223 341 -223 c 1
 329 -225 l 2
 314 -227 299 -228 285 -228 c 0xec
 236 -228 190 -217 144 -200 c 0
 111 -188 78 -166 57 -146 c 0
 21 -111 0 -48 0 14 c 0
 0 44 5 74 16 100 c 0
 37 153 70 200 100 247 c 0
 143 313 193 373 238 437 c 0
 237 442 235 448 235 454 c 0
 224 534 211 615 211 696 c 0
 211 710 211 724 212 738 c 0
 217 825 242 906 293 977 c 0
 304 992 317 1009 335 1009 c 0
 359 1009 366 984 371 963 c 0
 389 893 416 825 426 753 c 0
 429 733 430 713 430 692 c 0
 430 665 428 638 423 611 c 0xea
 409 518 307 337 307 337 c 1
 307 337 307 328 308 323 c 2
 334 226 l 1
 334 226 340 230 346 233 c 0
 391 260 439 273 489 273 c 0
 509 273 529 271 549 267 c 0
 629 252 664 206 664 143 c 0
 664 129 663 114 659 99 c 0
 639 7 595 -76 519 -137 c 0
 490 -160 458 -178 425 -194 c 0
 419 -196 405 -204 405 -204 c 1
 405 -204 404 -219 404 -228 c 0xec
 401 -345 367 -450 284 -537 c 0
 276 -546 266 -552 254 -556 c 0
 248 -558 243 -559 238 -559 c 0xea
285 -111 m 0xf2
 314 -113 340 -106 340 -106 c 1
 340 -106 341 -97 340 -91 c 0
 336 -32 321 26 312 85 c 0
 311 92 310 96 306 96 c 0
 304 96 301 94 298 91 c 0
 262 59 228 25 218 -23 c 0
 214 -39 213 -55 213 -68 c 0
 213 -88 216 -102 216 -102 c 1
 216 -102 250 -111 285 -111 c 0xf2
175 -94 m 1
 175 -88 175 -85 174 -81 c 0
 171 -63 169 -46 169 -29 c 0
 169 38 193 99 243 148 c 0
 261 166 289 202 289 202 c 1
 289 202 282 242 274 267 c 2
 267 289 l 1
 225 234 l 2
 176 171 129 108 90 39 c 0
 88 36 82 19 81 13 c 0
 79 1 77 -11 77 -22 c 0
 77 -31 78 -40 81 -48 c 0
 88 -65 110 -75 136 -84 c 0
 149 -88 161 -93 175 -94 c 1
395 -91 m 1
 413 -84 l 1
 497 -47 556 13 596 93 c 1
 594 94 592 96 590 98 c 0
 567 122 537 127 507 133 c 0
 482 138 458 140 433 140 c 0
 407 140 382 138 356 133 c 0
 353 129 353 124 354 117 c 0
 368 54 383 2 391 -63 c 2
 395 -91 l 1
278 498 m 1xea
 316 568 334 644 347 722 c 0
 350 742 352 762 352 781 c 0
 352 819 346 856 334 893 c 1
 283 812 265 727 265 640 c 0
 265 593 270 546 278 498 c 1xea
EndSplineSet
EndChar

StartChar: uniE051
Encoding: 57425 57425 133
Width: 664
Flags: MW
HStem: -885 49<273 285 273 294.5> -673 48<304 320> -228 117<267.5 285 267.5 292> 133 140
VStem: 0 81<14 14> 169 44<-78 4.5> 188 15 211 54<655.5 683.5 616.5 703> 234 20<-811 -786> 252 26.5 341 63<-228 -223.5 -228 -223 -228 -223> 352 78<678.5 800> 360 19<-733 -724.5>
LayerCount: 2
Fore
SplineSet
287 -885 m 0xfa88
 245 -885 240 -856 235 -830 c 0
 233 -817 235 -803 234 -789 c 0
 234 -783 238 -777 244 -777 c 2
 245 -777 l 2
 251 -777 252 -784 253 -789 c 0
 254 -792 254 -795 254 -799 c 0
 254 -823 265 -836 281 -836 c 0
 289 -836 298 -833 307 -828 c 0xfa88
 333 -814 345 -789 353 -762 c 0
 356 -751 360 -739 360 -727 c 0
 360 -722 360 -717 358 -712 c 0
 349 -687 330 -673 310 -673 c 0
 298 -673 287 -677 275 -685 c 0
 269 -689 264 -692 261 -692 c 0xfa48
 257 -692 255 -686 253 -674 c 0
 252 -667 252 -661 252 -654 c 0
 252 -623 260 -593 267 -562 c 0
 268 -558 268 -555 269 -552 c 0
 270 -551 270 -550 271 -548 c 1
 266 -551 260 -554 254 -556 c 0
 248 -558 243 -559 238 -559 c 0
 228 -559 220 -554 214 -545 c 1
 211 -578 l 2
 205 -633 204 -688 203 -744 c 0
 203 -780 201 -815 200 -851 c 0
 200 -855 199 -859 198 -862 c 0
 196 -866 193 -871 188 -871 c 0
 183 -871 182 -865 181 -861 c 0
 178 -841 176 -822 177 -802 c 0
 182 -728 179 -653 188 -580 c 0
 188 -577 188 -575 187 -570 c 1
 173 -582 163 -594 148 -599 c 0
 145 -600 142 -601 139 -601 c 0
 134 -601 131 -598 130 -589 c 0
 128 -580 127 -573 127 -569 c 0
 127 -559 133 -556 151 -548 c 0
 167 -541 177 -527 187 -514 c 0
 190 -511 192 -507 195 -505 c 0
 194 -501 192 -496 190 -492 c 0
 189 -488 188 -485 188 -481 c 0
 188 -472 193 -465 204 -464 c 0
 242 -461 260 -432 279 -406 c 0
 315 -356 330 -297 341 -237 c 0
 342 -232 341 -223 341 -223 c 1
 329 -225 l 2
 314 -227 299 -228 285 -228 c 0xfa60
 236 -228 190 -217 144 -200 c 0
 111 -188 78 -166 57 -146 c 0
 21 -111 0 -48 0 14 c 0
 0 44 5 74 16 100 c 0
 37 153 70 200 100 247 c 0
 143 313 193 373 238 437 c 0
 237 442 235 448 235 454 c 0
 224 534 211 615 211 696 c 0
 211 710 211 724 212 738 c 0
 217 825 242 906 293 977 c 0
 304 992 317 1009 335 1009 c 0
 359 1009 366 984 371 963 c 0
 389 893 416 825 426 753 c 0
 429 733 430 713 430 692 c 0
 430 665 428 638 423 611 c 0xfb10
 409 518 307 337 307 337 c 1
 307 337 307 328 308 323 c 2
 334 226 l 1
 334 226 340 230 346 233 c 0
 391 260 439 273 489 273 c 0
 509 273 529 271 549 267 c 0
 629 252 664 206 664 143 c 0
 664 129 663 114 659 99 c 0
 639 7 595 -76 519 -137 c 0
 490 -160 458 -178 425 -194 c 0
 419 -196 405 -204 405 -204 c 1
 405 -204 404 -219 404 -228 c 0xfaa0
 401 -339 370 -439 296 -524 c 1
 299 -525 303 -527 306 -527 c 0
 327 -528 343 -519 360 -510 c 0
 365 -507 369 -505 372 -505 c 0
 378 -505 381 -512 381 -529 c 0
 381 -557 357 -570 320 -576 c 0
 287 -581 287 -579 279 -612 c 0
 277 -618 275 -624 278 -630 c 1
 289 -627 299 -625 309 -625 c 0xfa48
 347 -625 371 -652 377 -699 c 0
 378 -709 379 -719 379 -729 c 0
 379 -757 374 -784 365 -811 c 0
 358 -834 344 -852 327 -868 c 0
 315 -880 302 -885 287 -885 c 0xfa88
285 -111 m 0xfc88
 314 -113 340 -106 340 -106 c 1
 340 -106 341 -97 340 -91 c 0
 336 -32 321 26 312 85 c 0
 311 92 310 96 306 96 c 0
 304 96 301 94 298 91 c 0
 262 59 228 25 218 -23 c 0
 214 -39 213 -55 213 -68 c 0
 213 -88 216 -102 216 -102 c 1
 216 -102 250 -111 285 -111 c 0xfc88
175 -94 m 1
 175 -88 175 -85 174 -81 c 0
 171 -63 169 -46 169 -29 c 0
 169 38 193 99 243 148 c 0
 261 166 289 202 289 202 c 1
 289 202 282 242 274 267 c 2
 267 289 l 1
 225 234 l 2
 176 171 129 108 90 39 c 0
 88 36 82 19 81 13 c 0
 79 1 77 -11 77 -22 c 0
 77 -31 78 -40 81 -48 c 0
 88 -65 110 -75 136 -84 c 0
 149 -88 161 -93 175 -94 c 1
395 -91 m 1
 413 -84 l 1
 497 -47 556 13 596 93 c 1
 594 94 592 96 590 98 c 0
 567 122 537 127 507 133 c 0
 482 138 458 140 433 140 c 0
 407 140 382 138 356 133 c 0
 353 129 353 124 354 117 c 0
 368 54 383 2 391 -63 c 2
 395 -91 l 1
278 498 m 1xfb10
 316 568 334 644 347 722 c 0
 350 742 352 762 352 781 c 0
 352 819 346 856 334 893 c 1
 283 812 265 727 265 640 c 0
 265 593 270 546 278 498 c 1xfb10
EndSplineSet
EndChar

StartChar: uniE052
Encoding: 57426 57426 134
Width: 664
Flags: MW
HStem: -840 48 -228 117<267.5 285 267.5 292> 133 140
VStem: 0 81<14 14> 169 44<-78 4.5> 176 20<-758 -751 -754.5 -751> 202 31<-629.5 -598> 211 54<655.5 683.5 616.5 703> 304 30<-568 -541 -564 -541> 321 25<-732 -691> 341 63<-228 -223.5 -228 -223 -228 -223> 352 78<678.5 800>
LayerCount: 2
Fore
SplineSet
217 -834 m 0xf140
 189 -821 178 -798 176 -768 c 0
 175 -763 176 -758 176 -751 c 0
 173 -725 184 -703 203 -684 c 0x84
 208 -679 211 -675 209 -666 c 0
 204 -651 202 -636 202 -623 c 0
 202 -598 209 -575 222 -554 c 1
 217 -550 213 -545 210 -538 c 0
 203 -523 196 -507 190 -492 c 0
 189 -488 188 -485 188 -481 c 0
 188 -472 193 -465 204 -464 c 0
 242 -461 260 -432 279 -406 c 0
 315 -356 330 -297 341 -237 c 0
 342 -232 341 -223 341 -223 c 1
 329 -225 l 2
 314 -227 299 -228 285 -228 c 0x4220
 236 -228 190 -217 144 -200 c 0
 111 -188 78 -166 57 -146 c 0
 21 -111 0 -48 0 14 c 0
 0 44 5 74 16 100 c 0
 37 153 70 200 100 247 c 0
 143 313 193 373 238 437 c 0
 237 442 235 448 235 454 c 0
 224 534 211 615 211 696 c 0
 211 710 211 724 212 738 c 0
 217 825 242 906 293 977 c 0
 304 992 317 1009 335 1009 c 0
 359 1009 366 984 371 963 c 0
 389 893 416 825 426 753 c 0
 429 733 430 713 430 692 c 0
 430 665 428 638 423 611 c 0x5110
 409 518 307 337 307 337 c 1
 307 337 307 328 308 323 c 2
 334 226 l 1
 334 226 340 230 346 233 c 0
 391 260 439 273 489 273 c 0
 509 273 529 271 549 267 c 0
 629 252 664 206 664 143 c 0
 664 129 663 114 659 99 c 0
 639 7 595 -76 519 -137 c 0
 490 -160 458 -178 425 -194 c 0
 419 -196 405 -204 405 -204 c 1
 405 -204 404 -219 404 -228 c 0
 401 -327 377 -417 320 -495 c 1x2020
 324 -500 327 -508 329 -515 c 0
 332 -526 334 -536 334 -546 c 0
 334 -568 327 -590 320 -610 c 0
 318 -616 316 -622 316 -627 c 0x4080
 316 -633 318 -638 325 -645 c 0
 341 -661 346 -681 346 -701 c 0
 346 -710 345 -718 344 -726 c 0
 338 -763 324 -796 294 -821 c 0
 279 -834 263 -840 246 -840 c 0
 237 -840 227 -838 217 -834 c 0xf140
263 -792 m 0x8440
 289 -788 308 -771 318 -746 c 0
 320 -740 321 -735 321 -729 c 0
 321 -715 314 -700 304 -688 c 0
 299 -682 293 -679 287 -679 c 0
 284 -679 281 -680 277 -681 c 0
 254 -690 234 -704 216 -720 c 0
 202 -732 196 -742 196 -751 c 0
 196 -765 209 -775 229 -785 c 0
 238 -790 249 -791 263 -792 c 0x8440
253 -625 m 0x4280
 257 -626 260 -627 264 -627 c 0
 274 -627 284 -622 291 -609 c 0
 298 -596 302 -582 304 -568 c 2
 304 -564 l 2
 304 -556 299 -549 290 -549 c 0
 263 -548 235 -563 233 -598 c 0
 233 -608 239 -622 253 -625 c 0x4280
285 -111 m 0x78
 314 -113 340 -106 340 -106 c 1
 340 -106 341 -97 340 -91 c 0
 336 -32 321 26 312 85 c 0
 311 92 310 96 306 96 c 0
 304 96 301 94 298 91 c 0
 262 59 228 25 218 -23 c 0
 214 -39 213 -55 213 -68 c 0
 213 -88 216 -102 216 -102 c 1
 216 -102 250 -111 285 -111 c 0x78
175 -94 m 1
 175 -88 175 -85 174 -81 c 0
 171 -63 169 -46 169 -29 c 0
 169 38 193 99 243 148 c 0
 261 166 289 202 289 202 c 1
 289 202 282 242 274 267 c 2
 267 289 l 1
 225 234 l 2
 176 171 129 108 90 39 c 0
 88 36 82 19 81 13 c 0
 79 1 77 -11 77 -22 c 0
 77 -31 78 -40 81 -48 c 0
 88 -65 110 -75 136 -84 c 0
 149 -88 161 -93 175 -94 c 1
395 -91 m 1
 413 -84 l 1
 497 -47 556 13 596 93 c 1
 594 94 592 96 590 98 c 0
 567 122 537 127 507 133 c 0
 482 138 458 140 433 140 c 0
 407 140 382 138 356 133 c 0
 353 129 353 124 354 117 c 0
 368 54 383 2 391 -63 c 2
 395 -91 l 1
278 498 m 1x2110
 316 568 334 644 347 722 c 0
 350 742 352 762 352 781 c 0
 352 819 346 856 334 893 c 1
 283 812 265 727 265 640 c 0
 265 593 270 546 278 498 c 1x2110
EndSplineSet
EndChar

StartChar: uniE053
Encoding: 57427 57427 135
Width: 664
Flags: MW
HStem: -228 117<267.5 285 267.5 292> 133 140 1249 64
VStem: 0 81<14 14> 169 44<-78 4.5> 211 54<655.5 683.5 616.5 703> 268 20<1040 1047 1043.5 1047> 294 31<1168 1200> 341 63<-228 -223.5 -228 -223 -228 -223> 352 78<678.5 800> 396 30<1230 1257 1234 1257> 413 25<1066 1107>
LayerCount: 2
Fore
SplineSet
238 -559 m 0xf410
 226 -559 216 -552 210 -538 c 0
 203 -523 196 -507 190 -492 c 0
 189 -488 188 -485 188 -481 c 0
 188 -472 193 -465 204 -464 c 0
 242 -461 260 -432 279 -406 c 0
 315 -356 330 -297 341 -237 c 0
 342 -232 341 -223 341 -223 c 1
 329 -225 l 2
 314 -227 299 -228 285 -228 c 0
 236 -228 190 -217 144 -200 c 0
 111 -188 78 -166 57 -146 c 0
 21 -111 0 -48 0 14 c 0
 0 44 5 74 16 100 c 0
 37 153 70 200 100 247 c 0
 143 313 193 373 238 437 c 0
 237 442 235 448 235 454 c 0
 224 534 211 615 211 696 c 0
 211 710 211 724 212 738 c 0
 217 824 242 905 292 975 c 1x9480
 276 988 269 1008 268 1030 c 0
 267 1035 268 1040 268 1047 c 0
 265 1073 276 1095 295 1114 c 0x22
 300 1119 303 1123 301 1132 c 0
 297 1147 294 1161 294 1175 c 0
 294 1214 311 1248 340 1279 c 0
 344 1283 348 1287 350 1292 c 0
 358 1312 375 1314 393 1313 c 0
 411 1312 417 1297 421 1283 c 0
 424 1272 426 1262 426 1252 c 0
 426 1230 419 1208 412 1188 c 0
 410 1182 408 1176 408 1171 c 0x2120
 408 1165 410 1160 417 1153 c 0
 433 1137 438 1117 438 1097 c 0
 438 1088 437 1080 436 1072 c 0
 430 1035 416 1002 386 977 c 0
 381 972 375 969 370 966 c 1
 371 965 371 964 371 963 c 0x2010
 389 893 416 825 426 753 c 0
 429 733 430 713 430 692 c 0
 430 665 428 638 423 611 c 0x2040
 409 518 307 337 307 337 c 1
 307 337 307 328 308 323 c 2
 334 226 l 1
 334 226 340 230 346 233 c 0
 391 260 439 273 489 273 c 0
 509 273 529 271 549 267 c 0
 629 252 664 206 664 143 c 0
 664 129 663 114 659 99 c 0
 639 7 595 -76 519 -137 c 0
 490 -160 458 -178 425 -194 c 0
 419 -196 405 -204 405 -204 c 1
 405 -204 404 -219 404 -228 c 0x4080
 401 -345 367 -450 284 -537 c 0
 276 -546 266 -552 254 -556 c 0
 248 -558 243 -559 238 -559 c 0xf410
285 -111 m 0xd8
 314 -113 340 -106 340 -106 c 1
 340 -106 341 -97 340 -91 c 0
 336 -32 321 26 312 85 c 0
 311 92 310 96 306 96 c 0
 304 96 301 94 298 91 c 0
 262 59 228 25 218 -23 c 0
 214 -39 213 -55 213 -68 c 0
 213 -88 216 -102 216 -102 c 1
 216 -102 250 -111 285 -111 c 0xd8
175 -94 m 1
 175 -88 175 -85 174 -81 c 0
 171 -63 169 -46 169 -29 c 0
 169 38 193 99 243 148 c 0
 261 166 289 202 289 202 c 1
 289 202 282 242 274 267 c 2
 267 289 l 1
 225 234 l 2
 176 171 129 108 90 39 c 0
 88 36 82 19 81 13 c 0
 79 1 77 -11 77 -22 c 0
 77 -31 78 -40 81 -48 c 0
 88 -65 110 -75 136 -84 c 0
 149 -88 161 -93 175 -94 c 1
395 -91 m 1
 413 -84 l 1
 497 -47 556 13 596 93 c 1
 594 94 592 96 590 98 c 0
 567 122 537 127 507 133 c 0
 482 138 458 140 433 140 c 0
 407 140 382 138 356 133 c 0
 353 129 353 124 354 117 c 0
 368 54 383 2 391 -63 c 2
 395 -91 l 1
278 498 m 1x2440
 316 568 334 644 347 722 c 0
 350 742 352 762 352 781 c 0
 352 819 346 856 334 893 c 1
 283 812 265 727 265 640 c 0
 265 593 270 546 278 498 c 1x2440
355 1006 m 0x2210
 381 1010 400 1027 410 1052 c 0
 412 1058 413 1063 413 1069 c 0
 413 1083 406 1098 396 1110 c 0
 391 1116 385 1119 379 1119 c 0
 376 1119 373 1118 369 1117 c 0
 346 1108 326 1094 308 1078 c 0
 294 1066 288 1056 288 1047 c 0
 288 1033 301 1023 321 1013 c 0
 324 1011 328 1010 333 1009 c 2
 335 1009 l 2
 339 1009 343 1008 346 1007 c 0
 349 1006 352 1006 355 1006 c 0x2210
345 1173 m 0x2120
 349 1172 352 1171 356 1171 c 0
 366 1171 376 1176 383 1189 c 0
 390 1202 394 1216 396 1230 c 2
 396 1234 l 2
 396 1242 391 1249 382 1249 c 0
 355 1250 327 1235 325 1200 c 0
 325 1190 331 1176 345 1173 c 0x2120
EndSplineSet
EndChar

StartChar: uniE054
Encoding: 57428 57428 136
Width: 664
Flags: MW
HStem: -228 117<267.5 285 267.5 292> 133 140 968 49<389 390 378 399.5> 1180 48<409 425>
VStem: 0 81<14 14> 169 44<-78 4.5> 211 54<655.5 683.5 616.5 703> 293 15 339 20<1042 1067> 341 63<-228 -223.5 -228 -223 -228 -223> 352 78<678.5 800> 357 26.5 465 19<1120 1128.5>
LayerCount: 2
Fore
SplineSet
238 -559 m 0xfd88
 226 -559 216 -552 210 -538 c 0
 203 -523 196 -507 190 -492 c 0
 189 -488 188 -485 188 -481 c 0
 188 -472 193 -465 204 -464 c 0
 242 -461 260 -432 279 -406 c 0
 315 -356 330 -297 341 -237 c 0
 342 -232 341 -223 341 -223 c 1
 329 -225 l 2
 314 -227 299 -228 285 -228 c 0
 236 -228 190 -217 144 -200 c 0
 111 -188 78 -166 57 -146 c 0
 21 -111 0 -48 0 14 c 0
 0 44 5 74 16 100 c 0
 37 153 70 200 100 247 c 0
 143 313 193 373 238 437 c 0
 237 442 235 448 235 454 c 0
 224 534 211 615 211 696 c 0
 211 710 211 724 212 738 c 0
 217 825 242 906 293 977 c 1
 299 984 l 1
 297 983 295 982 293 982 c 0
 288 982 287 988 286 992 c 0xfb48
 283 1012 281 1031 282 1051 c 0
 287 1125 284 1200 293 1273 c 0
 293 1276 293 1278 292 1283 c 1
 278 1271 268 1259 253 1254 c 0
 250 1253 247 1252 244 1252 c 0
 239 1252 236 1255 235 1264 c 0
 233 1273 232 1280 232 1284 c 0
 232 1294 238 1297 256 1305 c 0
 272 1312 282 1326 292 1339 c 0
 297 1345 303 1353 311 1350 c 0
 318 1347 320 1338 320 1330 c 0
 319 1312 318 1293 316 1275 c 0
 310 1220 309 1165 308 1109 c 0
 308 1073 306 1038 305 1002 c 0
 305 998 304 994 303 991 c 0
 302 990 302 989 301 987 c 1
 310 999 321 1009 335 1009 c 0
 338 1009 341 1009 343 1008 c 1
 340 1023 l 2
 338 1036 340 1050 339 1064 c 0
 339 1070 343 1076 349 1076 c 2
 350 1076 l 2
 356 1076 357 1069 358 1064 c 0
 359 1061 359 1058 359 1054 c 0
 359 1030 370 1017 386 1017 c 0
 394 1017 403 1020 412 1025 c 0xfd88
 438 1039 450 1064 458 1091 c 0
 461 1102 465 1114 465 1126 c 0
 465 1131 465 1136 463 1141 c 0
 454 1166 435 1180 415 1180 c 0
 403 1180 392 1176 380 1168 c 0
 374 1164 369 1161 366 1161 c 0
 362 1161 360 1167 358 1179 c 0
 357 1186 357 1192 357 1199 c 0
 357 1230 365 1260 372 1291 c 0
 373 1295 373 1298 374 1301 c 0
 379 1310 375 1322 383 1329 c 0
 386 1332 388 1333 391 1333 c 0
 398 1333 404 1326 411 1326 c 0
 432 1325 448 1334 465 1343 c 0
 470 1346 474 1348 477 1348 c 0
 483 1348 486 1341 486 1324 c 0
 486 1296 462 1283 425 1277 c 0
 392 1272 392 1274 384 1241 c 0
 382 1235 380 1229 383 1223 c 1
 394 1226 404 1228 414 1228 c 0xfd18
 452 1228 476 1201 482 1154 c 0
 483 1144 484 1134 484 1124 c 0
 484 1096 479 1069 470 1042 c 0
 463 1019 449 1001 432 985 c 0
 420 973 407 968 392 968 c 0
 386 968 379 969 372 971 c 0
 371 971 370 972 369 972 c 1
 370 969 370 966 371 963 c 0
 389 893 416 825 426 753 c 0
 429 733 430 713 430 692 c 0
 430 665 428 638 423 611 c 0xfd28
 409 518 307 337 307 337 c 1
 307 337 307 328 308 323 c 2
 334 226 l 1
 334 226 340 230 346 233 c 0
 391 260 439 273 489 273 c 0
 509 273 529 271 549 267 c 0
 629 252 664 206 664 143 c 0
 664 129 663 114 659 99 c 0
 639 7 595 -76 519 -137 c 0
 490 -160 458 -178 425 -194 c 0
 419 -196 405 -204 405 -204 c 1
 405 -204 404 -219 404 -228 c 0xfd48
 401 -345 367 -450 284 -537 c 0
 276 -546 266 -552 254 -556 c 0
 248 -558 243 -559 238 -559 c 0xfd88
285 -111 m 0
 314 -113 340 -106 340 -106 c 1
 340 -106 341 -97 340 -91 c 0
 336 -32 321 26 312 85 c 0
 311 92 310 96 306 96 c 0
 304 96 301 94 298 91 c 0
 262 59 228 25 218 -23 c 0
 214 -39 213 -55 213 -68 c 0
 213 -88 216 -102 216 -102 c 1
 216 -102 250 -111 285 -111 c 0
175 -94 m 1
 175 -88 175 -85 174 -81 c 0
 171 -63 169 -46 169 -29 c 0
 169 38 193 99 243 148 c 0
 261 166 289 202 289 202 c 1
 289 202 282 242 274 267 c 2
 267 289 l 1
 225 234 l 2
 176 171 129 108 90 39 c 0
 88 36 82 19 81 13 c 0
 79 1 77 -11 77 -22 c 0
 77 -31 78 -40 81 -48 c 0
 88 -65 110 -75 136 -84 c 0
 149 -88 161 -93 175 -94 c 1
395 -91 m 1
 413 -84 l 1
 497 -47 556 13 596 93 c 1
 594 94 592 96 590 98 c 0
 567 122 537 127 507 133 c 0
 482 138 458 140 433 140 c 0
 407 140 382 138 356 133 c 0
 353 129 353 124 354 117 c 0
 368 54 383 2 391 -63 c 2
 395 -91 l 1
278 498 m 1xfb28
 316 568 334 644 347 722 c 0
 350 742 352 762 352 781 c 0
 352 819 346 856 334 893 c 1
 283 812 265 727 265 640 c 0
 265 593 270 546 278 498 c 1xfb28
EndSplineSet
EndChar

StartChar: uniE055
Encoding: 57429 57429 137
Width: 1040
Flags: MW
HStem: -228 117<267.5 285 267.5 292 643.5 661> 133 140
VStem: 0 81<14 14> 169 44<-78 4.5> 211 54<655.5 683.5 616.5 703> 341 63<-228 -223.5 -228 -223 -228 -223> 352 78<678.5 800> 376 81 587 54<655.5 683.5 616.5 703> 717 63<-228 -223.5 -228 -223 -228 -223> 728 78<678.5 800>
LayerCount: 2
Fore
SplineSet
238 -559 m 0xeaa0
 226 -559 216 -552 210 -538 c 0
 203 -523 196 -507 190 -492 c 0
 189 -488 188 -485 188 -481 c 0
 188 -472 193 -465 204 -464 c 0
 242 -461 260 -432 279 -406 c 0
 315 -356 330 -297 341 -237 c 0
 342 -232 341 -223 341 -223 c 1
 329 -225 l 2
 314 -227 299 -228 285 -228 c 0x84
 236 -228 190 -217 144 -200 c 0
 111 -188 78 -166 57 -146 c 0
 21 -111 0 -48 0 14 c 0
 0 44 5 74 16 100 c 0
 37 153 70 200 100 247 c 0
 143 313 193 373 238 437 c 0
 237 442 235 448 235 454 c 0
 224 534 211 615 211 696 c 0
 211 710 211 724 212 738 c 0
 217 825 242 906 293 977 c 0
 304 992 317 1009 335 1009 c 0
 359 1009 366 984 371 963 c 0
 389 893 416 825 426 753 c 0
 429 733 430 713 430 692 c 0
 430 665 428 638 423 611 c 0
 409 518 307 337 307 337 c 1
 307 337 307 328 308 323 c 2
 334 226 l 1
 334 226 340 230 346 233 c 0
 391 260 439 273 489 273 c 2
 493 273 l 1
 532 329 575 381 614 437 c 0
 613 442 611 448 611 454 c 0
 600 534 587 615 587 696 c 0
 587 710 587 724 588 738 c 0
 593 825 618 906 669 977 c 0
 680 992 693 1009 711 1009 c 0
 735 1009 742 984 747 963 c 0
 765 893 792 825 802 753 c 0
 805 733 806 713 806 692 c 0
 806 665 804 638 799 611 c 0xaaa0
 785 518 683 337 683 337 c 1
 683 337 683 328 684 323 c 2
 710 226 l 1
 710 226 716 230 722 233 c 0
 767 260 815 273 865 273 c 0
 885 273 905 271 925 267 c 0
 1005 252 1040 206 1040 143 c 0
 1040 129 1039 114 1035 99 c 0
 1015 7 971 -76 895 -137 c 0
 866 -160 834 -178 801 -194 c 0
 795 -196 781 -204 781 -204 c 1
 781 -204 780 -219 780 -228 c 0
 777 -345 743 -450 660 -537 c 0
 652 -546 642 -552 630 -556 c 0
 624 -558 619 -559 614 -559 c 0
 602 -559 592 -552 586 -538 c 0
 579 -523 572 -507 566 -492 c 0
 565 -488 564 -485 564 -481 c 0
 564 -472 569 -465 580 -464 c 0
 618 -461 636 -432 655 -406 c 0
 691 -356 706 -297 717 -237 c 0
 718 -232 717 -223 717 -223 c 1
 705 -225 l 2
 690 -227 675 -228 661 -228 c 0
 612 -228 566 -217 520 -200 c 0
 501 -193 483 -183 466 -172 c 1
 453 -180 439 -187 425 -194 c 0
 419 -196 405 -204 405 -204 c 1
 405 -204 404 -219 404 -228 c 0xc440
 401 -345 367 -450 284 -537 c 0
 276 -546 266 -552 254 -556 c 0
 248 -558 243 -559 238 -559 c 0xeaa0
285 -111 m 0xf1
 314 -113 340 -106 340 -106 c 1
 340 -106 341 -97 340 -91 c 0
 336 -32 321 26 312 85 c 0
 311 92 310 96 306 96 c 0
 304 96 301 94 298 91 c 0
 262 59 228 25 218 -23 c 0
 214 -39 213 -55 213 -68 c 0
 213 -88 216 -102 216 -102 c 1
 216 -102 250 -111 285 -111 c 0xf1
175 -94 m 1
 175 -88 175 -85 174 -81 c 0
 171 -63 169 -46 169 -29 c 0
 169 38 193 99 243 148 c 0
 261 166 289 202 289 202 c 1
 289 202 282 242 274 267 c 2
 267 289 l 1
 225 234 l 2
 176 171 129 108 90 39 c 0
 88 36 82 19 81 13 c 0
 79 1 77 -11 77 -22 c 0
 77 -31 78 -40 81 -48 c 0
 88 -65 110 -75 136 -84 c 0
 149 -88 161 -93 175 -94 c 1
395 -91 m 1
 397 -90 l 1
 394 -84 l 1
 395 -91 l 1
376 22 m 1
 377 49 382 76 392 100 c 0
 397 114 403 127 410 139 c 1
 392 139 374 137 356 133 c 0
 353 129 353 124 354 117 c 0
 361 83 369 53 376 22 c 1
463 -57 m 0
 497 -36 525 -10 550 20 c 1
 555 50 566 78 583 104 c 1
 566 119 545 125 523 130 c 1
 503 100 484 70 466 39 c 0
 464 36 458 19 457 13 c 0
 455 1 453 -11 453 -22 c 0
 453 -31 454 -40 457 -48 c 0
 458 -51 460 -55 463 -57 c 0
661 -111 m 0
 690 -113 716 -106 716 -106 c 1
 716 -106 717 -97 716 -91 c 0
 712 -32 697 26 688 85 c 0
 687 92 686 96 682 96 c 0
 680 96 677 94 674 91 c 0
 666 84 659 78 652 71 c 1
 639 22 618 -23 589 -63 c 1
 589 -68 l 2
 589 -88 592 -102 592 -102 c 1
 592 -102 626 -111 661 -111 c 0
771 -91 m 1
 789 -84 l 1
 873 -47 932 13 972 93 c 1
 970 94 968 96 966 98 c 0
 943 122 913 127 883 133 c 0
 858 138 834 140 809 140 c 0
 783 140 758 138 732 133 c 0
 729 129 729 124 730 117 c 0
 744 54 759 2 767 -63 c 2
 771 -91 l 1
656 191 m 1
 665 202 l 1
 665 202 658 242 650 267 c 2
 643 289 l 1
 610 245 l 1
 632 231 648 213 656 191 c 1
278 498 m 1x4aa0
 316 568 334 644 347 722 c 0
 350 742 352 762 352 781 c 0
 352 819 346 856 334 893 c 1
 283 812 265 727 265 640 c 0
 265 593 270 546 278 498 c 1x4aa0
654 498 m 1
 692 568 710 644 723 722 c 0
 726 742 728 762 728 781 c 0
 728 819 722 856 710 893 c 1
 659 812 641 727 641 640 c 0
 641 593 646 546 654 498 c 1
EndSplineSet
EndChar

StartChar: uniE056
Encoding: 57430 57430 138
Width: 822
Flags: MW
HStem: -227 114<323.5 327 248 335.5> 140 130 270 107<604 721> 442 105<623 764>
VStem: 0 77<-27.5 31> 170 40<-89.5 -18> 211 53<665 682 616.5 705> 268 38 342 62<-234 -230.5> 351 78<651 810.5> 591 72<87.5 166> 784 28 793 29
LayerCount: 2
Fore
SplineSet
239 -561 m 0xba70
 226 -561 217 -552 208 -534 c 0
 201 -521 195 -507 190 -493 c 0
 189 -490 188 -487 188 -484 c 0
 188 -475 195 -468 204 -467 c 0
 242 -464 260 -435 279 -409 c 0
 315 -359 330 -300 341 -240 c 0
 342 -237 342 -235 342 -233 c 0
 342 -228 339 -227 332 -227 c 0
 315 -227 299 -229 283 -229 c 0x8080
 217 -229 153 -216 99 -173 c 0
 52 -136 14 -90 3 -28 c 0
 1 -15 0 -2 0 11 c 0
 0 51 10 90 29 127 c 0
 67 202 116 268 165 336 c 0
 183 361 201 387 222 409 c 0
 233 421 237 434 237 447 c 0
 237 464 231 480 229 496 c 0
 220 564 211 631 211 699 c 0
 211 711 211 724 212 736 c 0
 218 823 243 905 295 977 c 0
 306 992 321 1009 339 1006 c 0
 358 1002 365 980 370 961 c 0
 387 892 414 825 424 754 c 0
 427 731 429 708 429 686 c 0
 429 616 414 549 385 484 c 0x8a40
 365 440 344 397 315 359 c 0
 309 351 306 343 306 334 c 0
 306 330 307 326 308 321 c 0
 314 296 321 270 325 245 c 0
 327 232 329 226 335 226 c 0
 339 226 344 229 351 233 c 0
 394 259 439 270 486 270 c 0
 510 270 535 267 559 262 c 0
 629 247 663 203 663 129 c 0
 663 101 655 76 645 50 c 0
 603 -63 534 -151 420 -197 c 0
 408 -202 403 -209 404 -222 c 0
 404 -319 378 -408 325 -489 c 0x41a0
 309 -513 291 -536 267 -551 c 0
 256 -558 247 -561 239 -561 c 0xba70
287 -114 m 1xcd28
 287 -113 l 1
 318 -113 l 2
 336 -113 341 -106 340 -85 c 0
 335 -29 320 26 313 82 c 0
 312 90 310 94 307 94 c 0
 305 94 301 93 297 89 c 0
 258 56 223 18 215 -34 c 0
 212 -51 210 -64 210 -75 c 0
 210 -104 224 -113 272 -113 c 0
 277 -113 282 -114 287 -114 c 1xcd28
176 -98 m 1
 173 -74 170 -50 170 -27 c 0
 170 -9 172 9 177 27 c 0
 193 89 230 138 275 180 c 0
 281 186 288 189 286 201 c 0
 279 229 274 257 268 289 c 1
 249 265 234 246 219 226 c 0
 173 167 129 107 92 41 c 0
 82 24 77 1 77 -19 c 0
 77 -36 81 -51 89 -59 c 0
 113 -82 143 -92 176 -98 c 1
399 -92 m 0
 403 -92 407 -89 412 -87 c 0
 488 -51 550 -2 587 75 c 0
 590 81 591 85 591 90 c 0
 591 96 588 100 581 105 c 0
 572 112 562 117 551 121 c 0
 513 133 474 137 428 140 c 0
 411 141 389 135 367 133 c 0
 358 132 353 130 353 121 c 0
 353 119 353 116 354 113 c 0
 369 50 383 -13 389 -78 c 0
 390 -88 394 -92 399 -92 c 0
805 -140 m 1
 792 -102 791 -67 792 -31 c 0
 793 -12 793 6 793 25 c 0
 793 101 789 178 788 254 c 0
 788 273 781 278 764 276 c 0
 712 270 661 272 609 270 c 0
 599 270 591 271 591 283 c 0
 592 304 587 324 587 345 c 0
 587 370 593 379 614 379 c 0
 645 379 676 377 708 377 c 0
 734 377 761 378 787 384 c 1
 791 384 l 2
 798 384 800 378 803 371 c 0x2008
 814 337 814 301 816 267 c 0
 820 167 822 67 822 -33 c 2
 822 -93 l 2
 821 -109 820 -124 805 -140 c 1
278 501 m 1x1250
 313 548 351 688 351 790 c 0
 351 831 345 866 330 887 c 1
 283 808 264 725 264 639 c 0
 264 594 269 548 278 501 c 1x1250
783 439 m 0
 730 441 676 442 623 442 c 0
 616 443 609 443 606 452 c 0
 600 478 593 504 588 530 c 1
 588 534 l 2
 588 546 595 553 609 551 c 0
 645 547 682 547 719 547 c 2
 764 547 l 2
 781 547 784 552 784 567 c 0
 783 647 785 726 779 806 c 0
 778 819 778 831 778 844 c 0
 778 884 781 925 783 964 c 0
 783 974 788 980 796 982 c 0
 797 982 798 983 799 983 c 0
 806 983 805 973 808 968 c 0
 812 960 813 950 813 941 c 0
 813 930 811 918 812 907 c 0
 813 881 813 856 813 830 c 0
 813 815 812 801 812 786 c 0
 812 708 818 631 819 553 c 0
 819 536 821 519 821 502 c 0
 821 491 820 479 817 467 c 0
 812 448 804 438 783 439 c 0
EndSplineSet
EndChar

StartChar: uniE057
Encoding: 57431 57431 139
Width: 664
Flags: MW
HStem: -840.42 48.42 -678.99 53.99 -228 117<267.5 285 267.5 292> 133 140
VStem: 0 81<14 14> 77 41<-722 -634.5 -671 -634.5 -671 -632.5> 169 44<-78 4.5> 176 20.02 202.11 30.89 211 54<655.5 683.5 616.5 703> 304 29.35 321.43 24.8 341 63<-228 -223.5 -228 -223 -228 -223> 352 78<678.5 800> 421 40<-657.5 -623>
LayerCount: 2
Fore
SplineSet
549 267 m 0xf492
 629 252 664 206 664 143 c 0
 664 129 663 114 659 99 c 0
 639 7 595 -76 519 -137 c 0
 490 -160 458 -178 425 -194 c 0
 419 -196 405 -204 405 -204 c 1
 405 -204 404 -219 404 -228 c 0
 402 -288 393 -345 372 -398 c 1x1008
 399 -417 415 -444 428 -474 c 0
 450 -528 461 -584 461 -651 c 0
 461 -737 439 -825 389 -906 c 0
 381 -917 374 -935 362 -935 c 0
 348 -935 351 -920 351 -907 c 0
 351 -904 351 -901 350 -899 c 0
 348 -890 347 -882 347 -873 c 0
 347 -853 353 -834 366 -816 c 0
 397 -774 416 -724 420 -674 c 0
 421 -667 421 -661 421 -654 c 0
 421 -592 395 -535 341 -495 c 0
 336 -491 331 -487 328 -483 c 1
 325 -487 322 -491 320 -495 c 1
 324 -500 327 -508 329 -515 c 0x2022
 339 -548 331 -580 320 -610 c 0x4090
 315 -624 313 -633 325 -645 c 0
 347 -667 349 -697 344 -726 c 0
 338 -763 324 -796 294 -821 c 0
 270 -841 245 -846 217 -834 c 0
 189 -821 178 -798 176 -768 c 0
 175 -763 176 -758 176 -751 c 0
 173 -725 184 -703 203 -684 c 0x8110
 208 -679 211 -675 209 -666 c 0
 196 -624 202 -587 222 -554 c 1
 217 -550 213 -545 210 -538 c 0
 203 -523 196 -507 190 -492 c 0
 190 -490 189 -489 189 -487 c 1
 186 -493 182 -498 178 -503 c 0
 142 -552 118 -604 118 -665 c 0
 118 -677 119 -690 121 -703 c 0
 127 -739 142 -772 162 -802 c 0
 175 -822 182 -842 182 -862 c 0
 182 -874 180 -887 175 -899 c 0
 172 -906 169 -913 165 -918 c 0
 160 -925 156 -928 151 -928 c 0
 146 -928 141 -924 136 -916 c 0
 96 -857 80 -792 77 -722 c 2
 77 -682 l 2
 77 -583 100 -491 163 -412 c 0
 167 -407 172 -403 176 -399 c 0
 183 -392 192 -389 200 -391 c 0
 209 -394 207 -405 207 -412 c 0
 208 -431 205 -448 199 -465 c 1
 201 -464 202 -464 204 -464 c 0
 242 -461 260 -432 279 -406 c 0
 315 -356 330 -297 341 -237 c 0
 342 -232 341 -223 341 -223 c 1
 329 -225 l 2
 314 -227 299 -228 285 -228 c 0x2488
 236 -228 190 -217 144 -200 c 0
 111 -188 78 -166 57 -146 c 0
 21 -111 0 -48 0 14 c 0
 0 44 5 74 16 100 c 0
 37 153 70 200 100 247 c 0
 143 313 193 373 238 437 c 0
 237 442 235 448 235 454 c 0
 224 534 211 615 211 696 c 0
 211 710 211 724 212 738 c 0
 217 825 242 906 293 977 c 0
 304 992 317 1009 335 1009 c 0
 359 1009 366 984 371 963 c 0
 389 893 416 825 426 753 c 0
 429 733 430 713 430 692 c 0
 430 665 428 638 423 611 c 0x2844
 409 518 307 337 307 337 c 1
 307 337 307 328 308 323 c 2
 334 226 l 1
 334 226 340 230 346 233 c 0
 391 260 439 273 489 273 c 0
 509 273 529 271 549 267 c 0xf492
334 893 m 1x1844
 283 812 265 727 265 640 c 0
 265 593 270 546 278 498 c 1
 316 568 334 644 347 722 c 0
 350 742 352 762 352 781 c 0
 352 819 346 856 334 893 c 1x1844
136 -84 m 0
 149 -88 161 -93 175 -94 c 1
 175 -88 175 -85 174 -81 c 0
 171 -63 169 -46 169 -29 c 0
 169 38 193 99 243 148 c 0x22
 261 166 289 202 289 202 c 1
 289 202 282 242 274 267 c 2
 267 289 l 1
 225 234 l 2
 176 171 129 108 90 39 c 0
 88 36 82 19 81 13 c 0
 79 1 77 -11 77 -22 c 0
 77 -31 78 -40 81 -48 c 0
 88 -65 110 -75 136 -84 c 0
340 -106 m 1x22
 340 -106 341 -97 340 -91 c 0
 336 -32 321 26 312 85 c 0
 311 92 310 96 306 96 c 0
 304 96 301 94 298 91 c 0
 262 59 228 25 218 -23 c 0
 214 -39 213 -55 213 -68 c 0
 213 -88 216 -102 216 -102 c 1
 216 -102 250 -111 285 -111 c 0
 314 -113 340 -106 340 -106 c 1x22
233 -598 m 0x40a0
 233 -608 239 -622 253 -625 c 0
 267 -629 282 -626 291 -609 c 0
 298 -596 302 -582 304 -568 c 0
 306 -558 300 -549 290 -549 c 0
 263 -548 235 -563 233 -598 c 0x40a0
318 -746 m 0xd110
 327 -725 317 -705 304 -688 c 0
 296 -678 287 -677 277 -681 c 0
 254 -690 234 -704 216 -720 c 0
 181 -750 196 -769 229 -785 c 0
 238 -790 249 -791 263 -792 c 0
 289 -788 308 -771 318 -746 c 0xd110
413 -84 m 1
 497 -47 556 13 596 93 c 1
 594 94 592 96 590 98 c 0
 567 122 537 127 507 133 c 0
 482 138 458 140 433 140 c 0
 407 140 382 138 356 133 c 0
 353 129 353 124 354 117 c 0
 368 54 383 2 391 -63 c 2
 395 -91 l 1
 413 -84 l 1
EndSplineSet
EndChar

StartChar: uniE058
Encoding: 57432 57432 140
Width: 663
Flags: MW
HStem: -650 17 -626 8 -228 115<272 295> 139 131<420.5 496>
VStem: 0 76<-21 38.5> 170 39<-89.5 -16> 210 53<652.5 682.5 616 699.5> 267 38 350 78<650 801.5> 367 47<-386.5 -357.5>
LayerCount: 2
Fore
SplineSet
246 -650 m 0xb240
 200 -648 153 -649 107 -642 c 0xb240
 76 -638 44 -636 13 -632 c 0
 9 -631 6 -628 3 -626 c 1
 8 -620 13 -618 19 -618 c 2
 29 -618 l 1x7240
 90 -623 151 -628 212 -631 c 0
 227 -633 242 -633 257 -633 c 0
 268 -633 278 -632 289 -632 c 0
 311 -630 320 -612 329 -594 c 0
 353 -545 361 -491 365 -436 c 0
 366 -420 367 -403 367 -385 c 0
 367 -330 361 -275 356 -219 c 1
 332 -226 307 -228 283 -228 c 0
 233 -228 184 -217 135 -197 c 0
 102 -184 80 -164 58 -139 c 0
 39 -118 23 -93 13 -63 c 0
 4 -37 0 -11 0 14 c 0
 0 63 16 109 42 155 c 0
 91 239 146 320 208 395 c 0
 218 408 228 420 237 433 c 1
 237 441 236 448 234 456 c 0
 221 534 210 613 210 692 c 0
 210 707 210 722 211 736 c 0
 216 823 241 905 294 977 c 0xba40
 304 991 318 1006 334 1006 c 0
 356 1006 364 982 369 962 c 0
 386 892 413 826 423 755 c 0
 426 731 428 708 428 685 c 0
 428 615 413 548 383 482 c 0
 363 438 340 395 311 355 c 0
 307 349 305 343 305 336 c 0
 305 333 305 330 306 327 c 0
 314 298 321 268 325 239 c 0
 327 228 329 225 333 225 c 0
 336 226 340 228 345 231 c 0xb180
 390 258 436 270 486 270 c 0
 506 270 527 268 548 265 c 0
 628 250 663 200 663 138 c 0
 663 123 660 106 656 89 c 0
 620 -42 545 -143 416 -200 c 1
 402 -205 l 1
 408 -263 414 -320 414 -378 c 0
 414 -395 413 -413 412 -430 c 0
 408 -478 400 -525 384 -570 c 0
 358 -640 316 -652 246 -650 c 0xb240
272 -113 m 2xbd40
 312 -113 l 2
 333 -113 340 -107 338 -82 c 0
 333 -26 318 28 311 83 c 0
 310 91 309 94 306 94 c 2
 304 94 l 2
 302 94 299 92 296 89 c 0
 257 56 223 19 214 -31 c 0
 211 -50 209 -63 209 -74 c 0
 209 -105 224 -113 272 -113 c 2xbd40
175 -99 m 1
 173 -74 170 -49 170 -25 c 0
 170 -7 171 10 176 27 c 0
 192 88 228 137 273 181 c 0
 278 186 287 188 285 199 c 0
 279 228 273 257 267 289 c 1
 218 229 173 171 133 111 c 0
 117 87 101 63 87 37 c 0
 82 27 79 15 77 4 c 0
 76 -4 76 -12 76 -21 c 2
 79 -48 l 1
 103 -78 137 -89 175 -99 c 1
397 -92 m 2
 406 -89 l 2
 421 -82 436 -75 450 -66 c 0
 517 -29 563 25 595 92 c 0
 593 93 590 96 587 99 c 0
 570 118 545 123 521 129 c 0
 492 136 463 139 434 139 c 0
 407 139 380 137 354 131 c 0
 351 128 350 124 352 117 c 0
 367 52 382 -13 388 -79 c 0
 389 -87 392 -92 397 -92 c 2
276 497 m 1xb280
 308 556 328 620 341 688 c 0
 347 719 350 751 350 783 c 0
 350 820 345 856 332 892 c 1
 281 810 263 726 263 639 c 0
 263 593 268 546 276 497 c 1xb280
EndSplineSet
EndChar

StartChar: uniE059
Encoding: 57433 57433 141
Width: 664
Flags: MW
HStem: -228 117<267.5 285 267.5 292> 133 140
VStem: 0 81<14 14> 169 44<-78 4.5> 211 54<655.5 683.5 616.5 703> 341 63<-228 -223.5 -228 -223 -228 -223>
LayerCount: 2
Fore
SplineSet
238 -559 m 0xec
 226 -559 216 -552 210 -538 c 0
 203 -523 196 -507 190 -492 c 0
 189 -488 188 -485 188 -481 c 0
 188 -472 193 -465 204 -464 c 0
 242 -461 260 -432 279 -406 c 0
 315 -356 330 -297 341 -237 c 0
 342 -232 341 -223 341 -223 c 1
 329 -225 l 2
 314 -227 299 -228 285 -228 c 0
 236 -228 190 -217 144 -200 c 0
 111 -188 78 -166 57 -146 c 0
 21 -111 0 -48 0 14 c 0
 0 44 5 74 16 100 c 0
 37 153 70 200 100 247 c 0
 143 313 193 373 238 437 c 0
 237 442 235 448 235 454 c 0
 224 534 211 615 211 696 c 0
 211 710 211 724 212 738 c 0
 217 825 242 906 293 977 c 0
 304 992 317 1009 335 1009 c 0
 349 1009 362 1001 363 988 c 0
 366 954 350 919 334 893 c 0
 284 811 265 727 265 640 c 0
 265 593 270 546 278 498 c 1
 316 568 334 644 347 722 c 0
 351 743 371 753 389 753 c 0
 408 753 426 744 428 729 c 0
 430 719 430 704 430 692 c 0
 430 665 428 638 423 611 c 0
 409 518 307 337 307 337 c 1
 307 337 307 328 308 323 c 2
 334 226 l 1
 334 226 340 230 346 233 c 0
 391 260 439 273 489 273 c 0
 509 273 529 271 549 267 c 0
 629 252 664 206 664 143 c 0
 664 129 663 114 659 99 c 0
 639 7 595 -76 519 -137 c 0
 490 -160 458 -178 425 -194 c 0
 419 -196 405 -204 405 -204 c 1
 405 -204 404 -219 404 -228 c 0
 401 -345 367 -450 284 -537 c 0
 276 -546 266 -552 254 -556 c 0
 248 -558 243 -559 238 -559 c 0xec
285 -111 m 0xf4
 314 -113 340 -106 340 -106 c 1
 340 -106 341 -97 340 -91 c 0
 336 -32 321 26 312 85 c 0
 311 92 310 96 306 96 c 0
 304 96 301 94 298 91 c 0
 262 59 228 25 218 -23 c 0
 214 -39 213 -55 213 -68 c 0
 213 -88 216 -102 216 -102 c 1
 216 -102 250 -111 285 -111 c 0xf4
175 -94 m 1
 175 -88 175 -85 174 -81 c 0
 171 -63 169 -46 169 -29 c 0
 169 38 193 99 243 148 c 0
 261 166 289 202 289 202 c 1
 289 202 282 242 274 267 c 2
 267 289 l 1
 225 234 l 2
 176 171 129 108 90 39 c 0
 88 36 82 19 81 13 c 0
 79 1 77 -11 77 -22 c 0
 77 -31 78 -40 81 -48 c 0
 88 -65 110 -75 136 -84 c 0
 149 -88 161 -93 175 -94 c 1
395 -91 m 1
 413 -84 l 1
 497 -47 556 13 596 93 c 1
 594 94 592 96 590 98 c 0
 567 122 537 127 507 133 c 0
 482 138 458 140 433 140 c 0
 407 140 382 138 356 133 c 0
 353 129 353 124 354 117 c 0
 368 54 383 2 391 -63 c 2
 395 -91 l 1
EndSplineSet
EndChar

StartChar: uniE05A
Encoding: 57434 57434 142
Width: 664
Flags: MW
HStem: -226 115<274 288 274 288.5> 142 131
VStem: 0 77<-31 36> 177 33 237 47 268 38 342 62<-231 -219> 355 75<684.5 825.5>
LayerCount: 2
Fore
SplineSet
237 -559 m 0xd6
 231 -559 224 -557 220 -552 c 0
 204 -531 192 -507 189 -481 c 2
 189 -479 l 2
 189 -469 199 -464 209 -463 c 0
 230 -462 244 -448 258 -433 c 0
 308 -377 328 -309 341 -237 c 0
 342 -234 342 -232 342 -230 c 0
 342 -225 339 -224 332 -224 c 0
 316 -224 297 -226 280 -226 c 0xd6
 215 -226 153 -212 99 -170 c 0
 53 -133 14 -87 4 -26 c 0
 1 -12 0 2 0 16 c 0
 0 56 10 94 29 130 c 0
 67 204 116 271 165 339 c 0
 183 364 201 390 222 412 c 0
 233 424 237 437 237 449 c 0
 237 466 231 483 229 499 c 0
 221 574 209 649 198 724 c 0
 196 739 195 745 189 745 c 0
 186 745 180 743 171 738 c 0
 159 732 147 726 136 718 c 0
 131 714 126 712 121 712 c 0
 118 712 115 713 111 716 c 0
 105 720 103 725 103 730 c 0
 103 734 104 737 105 741 c 0
 128 798 147 857 153 918 c 0
 155 943 158 968 158 993 c 0
 159 1002 161 1005 165 1005 c 0
 167 1005 171 1004 176 1001 c 0
 183 997 188 989 192 981 c 0
 227 913 272 852 322 795 c 0
 326 790 334 787 331 779 c 0
 328 772 319 772 312 771 c 0
 295 770 277 768 260 766 c 0
 250 766 245 762 248 751 c 0
 265 674 273 595 284 510 c 1
 320 579 334 648 347 717 c 0
 352 751 355 785 355 820 c 0
 355 831 354 842 354 853 c 0
 353 855 353 858 354 860 c 0
 356 871 352 887 366 890 c 2
 369 890 l 2
 380 890 383 876 388 868 c 0
 418 814 430 757 430 699 c 0
 430 670 427 640 422 610 c 0xf9
 408 518 366 438 315 362 c 0
 309 354 306 346 306 336 c 0
 306 333 307 328 308 324 c 0
 315 297 322 269 327 241 c 0
 328 231 330 228 334 228 c 0
 337 228 341 230 346 233 c 0
 391 260 438 273 487 273 c 0
 515 273 543 269 572 261 c 0
 636 244 664 196 664 142 c 0
 664 127 662 111 658 96 c 0
 624 -34 553 -139 423 -193 c 0
 406 -200 404 -211 404 -227 c 0
 400 -344 367 -449 284 -536 c 0
 275 -545 264 -552 252 -556 c 0
 247 -558 242 -559 237 -559 c 0xd6
288 -112 m 1
 298 -111 309 -111 319 -110 c 0
 337 -110 342 -104 340 -84 c 0
 335 -26 320 29 313 86 c 0
 312 92 310 97 307 97 c 0
 305 97 302 95 298 92 c 0
 258 59 223 20 215 -32 c 0
 212 -49 210 -62 210 -73 c 0
 210 -102 224 -110 274 -111 c 2
 288 -111 l 1
 288 -112 l 1
177 -97 m 1
 174 -71 171 -45 171 -21 c 0xd6
 171 -3 172 14 177 31 c 0
 194 92 230 141 276 184 c 0
 282 189 289 192 286 203 c 0
 279 231 275 259 268 292 c 1
 212 219 157 152 112 77 c 0
 100 57 86 38 80 14 c 0
 78 4 77 -6 77 -14 c 0
 77 -48 94 -69 132 -83 c 0xf6
 146 -88 160 -92 177 -97 c 1
399 -89 m 0
 403 -89 408 -87 413 -85 c 0
 488 -49 550 1 588 78 c 0
 590 83 592 87 592 91 c 0
 592 98 588 103 581 108 c 0
 572 114 562 120 552 123 c 0
 513 136 474 140 427 142 c 0
 412 144 390 138 367 136 c 0
 356 135 351 131 354 116 c 0
 369 53 384 -11 390 -75 c 0
 391 -86 395 -89 399 -89 c 0
EndSplineSet
EndChar

StartChar: uniE05B
Encoding: 57435 57435 143
Width: 663
Flags: MW
HStem: -226 115<249 315.5 290.5 368> 141 132<420 496>
VStem: 0 78<-26 28.5> 170 40<-76.5 -13> 210 54<655 685 618.5 702> 267 38 308 44 350 79<653.5 806.5>
LayerCount: 2
Fore
SplineSet
506 -639 m 0xe9
 503 -639 499 -637 495 -634 c 0
 487 -629 481 -621 476 -613 c 0
 437 -549 389 -493 336 -440 c 0
 332 -436 322 -433 326 -424 c 0
 329 -416 337 -416 345 -415 c 0
 366 -412 394 -416 404 -399 c 0
 406 -396 407 -392 407 -388 c 0
 407 -374 396 -356 392 -340 c 2
 368 -226 l 2
 366 -226 365 -226 364 -225 c 0
 358 -224 351 -223 345 -223 c 0
 339 -223 333 -224 326 -224 c 0
 311 -225 296 -226 282 -226 c 0
 216 -226 154 -212 99 -171 c 0
 85 -161 70 -145 59 -131 c 0
 20 -82 0 -34 0 19 c 0
 0 38 2 58 7 78 c 0
 23 140 61 191 96 244 c 0
 136 304 178 362 223 418 c 2
 238 437 l 1
 235 457 l 2
 221 535 210 615 210 695 c 0
 210 709 210 723 211 737 c 0
 216 824 241 906 293 978 c 0xe9
 304 992 316 1009 333 1009 c 0
 357 1009 365 984 370 963 c 0
 387 894 414 827 424 756 c 0
 427 734 429 711 429 689 c 0
 429 618 413 549 383 483 c 0
 363 440 341 397 313 358 c 0
 308 351 305 345 305 337 c 0
 305 334 305 331 306 328 c 0
 315 299 321 269 326 240 c 0
 327 231 329 228 333 228 c 0
 335 228 339 230 344 233 c 0xe5
 389 260 436 273 486 273 c 0
 506 273 526 271 547 267 c 0
 625 253 663 207 663 143 c 0
 663 130 662 115 658 100 c 0
 629 -19 567 -119 454 -179 c 0
 444 -184 433 -188 423 -193 c 2
 418 -196 l 2
 419 -199 420 -202 420 -206 c 0
 429 -258 443 -309 453 -361 c 0
 455 -374 459 -379 466 -379 c 0
 470 -379 475 -377 481 -373 c 0
 493 -364 505 -357 516 -348 c 0
 521 -344 525 -342 530 -342 c 0
 533 -342 536 -343 539 -345 c 0
 545 -349 549 -354 549 -360 c 0
 549 -363 548 -366 547 -369 c 0
 523 -438 512 -510 512 -583 c 0
 512 -596 512 -609 513 -623 c 2
 513 -626 l 2
 513 -635 511 -639 506 -639 c 0xe9
300 -111 m 0xf2
 331 -111 338 -110 338 -92 c 0
 338 -87 338 -81 337 -73 c 0
 336 -68 336 -63 336 -59 c 0
 331 -6 316 45 308 100 c 1
 284 83 265 64 250 43 c 0
 226 12 210 -23 210 -62 c 0
 210 -91 218 -107 241 -108 c 0
 261 -110 281 -111 300 -111 c 0xf2
175 -96 m 1
 173 -71 170 -46 170 -22 c 0
 170 -4 171 14 176 31 c 0
 193 92 229 141 274 183 c 0
 280 189 288 191 285 202 c 0
 279 231 274 259 267 292 c 1xf5
 211 219 155 151 110 76 c 0
 102 62 93 49 87 35 c 0
 83 25 76 14 78 -13 c 0
 78 -39 93 -63 115 -76 c 0
 133 -85 154 -91 175 -96 c 1
398 -89 m 0
 401 -89 404 -88 408 -86 c 0
 494 -48 556 12 595 94 c 1
 592 97 l 2
 572 119 546 125 520 132 c 0
 491 138 462 141 433 141 c 0
 407 141 381 139 355 134 c 0
 353 131 352 128 352 123 c 0
 352 121 352 118 353 115 c 0xea
 368 53 382 -10 389 -74 c 0
 390 -84 393 -89 398 -89 c 0
277 500 m 1xe9
 308 560 328 624 340 692 c 0
 346 725 350 757 350 789 c 0
 350 824 345 859 332 893 c 1
 282 812 264 728 264 642 c 0
 264 595 269 548 277 500 c 1xe9
EndSplineSet
EndChar

StartChar: uniE05C
Encoding: 57436 57436 144
Width: 731
Flags: MW
HStem: -535 71<415 427 409.5 460> 69 53
VStem: 3 111 12 90 191 32<265 438> 241 132<341.5 391> 256 111<-33.5 -21.5 -33.5 -11> 579 152<252.5 267.5 229.5 292> 589 119<-292 -267 -314 -257.5>
LayerCount: 2
Fore
SplineSet
427 -535 m 0xda80
 403 -535 379 -532 354 -526 c 0
 309 -514 268 -491 236 -456 c 2
 228 -447 l 1
 223 -439 l 1
 223 -463 l 2
 223 -477 224 -490 217 -503 c 0
 215 -507 213 -511 208 -511 c 0
 202 -511 201 -505 201 -501 c 0
 201 -479 196 -458 196 -437 c 0
 196 -384 197 -330 197 -277 c 0
 197 -224 196 -171 194 -118 c 0
 192 -56 193 7 192 69 c 0
 191 134 191 200 191 265 c 2
 191 462 l 2
 191 474 192 486 195 497 c 0
 198 506 204 510 210 511 c 2
 211 511 l 2
 220 511 218 502 219 497 c 0
 223 485 224 473 224 460 c 0
 224 453 224 445 223 438 c 2
 223 -399 l 1
 231 -395 242 -397 252 -397 c 2
 270 -397 l 2
 274 -396 277 -396 281 -396 c 0
 297 -396 315 -404 332 -404 c 0
 339 -404 345 -403 352 -400 c 0
 353 -399 354 -399 356 -399 c 0
 363 -399 368 -409 371 -418 c 0
 380 -448 397 -464 422 -464 c 0
 432 -464 443 -461 456 -456 c 0
 507 -434 550 -404 572 -352 c 0
 583 -327 589 -303 589 -281 c 0
 589 -234 565 -192 520 -156 c 0
 496 -138 471 -123 442 -116 c 0
 438 -115 435 -114 432 -114 c 0
 426 -114 420 -117 415 -123 c 0
 401 -140 386 -156 381 -177 c 0
 379 -188 373 -194 362 -196 c 0
 347 -198 332 -201 317 -201 c 0
 298 -201 279 -197 261 -183 c 0
 251 -180 248 -176 248 -164 c 0
 248 -146 250 -127 252 -107 c 0
 255 -80 256 -53 256 -26 c 0
 256 4 255 34 253 64 c 0
 252 77 251 90 247 102 c 0
 245 102 242 103 241 104 c 0
 238 107 236 109 236 112 c 0
 236 114 238 116 242 117 c 1
 242 122 247 124 252 125 c 0
 260 126 267 129 274 131 c 0
 288 139 300 148 315 153 c 0
 325 156 334 159 344 159 c 0xda80
 351 159 358 158 366 155 c 0
 404 143 443 134 482 124 c 0
 486 123 489 122 493 122 c 0
 500 122 508 125 516 130 c 0
 552 151 573 185 577 224 c 0
 578 235 579 247 579 258 c 0
 579 326 556 386 497 432 c 0
 475 449 449 453 423 456 c 2
 421 456 l 2
 412 456 404 451 398 444 c 0
 382 424 373 403 373 379 c 0
 373 372 373 364 375 357 c 0
 376 353 376 349 376 346 c 0
 376 325 364 311 342 304 c 0
 319 297 295 295 272 291 c 0
 255 289 245 297 243 312 c 0
 242 325 241 336 241 347 c 0
 241 403 260 436 321 462 c 2
 435 510 l 2
 457 519 478 523 498 523 c 0
 549 523 594 498 635 462 c 0
 685 418 720 362 729 295 c 0
 731 284 731 273 731 262 c 0
 731 197 701 149 633 109 c 0xdd
 586 81 517 65 450 69 c 0
 437 66 424 65 411 65 c 0
 396 65 381 66 365 69 c 1
 366 55 367 41 367 27 c 0
 367 17 366 7 366 -3 c 0
 367 -10 367 -18 367 -25 c 0
 367 -42 365 -59 364 -76 c 1
 389 -64 415 -55 444 -51 c 0
 469 -48 493 -42 518 -42 c 0
 524 -42 529 -42 534 -43 c 0
 622 -52 699 -145 706 -232 c 0
 707 -246 708 -260 708 -274 c 0
 708 -354 685 -425 612 -475 c 0
 556 -513 493 -535 427 -535 c 0xda80
91 -543 m 0
 88 -543 83 -540 76 -536 c 0
 63 -527 48 -520 35 -511 c 0
 19 -500 12 -487 12 -467 c 2
 12 -209 l 1xda80
 7 -115 9 -22 6 71 c 0
 3 136 3 200 3 265 c 2
 3 414 l 2
 3 440 3 467 1 493 c 2
 0 503 l 2
 0 507 1 511 2 514 c 0
 9 533 18 543 31 543 c 0
 38 543 46 540 56 533 c 0
 92 508 120 479 117 429 c 0xea80
 110 334 114 239 111 144 c 0
 106 -17 104 -179 102 -340 c 0
 101 -401 99 -463 98 -524 c 0
 97 -537 96 -543 91 -543 c 0
EndSplineSet
EndChar

StartChar: uniE05D
Encoding: 57437 57437 145
Width: 731
Flags: MW
HStem: -921 60 -534 70 69 53
VStem: 3 111 12 90 191 32<265 438> 215 25<-818.5 -810 -814 -810> 241 132<341.5 391> 248 38<-658.5 -618> 256 111<-33.5 -21.5 -33.5 -11> 375 36<-580 -550.5 -576 -550.5> 397 31<-786.5 -735> 579 152<252.5 267.5 229.5 292> 589 119<-292 -267 -314 -257.5>
LayerCount: 2
Fore
SplineSet
304 -921 m 0xec44
 292 -921 279 -919 267 -913 c 0
 231 -897 217 -868 215 -831 c 0
 214 -825 215 -818 215 -810 c 0
 212 -778 225 -750 249 -726 c 0xea44
 255 -720 259 -714 256 -703 c 0
 251 -685 248 -667 248 -650 c 0
 248 -602 269 -559 305 -520 c 0
 307 -517 310 -514 313 -511 c 1xec84
 284 -498 258 -480 236 -456 c 2
 228 -447 l 1
 223 -439 l 1
 223 -463 l 2
 223 -477 224 -490 217 -503 c 0
 215 -507 213 -511 208 -511 c 0
 202 -511 201 -505 201 -501 c 0
 201 -479 196 -458 196 -437 c 0
 196 -384 197 -330 197 -277 c 0
 197 -224 196 -171 194 -118 c 0
 192 -56 193 7 192 69 c 0
 191 134 191 200 191 265 c 2
 191 462 l 2
 191 474 192 486 195 497 c 0
 198 506 204 510 210 511 c 2
 211 511 l 2
 220 511 218 502 219 497 c 0
 223 485 224 473 224 460 c 0
 224 453 224 445 223 438 c 2
 223 -399 l 1
 231 -395 242 -397 252 -397 c 2
 270 -397 l 2
 274 -396 277 -396 281 -396 c 0
 297 -396 315 -404 332 -404 c 0
 339 -404 345 -403 352 -400 c 0
 353 -399 354 -399 356 -399 c 0
 363 -399 368 -409 371 -418 c 0
 380 -448 397 -464 422 -464 c 0
 432 -464 443 -461 456 -456 c 0
 507 -434 550 -404 572 -352 c 0
 583 -327 589 -303 589 -281 c 0
 589 -234 565 -192 520 -156 c 0
 496 -138 471 -123 442 -116 c 0
 438 -115 435 -114 432 -114 c 0
 426 -114 420 -117 415 -123 c 0
 401 -140 386 -156 381 -177 c 0
 379 -188 373 -194 362 -196 c 0
 347 -198 332 -201 317 -201 c 0
 298 -201 279 -197 261 -183 c 0
 251 -180 248 -176 248 -164 c 0
 248 -146 250 -127 252 -107 c 0
 255 -80 256 -53 256 -26 c 0
 256 4 255 34 253 64 c 0
 252 77 251 90 247 102 c 0
 245 102 242 103 241 104 c 0
 238 107 236 109 236 112 c 0
 236 114 238 116 242 117 c 1
 242 122 247 124 252 125 c 0
 260 126 267 129 274 131 c 0
 288 139 300 148 315 153 c 0
 325 156 334 159 344 159 c 0xec44
 351 159 358 158 366 155 c 0
 404 143 443 134 482 124 c 0
 486 123 489 122 493 122 c 0
 500 122 508 125 516 130 c 0
 552 151 573 185 577 224 c 0
 578 235 579 247 579 258 c 0
 579 326 556 386 497 432 c 0
 475 449 449 453 423 456 c 2
 421 456 l 2
 412 456 404 451 398 444 c 0
 382 424 373 403 373 379 c 0
 373 372 373 364 375 357 c 0
 376 353 376 349 376 346 c 0
 376 325 364 311 342 304 c 0
 319 297 295 295 272 291 c 0
 255 289 245 297 243 312 c 0
 242 325 241 336 241 347 c 0
 241 403 260 436 321 462 c 2xed08
 435 510 l 2
 457 519 478 523 498 523 c 0
 549 523 594 498 635 462 c 0
 685 418 720 362 729 295 c 0
 731 284 731 273 731 262 c 0
 731 197 701 149 633 109 c 0
 586 81 517 65 450 69 c 0
 437 66 424 65 411 65 c 0
 396 65 381 66 365 69 c 1
 366 55 367 41 367 27 c 0
 367 17 366 7 366 -3 c 0
 367 -10 367 -18 367 -25 c 0
 367 -42 365 -59 364 -76 c 1
 389 -64 415 -55 444 -51 c 0xec48
 469 -48 493 -42 518 -42 c 0
 524 -42 529 -42 534 -43 c 0
 622 -52 699 -145 706 -232 c 0
 707 -246 708 -260 708 -274 c 0
 708 -354 685 -425 612 -475 c 0
 551 -516 482 -538 410 -534 c 1
 411 -541 411 -547 411 -554 c 0
 411 -581 404 -607 394 -634 c 0
 391 -641 390 -648 390 -654 c 0xec64
 390 -661 393 -669 401 -677 c 0
 421 -697 428 -722 428 -748 c 0
 428 -758 427 -769 425 -779 c 0
 418 -825 400 -866 362 -898 c 0xec54
 344 -913 324 -921 304 -921 c 0xec44
324 -861 m 0xea54
 356 -856 380 -834 393 -803 c 0
 396 -796 397 -790 397 -783 c 0
 397 -765 387 -746 375 -730 c 0
 369 -722 362 -719 354 -719 c 0
 350 -719 346 -720 341 -722 c 0
 312 -733 288 -751 265 -771 c 0
 247 -786 240 -799 240 -810 c 0
 240 -827 256 -840 281 -852 c 0
 293 -858 307 -860 324 -861 c 0xea54
325 -654 m 0xeca4
 338 -654 351 -648 359 -632 c 0
 368 -616 372 -598 375 -580 c 2
 375 -576 l 2
 375 -565 368 -557 355 -557 c 0
 322 -557 289 -575 286 -618 c 0
 286 -631 294 -648 311 -652 c 0
 316 -653 321 -654 325 -654 c 0xeca4
91 -543 m 0
 88 -543 83 -540 76 -536 c 0
 63 -527 48 -520 35 -511 c 0
 19 -500 12 -487 12 -467 c 2
 12 -209 l 1xec44
 7 -115 9 -22 6 71 c 0
 3 136 3 200 3 265 c 2
 3 414 l 2
 3 440 3 467 1 493 c 2
 0 503 l 2
 0 507 1 511 2 514 c 0
 9 533 18 543 31 543 c 0
 38 543 46 540 56 533 c 0
 92 508 120 479 117 429 c 0xf444
 110 334 114 239 111 144 c 0
 106 -17 104 -179 102 -340 c 0
 101 -401 99 -463 98 -524 c 0
 97 -537 96 -543 91 -543 c 0
EndSplineSet
EndChar

StartChar: uniE05E
Encoding: 57438 57438 146
Width: 775
Flags: MW
HStem: -535 71<459 471 453.5 504> 69 53
VStem: 47 111 56 90 92 46 235 32<265 438> 285 132<341.5 391> 300 111<-33.5 -21.5 -33.5 -11> 623 152<252.5 267.5 229.5 292> 633 119<-292 -267 -314 -257.5>
LayerCount: 2
Fore
SplineSet
471 -535 m 0xd540
 447 -535 423 -532 398 -526 c 0
 353 -514 312 -491 280 -456 c 2
 272 -447 l 1
 267 -439 l 1
 267 -463 l 2
 267 -477 268 -490 261 -503 c 0
 259 -507 257 -511 252 -511 c 0
 246 -511 245 -505 245 -501 c 0
 245 -479 240 -458 240 -437 c 0
 240 -384 241 -330 241 -277 c 0
 241 -224 240 -171 238 -118 c 0
 236 -56 237 7 236 69 c 0
 235 134 235 200 235 265 c 2
 235 462 l 2
 235 474 236 486 239 497 c 0
 242 506 248 510 254 511 c 2
 255 511 l 2
 264 511 262 502 263 497 c 0
 267 485 268 473 268 460 c 0
 268 453 268 445 267 438 c 2
 267 -399 l 1
 275 -395 286 -397 296 -397 c 2
 314 -397 l 2
 318 -396 321 -396 325 -396 c 0
 341 -396 359 -404 376 -404 c 0
 383 -404 389 -403 396 -400 c 0
 397 -399 398 -399 400 -399 c 0
 407 -399 412 -409 415 -418 c 0
 424 -448 441 -464 466 -464 c 0
 476 -464 487 -461 500 -456 c 0
 551 -434 594 -404 616 -352 c 0
 627 -327 633 -303 633 -281 c 0
 633 -234 609 -192 564 -156 c 0
 540 -138 515 -123 486 -116 c 0
 482 -115 479 -114 476 -114 c 0
 470 -114 464 -117 459 -123 c 0
 445 -140 430 -156 425 -177 c 0
 423 -188 417 -194 406 -196 c 0
 391 -198 376 -201 361 -201 c 0
 342 -201 323 -197 305 -183 c 0
 295 -180 292 -176 292 -164 c 0
 292 -146 294 -127 296 -107 c 0
 299 -80 300 -53 300 -26 c 0
 300 4 299 34 297 64 c 0
 296 77 295 90 291 102 c 0
 289 102 286 103 285 104 c 0
 282 107 280 109 280 112 c 0
 280 114 282 116 286 117 c 1
 286 122 291 124 296 125 c 0
 304 126 311 129 318 131 c 0
 332 139 344 148 359 153 c 0
 369 156 378 159 388 159 c 0xd540
 395 159 402 158 410 155 c 0
 448 143 487 134 526 124 c 0
 530 123 533 122 537 122 c 0
 544 122 552 125 560 130 c 0
 596 151 617 185 621 224 c 0
 622 235 623 247 623 258 c 0
 623 326 600 386 541 432 c 0
 519 449 493 453 467 456 c 2
 465 456 l 2
 456 456 448 451 442 444 c 0
 426 424 417 403 417 379 c 0
 417 372 417 364 419 357 c 0
 420 353 420 349 420 346 c 0
 420 325 408 311 386 304 c 0
 363 297 339 295 316 291 c 0
 299 289 289 297 287 312 c 0
 286 325 285 336 285 347 c 0
 285 403 304 436 365 462 c 2
 479 510 l 2
 501 519 522 523 542 523 c 0
 593 523 638 498 679 462 c 0
 729 418 764 362 773 295 c 0
 775 284 775 273 775 262 c 0
 775 197 745 149 677 109 c 0xd680
 630 81 561 65 494 69 c 0
 481 66 468 65 455 65 c 0
 440 65 425 66 409 69 c 1
 410 55 411 41 411 27 c 0
 411 17 410 7 410 -3 c 0
 411 -10 411 -18 411 -25 c 0
 411 -42 409 -59 408 -76 c 1
 433 -64 459 -55 488 -51 c 0
 513 -48 537 -42 562 -42 c 0
 568 -42 573 -42 578 -43 c 0
 666 -52 743 -145 750 -232 c 0
 751 -246 752 -260 752 -274 c 0
 752 -354 729 -425 656 -475 c 0
 600 -513 537 -535 471 -535 c 0xd540
135 -543 m 0
 132 -543 127 -540 120 -536 c 0
 107 -527 92 -520 79 -511 c 0
 63 -500 56 -487 56 -467 c 2
 56 -209 l 1xd540
 51 -115 53 -22 50 71 c 0
 47 136 47 200 47 265 c 2
 47 414 l 2
 47 440 47 467 45 493 c 2
 44 503 l 2
 44 507 45 511 46 514 c 0
 53 533 62 543 74 543 c 0xe540
 78 543 82 542 87 540 c 1
 89 552 90 565 92 578 c 0
 92 581 93 584 93 586 c 0
 93 596 89 600 82 600 c 0
 78 600 74 599 69 598 c 0
 55 594 41 591 28 586 c 0
 24 584 20 583 17 583 c 0
 13 583 9 585 5 590 c 0
 2 594 0 598 0 603 c 0
 0 607 2 611 5 616 c 0
 58 685 96 762 119 846 c 0
 122 855 124 858 128 858 c 2
 128 858 129 858 129 858 c 2
 132 858 135 854 139 850 c 0
 146 842 148 833 150 824 c 0
 167 751 195 682 228 615 c 0
 231 610 239 603 232 596 c 0
 230 593 226 593 223 593 c 0
 219 593 216 594 212 594 c 0
 193 597 180 600 170 600 c 0
 147 600 146 586 142 541 c 0
 141 527 140 513 138 499 c 1xcd40
 153 481 163 458 161 429 c 0xe540
 154 334 158 239 155 144 c 0
 150 -17 148 -179 146 -340 c 0
 145 -401 143 -463 142 -524 c 0
 141 -537 140 -543 135 -543 c 0
EndSplineSet
EndChar

StartChar: uniE05F
Encoding: 57439 57439 147
Width: 796
Flags: MW
HStem: -535 71<480 492 474.5 525> 69 53
VStem: 77 89<-370.5 -340 -370.5 -209> 89 52 256 31<265 438> 260 27<-447.5 -439 -470 -437> 306 132<370 373 373 375> 321 111<-39.5 -21.5> 644 152<252.5 258> 654 119<-292 -267>
LayerCount: 2
Fore
SplineSet
492 -535 m 0xe940
 468 -535 443 -532 418 -526 c 0
 374 -514 333 -491 301 -456 c 0
 298 -453 295 -450 293 -447 c 0
 291 -445 289 -442 287 -439 c 1
 287 -463 l 2xe540
 287 -477 288 -490 282 -503 c 0
 279 -507 277 -512 271 -511 c 0
 267 -510 266 -505 266 -501 c 0
 265 -479 260 -458 260 -437 c 0
 261 -384 262 -330 262 -277 c 0
 261 -224 261 -171 258 -118 c 0
 257 -95 257 -72 257 -49 c 2
 257 69 l 2
 256 134 256 200 256 265 c 2
 256 462 l 2
 256 474 256 486 260 497 c 0
 262 506 268 510 275 511 c 2
 276 511 l 2
 284 511 283 502 284 497 c 0
 288 485 289 473 289 460 c 0
 289 453 288 445 287 438 c 2
 287 -399 l 1
 295 -395 307 -397 316 -397 c 2
 334 -397 l 2
 339 -396 342 -396 346 -396 c 0
 362 -396 380 -404 397 -404 c 0
 404 -404 410 -403 417 -400 c 0
 418 -399 419 -399 421 -399 c 0
 427 -399 433 -409 436 -418 c 0
 445 -448 462 -464 487 -464 c 0
 497 -464 508 -461 521 -456 c 0
 572 -434 614 -404 637 -352 c 0
 648 -327 654 -303 654 -281 c 0
 653 -234 630 -192 585 -156 c 0
 561 -138 536 -123 506 -116 c 0
 503 -115 500 -114 497 -114 c 0
 490 -114 485 -117 479 -123 c 0
 465 -140 451 -156 446 -177 c 0
 443 -188 438 -194 427 -196 c 0
 412 -198 397 -201 382 -201 c 0
 362 -201 344 -197 325 -183 c 0
 315 -180 312 -176 312 -164 c 0
 312 -146 315 -127 316 -107 c 0
 320 -80 321 -53 321 -26 c 0
 320 4 319 34 317 64 c 0
 317 77 316 90 311 102 c 0
 309 102 307 103 305 104 c 0
 303 107 301 109 301 112 c 0
 300 114 302 116 306 117 c 0
 307 122 312 124 317 125 c 0
 324 126 332 129 339 131 c 0
 352 139 365 148 380 153 c 0
 390 156 399 159 409 159 c 0xe940
 416 159 423 158 431 155 c 0
 469 143 508 134 546 124 c 0
 551 123 554 122 558 122 c 0
 565 122 572 125 580 130 c 0
 617 151 638 185 642 224 c 0
 643 235 644 247 644 258 c 0
 643 326 621 386 561 432 c 0
 540 449 514 453 488 456 c 2
 486 456 l 2
 477 456 469 451 463 444 c 0
 447 424 438 403 438 379 c 2
 438 373 l 2
 438 367 438 362 439 357 c 0
 441 353 441 349 441 346 c 0
 441 325 429 311 406 304 c 0
 383 297 360 295 336 291 c 0
 319 289 310 297 308 312 c 0
 307 325 306 336 306 347 c 0
 306 403 325 436 386 462 c 2
 500 510 l 2
 522 519 543 523 563 523 c 0
 613 523 658 498 699 462 c 0
 750 418 785 362 794 295 c 0
 796 284 796 273 796 262 c 0
 796 197 766 149 697 109 c 0xea80
 650 81 581 65 515 69 c 0
 502 66 489 65 476 65 c 0
 460 65 445 66 430 69 c 1
 431 55 432 41 432 27 c 0
 431 17 431 7 431 -3 c 0
 432 -10 432 -18 432 -25 c 2
 429 -76 l 1
 453 -64 480 -55 509 -51 c 0
 534 -48 558 -42 583 -42 c 0
 588 -42 593 -42 599 -43 c 0
 687 -52 763 -145 770 -232 c 0
 772 -246 773 -260 773 -274 c 0
 772 -354 750 -425 677 -475 c 0
 621 -513 558 -535 492 -535 c 0xe940
122 -869 m 0xd940
 118 -869 114 -865 109 -861 c 0
 102 -854 99 -845 97 -835 c 0
 76 -764 45 -696 8 -632 c 0
 4 -626 -4 -620 3 -613 c 0
 6 -610 9 -609 13 -609 c 0
 16 -609 19 -610 23 -610 c 0
 39 -612 52 -613 61 -613 c 0
 88 -613 88 -601 89 -553 c 0xd940
 90 -536 90 -520 91 -504 c 1
 81 -494 76 -483 77 -467 c 2
 77 -209 l 1
 72 -115 74 -22 70 71 c 0
 68 136 68 200 68 265 c 2
 68 414 l 2
 68 440 67 467 65 493 c 0
 66 496 65 500 65 503 c 0
 65 507 65 511 66 514 c 0
 74 533 83 543 96 543 c 0
 102 543 111 540 121 533 c 0
 156 508 185 479 181 429 c 0
 177 375 177 322 177 268 c 0
 177 227 177 185 176 144 c 0
 171 -17 168 -179 166 -340 c 0
 166 -401 164 -463 162 -524 c 0xe940
 162 -537 161 -542 156 -542 c 0
 153 -542 149 -541 145 -538 c 1
 144 -554 143 -570 141 -587 c 0
 142 -589 142 -591 142 -593 c 0
 142 -604 146 -608 153 -608 c 0
 156 -608 160 -607 165 -605 c 0
 179 -601 193 -597 206 -591 c 0
 211 -589 214 -588 218 -588 c 0
 221 -588 225 -590 229 -594 c 0
 233 -599 235 -603 235 -608 c 0
 235 -611 233 -615 230 -620 c 0
 181 -692 148 -771 129 -856 c 0
 128 -865 125 -869 122 -869 c 0xd940
EndSplineSet
EndChar

StartChar: uniE060
Encoding: 57440 57440 148
Width: 566
Flags: MW
HStem: -511 1023
VStem: 5 23 112 26 116 28<-428 -397> 427 34<-100 -77.5 153 347 -315 412> 458 10 538 20
LayerCount: 2
Fore
SplineSet
439 -510 m 0xda
 433 -510 432 -505 432 -501 c 0
 432 -466 428 -433 428 -399 c 0
 428 -363 430 -327 430 -291 c 0
 430 -268 429 -245 429 -222 c 1
 420 -229 407 -232 394 -231 c 0
 311 -221 231 -197 150 -184 c 0
 147 -183 144 -182 141 -182 c 1
 143 -261 143 -340 144 -419 c 0
 144 -437 142 -455 125 -472 c 1
 117 -446 116 -421 116 -397 c 0xda
 114 -294 115 -190 112 -86 c 0
 111 -55 111 -24 111 9 c 0
 111 51 112 94 112 137 c 0
 112 179 111 222 109 264 c 0
 106 332 106 399 106 467 c 0
 106 484 108 501 131 509 c 1
 141 490 140 471 139 453 c 0
 135 410 134 367 134 323 c 0
 134 279 135 235 136 191 c 1
 143 195 151 196 160 196 c 0
 165 196 170 195 175 195 c 0
 257 184 340 168 422 154 c 0
 424 154 425 154 427 153 c 1
 427 412 l 2
 427 431 431 450 434 468 c 0xea
 437 482 447 484 457 485 c 0
 457 486 458 486 458 486 c 1
 469 486 466 473 468 468 c 0
 469 462 470 455 470 449 c 0xd6
 470 443 470 439 468 435 c 0
 459 406 461 376 461 347 c 2
 461 -315 l 2
 462 -341 462 -365 462 -390 c 0
 462 -414 462 -439 460 -463 c 0
 460 -476 457 -489 450 -500 c 0
 447 -505 444 -510 439 -510 c 0xda
27 -469 m 0
 19 -469 20 -459 19 -452 c 0
 8 -388 13 -323 4 -259 c 1
 4 -177 5 -94 5 -12 c 0
 5 50 4 111 3 173 c 0
 1 250 0 326 0 402 c 2
 0 453 l 2
 0 467 3 480 5 493 c 0
 7 506 19 510 28 512 c 2
 30 512 l 2
 38 512 36 500 38 494 c 0
 41 485 43 476 43 467 c 0
 43 453 40 441 36 430 c 0
 27 411 25 391 25 371 c 0
 25 349 28 327 28 305 c 0
 27 197 32 89 35 -19 c 0
 37 -144 40 -270 43 -395 c 0
 43 -404 44 -413 44 -421 c 0
 44 -432 43 -444 39 -454 c 0
 36 -461 33 -469 27 -469 c 0
427 -100 m 1
 427 -55 426 -11 426 30 c 1
 421 28 417 27 411 27 c 0
 407 26 404 27 400 27 c 0
 314 42 228 56 142 69 c 0
 140 70 139 70 138 71 c 1
 138 31 138 -9 139 -48 c 1
 144 -48 149 -47 155 -47 c 2
 161 -47 l 2
 165 -47 170 -47 176 -48 c 0xea
 253 -63 328 -85 405 -96 c 0
 414 -97 421 -99 427 -100 c 1
548 -511 m 1
 541 -488 538 -466 538 -444 c 0
 535 -250 530 -56 526 138 c 0
 525 221 527 304 520 387 c 0
 518 406 522 425 524 444 c 0
 525 455 533 465 544 465 c 0
 553 465 551 452 553 446 c 0
 555 441 556 436 556 430 c 0
 556 418 552 405 552 393 c 2
 558 12 l 2
 558 -15 561 -42 561 -69 c 0
 563 -200 564 -331 566 -462 c 0
 566 -479 565 -497 548 -511 c 1
EndSplineSet
EndChar

StartChar: uniE061
Encoding: 57441 57441 149
Width: 235
Flags: MW
HStem: -152 107<17 134> 21 105<36 177>
VStem: 197 28 206 29
LayerCount: 2
Fore
SplineSet
196 18 m 0xe0
 143 20 89 21 36 21 c 0
 29 22 22 22 19 31 c 0
 13 57 6 83 1 109 c 1
 1 113 l 2
 1 125 8 132 22 130 c 0
 58 126 95 126 132 126 c 2
 177 126 l 2
 194 126 197 131 197 146 c 0
 196 226 198 305 192 385 c 0
 191 398 191 410 191 423 c 0
 191 463 194 504 196 543 c 0
 196 553 201 559 209 561 c 0
 210 561 211 562 212 562 c 0
 219 562 218 552 221 547 c 0
 225 539 226 529 226 520 c 0
 226 509 224 497 225 486 c 0
 226 460 226 435 226 409 c 0
 226 394 225 380 225 365 c 0
 225 287 231 210 232 132 c 0
 232 115 234 98 234 81 c 0
 234 70 233 58 230 46 c 0
 225 27 217 17 196 18 c 0xe0
218 -562 m 1xd0
 205 -524 204 -489 205 -453 c 0
 206 -434 206 -416 206 -397 c 0
 206 -321 202 -244 201 -168 c 0
 201 -149 194 -144 177 -146 c 0
 125 -152 74 -150 22 -152 c 0
 12 -152 4 -151 4 -139 c 0
 5 -118 0 -98 0 -77 c 0
 0 -52 6 -43 27 -43 c 0
 58 -43 89 -45 121 -45 c 0
 147 -45 174 -44 200 -38 c 1
 204 -38 l 2
 211 -38 213 -44 216 -51 c 0
 227 -85 227 -121 229 -155 c 0
 233 -255 235 -355 235 -455 c 2
 235 -515 l 2
 234 -531 233 -546 218 -562 c 1xd0
EndSplineSet
EndChar

StartChar: uniE062
Encoding: 57442 57442 150
Width: 776
Flags: MW
HStem: -496 120<178 213> 74 142<302.5 445.5>
VStem: 0 776<-384.5 155.5> 519 89 659 84
LayerCount: 2
Fore
SplineSet
279 -490 m 0xa0
 252 -494 226 -496 200 -496 c 0
 156 -496 114 -491 70 -482 c 0
 35 -475 24 -450 12 -424 c 0
 7 -414 4 -403 1 -392 c 0
 0 -389 0 -386 0 -383 c 0
 0 -369 12 -357 27 -362 c 0
 67 -374 107 -376 148 -376 c 0
 170 -376 191 -376 213 -376 c 0
 288 -376 360 -356 422 -309 c 0
 454 -285 478 -257 498 -224 c 0
 511 -203 519 -183 519 -160 c 0
 519 -154 519 -146 517 -139 c 0
 503 -76 478 -19 433 25 c 0
 398 60 354 74 306 74 c 0
 299 74 292 74 284 73 c 0
 252 71 236 52 236 25 c 0
 236 19 237 13 238 7 c 0
 242 -9 244 -25 244 -41 c 0
 244 -86 226 -126 186 -158 c 0
 168 -173 149 -181 129 -181 c 0
 115 -181 101 -177 86 -169 c 0
 83 -168 81 -166 78 -165 c 0
 30 -143 6 -107 6 -62 c 0
 6 -49 8 -35 12 -20 c 0
 26 27 58 60 91 93 c 0
 166 168 259 206 364 215 c 0
 372 216 381 216 389 216 c 0
 502 216 587 151 603 23 c 0
 606 1 608 -22 608 -37 c 0
 607 -127 598 -207 558 -281 c 0xd0
 497 -393 411 -471 279 -490 c 0xa0
675 -195 m 0x88
 674 -195 674 -195 673 -195 c 0
 659 -195 655 -184 659 -173 c 0
 669 -145 669 -114 687 -88 c 0
 693 -79 697 -67 712 -73 c 0
 726 -78 743 -73 743 -103 c 0
 743 -146 711 -194 675 -195 c 0x88
707 64 m 0
 705 64 702 63 700 63 c 0
 685 63 680 75 683 86 c 0
 692 118 687 153 706 182 c 0
 711 190 714 206 726 200 c 0
 742 192 765 206 773 175 c 0
 775 167 776 159 776 152 c 0
 776 125 763 104 750 82 c 0
 742 67 723 63 707 64 c 0
EndSplineSet
EndChar

StartChar: uniE063
Encoding: 57443 57443 151
Width: 776
Flags: MW
HStem: -856 49<327 339 327 348.5> -644 48<358 374> -496 120<180 207> 74 142<302.5 445.5>
VStem: 242 15 288 20<-782 -757> 306 26.5 414 19<-704 -695.5> 519 89<-171.5 -29.5> 659 84
LayerCount: 2
Fore
SplineSet
242 -842 m 0xfd80
 237 -842 236 -836 235 -832 c 0
 232 -812 230 -793 231 -773 c 0
 235 -699 233 -624 242 -551 c 0
 242 -548 242 -546 241 -541 c 1
 227 -553 217 -565 202 -570 c 0
 199 -571 196 -572 193 -572 c 0
 188 -572 185 -569 184 -560 c 0
 182 -551 181 -544 181 -540 c 0
 181 -530 187 -527 205 -519 c 0
 217 -514 225 -504 233 -495 c 1
 223 -496 212 -496 202 -496 c 0
 158 -496 114 -491 70 -482 c 0
 35 -475 25 -450 12 -424 c 0
 7 -414 4 -403 1 -392 c 0
 0 -389 0 -386 0 -383 c 0
 0 -369 12 -357 27 -362 c 0
 67 -375 107 -376 148 -376 c 2
 213 -376 l 2
 288 -376 360 -356 422 -309 c 0
 454 -285 478 -257 498 -224 c 0
 511 -203 519 -183 519 -160 c 0
 519 -154 519 -146 517 -139 c 0
 499 -77 478 -20 433 25 c 0
 398 60 354 74 306 74 c 0
 299 74 292 74 284 73 c 0
 252 69 236 52 236 25 c 0
 236 19 237 13 238 7 c 0
 241 -9 244 -25 244 -41 c 0
 244 -86 225 -125 186 -158 c 0
 168 -173 149 -181 129 -181 c 0
 115 -181 101 -177 86 -169 c 0
 83 -168 81 -166 78 -165 c 0
 30 -143 6 -107 6 -62 c 0
 6 -49 8 -35 12 -20 c 0
 25 27 58 60 91 93 c 0
 166 168 259 202 364 215 c 0
 372 216 381 216 389 216 c 0
 502 216 586 151 603 23 c 0
 606 1 608 -22 608 -37 c 0
 608 -127 598 -207 558 -281 c 0
 497 -393 411 -471 279 -490 c 1
 269 -491 l 1
 269 -494 l 2
 268 -512 267 -531 265 -549 c 0
 259 -604 257 -659 257 -715 c 0
 257 -751 254 -786 254 -822 c 0
 254 -826 253 -830 252 -833 c 0
 250 -837 247 -842 242 -842 c 0xfd80
341 -856 m 0
 299 -856 294 -827 289 -801 c 0
 287 -788 289 -774 288 -760 c 0
 288 -754 292 -748 298 -748 c 2
 299 -748 l 2
 305 -748 306 -755 307 -760 c 0
 308 -763 308 -766 308 -770 c 0
 308 -794 319 -807 335 -807 c 0
 343 -807 352 -804 361 -799 c 0xfd80
 387 -785 400 -760 407 -733 c 0
 410 -722 414 -710 414 -698 c 0
 414 -693 414 -688 412 -683 c 0
 402 -658 384 -644 364 -644 c 0
 352 -644 341 -648 329 -656 c 0
 323 -660 318 -663 315 -663 c 0
 311 -663 309 -657 307 -645 c 0
 306 -638 306 -632 306 -625 c 0
 306 -594 313 -564 321 -533 c 0
 322 -529 322 -526 323 -523 c 0
 328 -514 324 -502 332 -495 c 0
 335 -492 337 -491 340 -491 c 0
 347 -491 353 -498 360 -498 c 0
 381 -499 398 -491 414 -481 c 0
 419 -478 423 -476 426 -476 c 0
 432 -476 435 -483 435 -500 c 0
 435 -528 411 -541 374 -547 c 0
 341 -552 341 -550 333 -583 c 0
 331 -589 329 -595 332 -601 c 1
 343 -598 353 -596 363 -596 c 0xfb80
 401 -596 426 -623 431 -670 c 0
 432 -680 433 -690 433 -700 c 0
 433 -728 427 -755 419 -782 c 0
 412 -805 398 -823 381 -839 c 0
 369 -851 356 -856 341 -856 c 0
673 -195 m 2xfdc0
 659 -195 655 -184 659 -173 c 0
 669 -145 669 -114 687 -88 c 0
 693 -79 697 -68 712 -73 c 0
 726 -78 743 -73 743 -103 c 0
 743 -146 711 -194 675 -195 c 2
 673 -195 l 2xfdc0
700 63 m 2
 685 63 680 75 683 86 c 0
 692 118 688 153 706 182 c 0
 711 190 714 206 726 200 c 0
 742 192 765 206 773 175 c 0
 775 167 776 159 776 152 c 0
 776 125 762 105 750 82 c 0
 742 67 723 63 707 64 c 2
 700 63 l 2
EndSplineSet
EndChar

StartChar: uniE064
Encoding: 57444 57444 152
Width: 776
Flags: MW
HStem: -814 48 -496 120<178 213> 74 142<302.5 445.5>
VStem: 204 20<-732 -725 -728.5 -725> 230 31<-604 -572> 332 30<-542 -515 -538 -515> 349 25<-706 -665> 519 89<-171.5 -29.5> 659 84
LayerCount: 2
Fore
SplineSet
274 -814 m 0xcb80
 265 -814 255 -812 245 -808 c 0
 217 -795 206 -772 204 -742 c 0
 203 -737 204 -732 204 -725 c 0
 201 -699 212 -677 231 -658 c 0xd380
 236 -653 239 -649 237 -640 c 0
 233 -625 230 -611 230 -597 c 0
 230 -558 246 -523 276 -493 c 2
 279 -490 l 1
 252 -494 226 -496 200 -496 c 0
 156 -496 114 -491 70 -482 c 0
 35 -475 25 -450 12 -424 c 0
 7 -414 4 -403 1 -392 c 0
 0 -389 0 -386 0 -383 c 0
 0 -369 12 -357 27 -362 c 0
 67 -375 107 -376 148 -376 c 2
 213 -376 l 2
 288 -376 360 -356 422 -309 c 0
 454 -285 478 -257 498 -224 c 0
 511 -203 519 -183 519 -160 c 0
 519 -154 519 -146 517 -139 c 0
 503 -76 478 -20 433 25 c 0
 398 60 354 74 306 74 c 0
 299 74 292 74 284 73 c 0
 252 71 236 52 236 25 c 0
 236 19 237 13 238 7 c 0
 242 -9 244 -25 244 -41 c 0
 244 -86 225 -125 186 -158 c 0
 168 -173 149 -181 129 -181 c 0
 115 -181 101 -177 86 -169 c 0
 83 -168 81 -166 78 -165 c 0
 30 -143 6 -107 6 -62 c 0
 6 -49 8 -35 12 -20 c 0
 25 27 58 60 91 93 c 0
 166 168 259 206 364 215 c 0
 372 216 381 216 389 216 c 0
 502 216 586 151 603 23 c 0
 606 1 608 -22 608 -37 c 0
 608 -127 598 -207 558 -281 c 0
 509 -371 443 -440 350 -473 c 1
 353 -478 355 -484 357 -489 c 0
 360 -500 362 -510 362 -520 c 0
 362 -542 355 -564 348 -584 c 0
 346 -590 344 -596 344 -601 c 0xed80
 344 -607 346 -612 353 -619 c 0
 369 -635 374 -655 374 -675 c 0
 374 -684 373 -692 372 -700 c 0
 366 -737 352 -769 322 -795 c 0
 307 -808 291 -814 274 -814 c 0xcb80
291 -766 m 0xd380
 317 -762 336 -745 346 -720 c 0
 348 -714 349 -709 349 -703 c 0
 349 -689 342 -674 332 -662 c 0
 327 -656 321 -653 315 -653 c 0
 312 -653 309 -654 305 -655 c 0
 282 -664 262 -678 244 -694 c 0
 230 -706 224 -716 224 -725 c 0
 224 -739 237 -749 257 -759 c 0
 266 -764 277 -765 291 -766 c 0xd380
292 -601 m 0xcd80
 302 -601 312 -596 319 -583 c 0
 326 -570 330 -556 332 -542 c 2
 332 -538 l 2
 332 -530 327 -523 318 -523 c 0
 291 -522 263 -537 261 -572 c 0
 261 -582 267 -596 281 -599 c 0
 285 -600 288 -601 292 -601 c 0xcd80
673 -195 m 2
 659 -195 655 -184 659 -173 c 0
 669 -145 669 -114 687 -88 c 0
 693 -79 697 -67 712 -73 c 0
 726 -78 743 -73 743 -103 c 0
 743 -146 711 -195 675 -195 c 2
 673 -195 l 2
700 63 m 2
 685 63 680 75 683 86 c 0
 692 118 688 153 706 182 c 0
 711 190 714 206 726 200 c 0
 742 192 765 206 773 175 c 0
 775 167 776 159 776 152 c 0
 776 125 763 104 750 82 c 0
 742 67 723 63 707 64 c 2
 700 63 l 2
EndSplineSet
EndChar

StartChar: uniE065
Encoding: 57445 57445 153
Width: 776
Flags: MW
HStem: -496 120<178 213> 74 142<302.5 445.5> 493 64
VStem: 232 20<284 291 287.5 291> 258 31<412 444> 360 30<474 501 478 501> 377 25<310 351> 519 89<-171.5 -29.5> 659 84
LayerCount: 2
Fore
SplineSet
200 -496 m 0xeb80
 156 -496 114 -491 70 -482 c 0
 35 -475 25 -450 12 -424 c 0
 7 -414 4 -403 1 -392 c 0
 0 -389 0 -386 0 -383 c 0
 0 -369 12 -357 27 -362 c 0
 67 -375 107 -376 148 -376 c 2
 213 -376 l 2
 288 -376 360 -356 422 -309 c 0
 454 -285 478 -257 498 -224 c 0
 511 -203 519 -183 519 -160 c 0
 519 -154 519 -146 517 -139 c 0
 503 -76 478 -20 433 25 c 0
 398 60 354 74 306 74 c 0
 299 74 292 74 284 73 c 0
 252 71 236 52 236 25 c 0
 236 19 237 13 238 7 c 0
 242 -9 244 -25 244 -41 c 0
 244 -86 225 -125 186 -158 c 0
 168 -173 149 -181 129 -181 c 0
 115 -181 101 -177 86 -169 c 0
 83 -168 81 -166 78 -165 c 0
 30 -143 6 -107 6 -62 c 0
 6 -49 8 -35 12 -20 c 0
 25 27 58 60 91 93 c 0
 148 150 215 185 290 203 c 1
 284 204 279 206 273 208 c 0
 245 221 234 244 232 274 c 0
 231 279 232 284 232 291 c 0
 229 317 240 339 259 358 c 0xf380
 264 363 267 367 265 376 c 0
 261 391 258 405 258 419 c 0
 258 458 274 493 304 523 c 0
 308 527 312 531 314 536 c 0
 322 556 339 558 357 557 c 0
 375 556 381 541 385 527 c 0
 388 516 390 506 390 496 c 0
 390 474 383 452 376 432 c 0
 374 426 372 420 372 415 c 0xed80
 372 409 374 404 381 397 c 0
 397 381 402 361 402 341 c 0
 402 332 401 324 400 316 c 0
 394 279 380 246 350 221 c 0
 346 217 342 215 338 212 c 1
 364 215 l 2
 372 216 381 216 389 216 c 0
 502 216 586 151 603 23 c 0
 606 1 608 -22 608 -37 c 0
 608 -127 598 -207 558 -281 c 0
 497 -393 411 -470 279 -490 c 0
 252 -494 226 -496 200 -496 c 0xeb80
673 -195 m 2
 659 -195 655 -184 659 -173 c 0
 669 -145 669 -114 687 -88 c 0
 693 -79 697 -67 712 -73 c 0
 726 -78 743 -73 743 -103 c 0
 743 -146 711 -195 675 -195 c 2
 673 -195 l 2
319 250 m 0xf380
 345 254 364 271 374 296 c 0
 376 302 377 307 377 313 c 0
 377 327 370 342 360 354 c 0
 355 360 349 363 343 363 c 0
 340 363 337 362 333 361 c 0
 310 352 290 338 272 322 c 0
 258 310 252 300 252 291 c 0
 252 277 265 267 285 257 c 0
 294 252 305 251 319 250 c 0xf380
320 415 m 0xed80
 330 415 340 420 347 433 c 0
 354 446 358 460 360 474 c 2
 360 478 l 2
 360 486 355 493 346 493 c 0
 319 494 291 479 289 444 c 0
 289 434 295 420 309 417 c 0
 313 416 316 415 320 415 c 0xed80
700 63 m 2
 685 63 680 75 683 86 c 0
 692 118 688 153 706 182 c 0
 711 190 714 206 726 200 c 0
 742 192 765 206 773 175 c 0
 775 167 776 159 776 152 c 0
 776 125 763 104 750 82 c 0
 742 67 723 63 707 64 c 2
 700 63 l 2
EndSplineSet
EndChar

StartChar: uniE066
Encoding: 57446 57446 154
Width: 776
Flags: MW
HStem: -496 120<178 213> 394 48<393 409>
VStem: 277 15 323 20<256 281> 341 26.5 449 19<334 342.5> 519 89<-171.5 -29.5> 659 84
LayerCount: 2
Fore
SplineSet
200 -496 m 0xf6
 156 -496 114 -491 70 -482 c 0
 35 -475 25 -450 12 -424 c 0
 7 -414 4 -403 1 -392 c 0
 0 -389 0 -386 0 -383 c 0
 0 -369 12 -357 27 -362 c 0
 67 -375 107 -376 148 -376 c 2
 213 -376 l 2
 288 -376 360 -356 422 -309 c 0
 454 -285 478 -257 498 -224 c 0
 511 -203 519 -183 519 -160 c 0
 519 -154 519 -146 517 -139 c 0
 503 -76 478 -20 433 25 c 0
 398 60 354 74 306 74 c 0
 299 74 292 74 284 73 c 0
 252 71 236 52 236 25 c 0
 236 19 237 13 238 7 c 0
 242 -9 244 -25 244 -41 c 0
 244 -86 225 -125 186 -158 c 0
 168 -173 149 -181 129 -181 c 0
 115 -181 101 -177 86 -169 c 0
 83 -168 81 -166 78 -165 c 0
 30 -143 6 -107 6 -62 c 0
 6 -49 8 -35 12 -20 c 0
 25 27 58 60 91 93 c 0
 143 145 205 180 273 199 c 1
 271 201 271 204 270 206 c 0
 267 226 265 245 266 265 c 0
 270 339 268 414 277 487 c 0
 277 490 277 492 276 497 c 1
 262 485 252 473 237 468 c 0
 234 467 231 466 228 466 c 0
 223 466 220 469 219 478 c 0
 217 487 216 494 216 498 c 0
 216 508 222 511 240 519 c 0
 256 526 266 540 276 553 c 0
 281 559 287 567 295 564 c 0
 302 561 304 552 304 544 c 0
 303 526 302 507 300 489 c 0
 294 434 292 379 292 323 c 0
 292 287 289 252 289 216 c 0
 289 212 288 208 287 205 c 2
 285 202 l 1
 300 206 315 209 331 211 c 1
 328 219 326 229 324 237 c 0
 322 250 324 264 323 278 c 0
 323 284 327 290 333 290 c 2
 334 290 l 2
 340 290 341 283 342 278 c 0
 343 275 343 272 343 268 c 0
 343 244 354 231 370 231 c 0
 378 231 387 234 396 239 c 0xf6
 422 253 435 278 442 305 c 0
 445 316 449 328 449 340 c 0
 449 345 449 350 447 355 c 0
 438 380 419 394 399 394 c 0
 387 394 376 390 364 382 c 0
 358 378 353 375 350 375 c 0
 346 375 344 381 342 393 c 0
 341 400 341 406 341 413 c 0
 341 444 348 474 356 505 c 0
 357 509 357 512 358 515 c 0
 363 524 359 536 367 543 c 0
 370 546 372 547 375 547 c 0
 382 547 388 540 395 540 c 0
 416 539 432 548 449 557 c 0
 454 560 458 562 461 562 c 0
 467 562 470 555 470 538 c 0
 470 510 446 497 409 491 c 0
 376 486 376 488 368 455 c 0
 366 449 364 443 367 437 c 1
 378 440 388 442 398 442 c 0xee
 436 442 461 415 466 368 c 0
 467 358 468 348 468 338 c 0
 468 310 462 283 454 256 c 0
 449 240 440 226 429 213 c 1
 522 199 588 135 603 23 c 0
 606 1 608 -22 608 -37 c 0
 608 -127 598 -207 558 -281 c 0
 497 -393 411 -470 279 -490 c 0
 252 -494 226 -496 200 -496 c 0xf6
673 -195 m 2xf7
 659 -195 655 -184 659 -173 c 0
 669 -145 669 -114 687 -88 c 0
 693 -79 697 -67 712 -73 c 0
 726 -78 743 -73 743 -103 c 0
 743 -146 711 -195 675 -195 c 2
 673 -195 l 2xf7
700 63 m 2
 685 63 680 75 683 86 c 0
 692 118 688 153 706 182 c 0
 711 190 714 206 726 200 c 0
 742 192 765 206 773 175 c 0
 775 167 776 159 776 152 c 0
 776 125 763 104 750 82 c 0
 742 67 723 63 707 64 c 2
 700 63 l 2
EndSplineSet
EndChar

StartChar: uniE067
Encoding: 57447 57447 155
Width: 776
Flags: MW
HStem: -496 120<178 213> 74 142<302.5 445.5>
VStem: 287 43<300.5 305> 519 89<-171.5 -29.5> 659 84
LayerCount: 2
Fore
SplineSet
773 175 m 0
 775 167 776 159 776 152 c 0
 776 125 762 105 750 82 c 0
 742 67 723 63 707 64 c 0
 705 64 702 63 700 63 c 0
 685 63 680 75 683 86 c 0
 692 118 688 153 706 182 c 0
 711 190 714 206 726 200 c 0
 742 192 765 206 773 175 c 0
364 215 m 2
 372 216 381 216 389 216 c 0
 502 216 586 151 603 23 c 0
 606 1 608 -22 608 -37 c 0
 608 -127 598 -207 558 -281 c 0
 497 -393 411 -470 279 -490 c 0
 252 -494 226 -496 200 -496 c 0
 156 -496 114 -491 70 -482 c 0
 35 -475 25 -450 12 -424 c 0
 7 -414 4 -403 1 -392 c 0
 0 -389 0 -386 0 -383 c 0
 0 -369 12 -357 27 -362 c 0
 67 -375 107 -376 148 -376 c 0
 170 -376 191 -376 213 -376 c 0
 288 -376 360 -356 422 -309 c 0
 454 -285 478 -257 498 -224 c 0
 511 -203 519 -183 519 -160 c 0
 519 -154 519 -146 517 -139 c 0
 499 -77 478 -20 433 25 c 0
 398 60 354 74 306 74 c 0
 299 74 292 74 284 73 c 0
 252 69 236 52 236 25 c 0
 236 19 237 13 238 7 c 0
 241 -9 244 -25 244 -41 c 0
 244 -86 225 -125 186 -158 c 0
 168 -173 149 -181 129 -181 c 0
 115 -181 101 -177 86 -169 c 0
 83 -168 81 -166 78 -165 c 0
 30 -143 6 -107 6 -62 c 0
 6 -49 8 -35 12 -20 c 0
 25 27 58 60 91 93 c 0
 148 150 216 186 292 204 c 1
 291 235 287 267 287 299 c 0
 287 311 284 315 278 315 c 0
 275 315 271 314 267 312 c 0
 256 307 245 303 236 297 c 0
 233 295 229 294 226 294 c 0
 223 294 220 295 217 298 c 0
 213 302 211 305 211 308 c 0
 211 311 212 314 214 318 c 0
 245 380 267 445 275 514 c 0
 276 522 278 525 280 525 c 0
 283 525 286 523 290 520 c 0
 296 515 299 508 302 500 c 0
 325 445 354 394 390 346 c 0
 393 342 400 338 396 331 c 0
 393 327 389 327 385 327 c 0
 340 327 330 329 330 304 c 0
 330 297 331 288 332 276 c 2
 335 212 l 1
 364 215 l 2
712 -73 m 0
 726 -78 743 -73 743 -103 c 0
 743 -146 711 -194 675 -195 c 0
 674 -195 674 -195 673 -195 c 0
 659 -195 655 -184 659 -173 c 0
 669 -145 669 -114 687 -88 c 0
 693 -79 697 -68 712 -73 c 0
EndSplineSet
EndChar

